<?xml version="1.0" encoding="UTF-8"?>
<svg id="Layer_1" xmlns="http://www.w3.org/2000/svg" viewBox="0 0 350 165">
  <defs>
    <style>
      .cls-1, .cls-2, .cls-3, .cls-4, .cls-5 {
        fill: none;
      }

      .cls-6 {
        fill: #6800da;
      }

      .cls-7 {
        fill: #55c667;
      }

      .cls-8 {
        fill: #ed1c24;
      }

      .cls-9 {
        fill: #b8de29;
      }

      .cls-2 {
        stroke-dasharray: 3.95 3.95;
      }

      .cls-2, .cls-3, .cls-4 {
        stroke: #000;
      }

      .cls-2, .cls-3, .cls-4, .cls-5 {
        stroke-miterlimit: 10;
      }

      .cls-3 {
        stroke-dasharray: 4.01 4.01;
      }

      .cls-10 {
        opacity: .2;
      }

      .cls-11 {
        fill: #fde725;
      }

      .cls-5 {
        stroke: #ed1c24;
      }

      .cls-12 {
        fill: #73d055;
      }
    </style>
  </defs>
  <path class="cls-12" d="M126.44,118.59H22.11c-4.6,0-8.33-3.73-8.33-8.33v-2.33c0-4.6,3.73-8.33,8.33-8.33h104.33c4.6,0,8.33,3.73,8.33,8.33v2.33c0,4.6-3.73,8.33-8.33,8.33"/>
  <g>
    <path class="cls-12" d="M9.26,150.15v4.51h5.22v-4.51h1.41v10.79h-1.41v-5.06h-5.22v5.06h-1.39v-10.79h1.39Z"/>
    <path class="cls-12" d="M18.97,157.32c.03,1.9,1.25,2.69,2.66,2.69,1.01,0,1.62-.18,2.15-.4l.24,1.01c-.5.22-1.34.48-2.58.48-2.39,0-3.81-1.57-3.81-3.91s1.38-4.18,3.63-4.18c2.53,0,3.2,2.22,3.2,3.65,0,.29-.03.51-.05.66h-5.44ZM23.1,156.31c.02-.9-.37-2.29-1.95-2.29-1.42,0-2.05,1.31-2.16,2.29h4.11Z"/>
    <path class="cls-12" d="M26.16,149.57h1.41v11.36h-1.41v-11.36Z"/>
    <path class="cls-12" d="M29.88,155.72c0-.99-.03-1.79-.06-2.53h1.26l.06,1.33h.03c.58-.94,1.49-1.5,2.75-1.5,1.87,0,3.28,1.58,3.28,3.94,0,2.79-1.7,4.16-3.52,4.16-1.02,0-1.92-.45-2.38-1.22h-.03v4.21h-1.39v-8.39ZM31.28,157.78c0,.21.03.4.06.58.26.98,1.1,1.65,2.11,1.65,1.49,0,2.35-1.22,2.35-2.99,0-1.55-.82-2.88-2.3-2.88-.96,0-1.86.69-2.13,1.75-.05.18-.1.38-.1.58v1.33Z"/>
    <path class="cls-12" d="M42.28,155.29c0-.8-.02-1.46-.06-2.1h1.23l.06,1.25h.05c.43-.74,1.15-1.42,2.43-1.42,1.06,0,1.86.64,2.19,1.55h.03c.24-.43.54-.77.86-1.01.46-.35.98-.54,1.71-.54,1.02,0,2.54.67,2.54,3.36v4.56h-1.38v-4.39c0-1.49-.54-2.38-1.68-2.38-.8,0-1.42.59-1.67,1.28-.06.19-.11.45-.11.7v4.79h-1.38v-4.64c0-1.23-.54-2.13-1.62-2.13-.88,0-1.52.7-1.74,1.41-.08.21-.11.45-.11.69v4.67h-1.38v-5.65Z"/>
    <path class="cls-12" d="M56.36,157.32c.03,1.9,1.25,2.69,2.66,2.69,1.01,0,1.62-.18,2.15-.4l.24,1.01c-.5.22-1.34.48-2.58.48-2.39,0-3.81-1.57-3.81-3.91s1.38-4.18,3.63-4.18c2.53,0,3.2,2.22,3.2,3.65,0,.29-.03.51-.05.66h-5.44ZM60.49,156.31c.02-.9-.37-2.29-1.95-2.29-1.42,0-2.05,1.31-2.16,2.29h4.11Z"/>
    <path class="cls-12" d="M66.89,155.29c0-.8-.02-1.46-.06-2.1h1.23l.06,1.25h.05c.43-.74,1.15-1.42,2.43-1.42,1.06,0,1.86.64,2.19,1.55h.03c.24-.43.54-.77.86-1.01.46-.35.98-.54,1.71-.54,1.02,0,2.54.67,2.54,3.36v4.56h-1.38v-4.39c0-1.49-.54-2.38-1.68-2.38-.8,0-1.42.59-1.67,1.28-.06.19-.11.45-.11.7v4.79h-1.38v-4.64c0-1.23-.54-2.13-1.62-2.13-.88,0-1.52.7-1.74,1.41-.08.21-.11.45-.11.69v4.67h-1.38v-5.65Z"/>
    <path class="cls-12" d="M84.46,160.94l-.11-.98h-.05c-.43.61-1.26,1.15-2.37,1.15-1.57,0-2.37-1.1-2.37-2.22,0-1.87,1.67-2.9,4.66-2.88v-.16c0-.64-.18-1.79-1.76-1.79-.72,0-1.47.22-2.02.58l-.32-.93c.64-.42,1.57-.69,2.54-.69,2.37,0,2.95,1.62,2.95,3.17v2.9c0,.67.03,1.33.13,1.86h-1.28ZM84.25,156.98c-1.54-.03-3.28.24-3.28,1.74,0,.91.61,1.34,1.33,1.34,1.01,0,1.65-.64,1.87-1.3.05-.14.08-.3.08-.45v-1.34Z"/>
    <path class="cls-12" d="M89.21,156.74h.03c.19-.27.46-.61.69-.88l2.27-2.67h1.7l-2.99,3.19,3.41,4.56h-1.71l-2.67-3.71-.72.8v2.91h-1.39v-11.36h1.39v7.17Z"/>
    <path class="cls-12" d="M96.04,157.32c.03,1.9,1.25,2.69,2.66,2.69,1.01,0,1.62-.18,2.15-.4l.24,1.01c-.5.22-1.34.48-2.58.48-2.39,0-3.81-1.57-3.81-3.91s1.38-4.18,3.63-4.18c2.53,0,3.2,2.22,3.2,3.65,0,.29-.03.51-.05.66h-5.44ZM100.17,156.31c.02-.9-.37-2.29-1.95-2.29-1.42,0-2.05,1.31-2.16,2.29h4.11Z"/>
    <path class="cls-12" d="M110.86,160.94l-.11-.98h-.05c-.43.61-1.26,1.15-2.37,1.15-1.57,0-2.37-1.1-2.37-2.22,0-1.87,1.67-2.9,4.66-2.88v-.16c0-.64-.18-1.79-1.76-1.79-.72,0-1.47.22-2.02.58l-.32-.93c.64-.42,1.57-.69,2.54-.69,2.37,0,2.95,1.62,2.95,3.17v2.9c0,.67.03,1.33.13,1.86h-1.28ZM110.65,156.98c-1.54-.03-3.28.24-3.28,1.74,0,.91.61,1.34,1.33,1.34,1.01,0,1.65-.64,1.87-1.3.05-.14.08-.3.08-.45v-1.34Z"/>
    <path class="cls-12" d="M124.25,149.57v9.36c0,.69.02,1.47.06,2h-1.26l-.06-1.34h-.03c-.43.86-1.38,1.52-2.64,1.52-1.87,0-3.31-1.58-3.31-3.94-.02-2.58,1.58-4.16,3.47-4.16,1.18,0,1.98.56,2.34,1.18h.03v-4.63h1.41ZM122.85,156.34c0-.18-.02-.42-.06-.59-.21-.9-.98-1.63-2.03-1.63-1.46,0-2.32,1.28-2.32,2.99,0,1.57.77,2.87,2.29,2.87.94,0,1.81-.62,2.06-1.68.05-.19.06-.38.06-.61v-1.34Z"/>
    <path class="cls-12" d="M128.09,151.01c.02.48-.34.86-.9.86-.5,0-.85-.38-.85-.86s.37-.88.88-.88.86.38.86.88ZM126.52,160.94v-7.75h1.41v7.75h-1.41Z"/>
    <path class="cls-12" d="M130.01,159.5c.42.27,1.15.56,1.86.56,1.02,0,1.5-.51,1.5-1.15s-.4-1.04-1.44-1.42c-1.39-.5-2.05-1.26-2.05-2.19,0-1.25,1.01-2.27,2.67-2.27.78,0,1.47.22,1.9.48l-.35,1.02c-.3-.19-.86-.45-1.58-.45-.83,0-1.3.48-1.3,1.06,0,.64.46.93,1.47,1.31,1.34.51,2.03,1.18,2.03,2.34,0,1.36-1.06,2.32-2.9,2.32-.85,0-1.63-.21-2.18-.53l.35-1.07Z"/>
    <path class="cls-12" d="M136.48,149.57h1.41v4.83h.03c.22-.4.58-.75,1.01-.99.42-.24.91-.4,1.44-.4,1.04,0,2.71.64,2.71,3.31v4.61h-1.41v-4.45c0-1.25-.46-2.3-1.79-2.3-.91,0-1.63.64-1.89,1.41-.08.19-.1.4-.1.67v4.67h-1.41v-11.36Z"/>
    <path class="cls-12" d="M144.97,160.1c0-.59.4-1.01.96-1.01s.94.42.94,1.01-.37,1.01-.96,1.01c-.56,0-.94-.43-.94-1.01Z"/>
  </g>
  <rect class="cls-3" x="14.28" y="100.09" width="120" height="18" rx="6.51" ry="6.51"/>
  <rect class="cls-1" x="2.78" width="334" height="165"/>
  <g class="cls-10">
    <path class="cls-12" d="M126.52,118.59H21.34c-3.94,0-7.14-3.19-7.14-7.14v-4.73c0-3.94,3.19-7.14,7.14-7.14h105.18c3.94,0,7.13,3.19,7.13,7.14v4.73c0,3.94-3.19,7.14-7.13,7.14"/>
    <rect class="cls-1" x="14.21" y="99.59" width="119.45" height="19"/>
    <rect class="cls-1" x="14.21" y="99.59" width="119.45" height="19"/>
  </g>
  <path d="M127.76,49.59c4.97,0,9.01,4.04,9.01,9.01v77.97c0,4.97-4.04,9.01-9.01,9.01H20.79c-4.97,0-9.01-4.04-9.01-9.01V58.6c0-4.97,4.04-9.01,9.01-9.01h106.97ZM127.76,48.59H20.79c-5.53,0-10.01,4.48-10.01,10.01v77.97c0,5.53,4.48,10.01,10.01,10.01h106.97c5.53,0,10.01-4.48,10.01-10.01V58.6c0-5.53-4.48-10.01-10.01-10.01"/>
  <g class="cls-10">
    <path class="cls-7" d="M126.52,141.59H21.34c-3.94,0-7.14-3.19-7.14-7.14v-4.73c0-3.94,3.19-7.14,7.14-7.14h105.18c3.94,0,7.13,3.19,7.13,7.14v4.73c0,3.94-3.19,7.14-7.13,7.14"/>
    <rect class="cls-1" x="14.21" y="122.59" width="119.45" height="19"/>
    <rect class="cls-1" x="14.21" y="122.59" width="119.45" height="19"/>
  </g>
  <g class="cls-10">
    <path class="cls-9" d="M126.52,95.59H21.34c-3.94,0-7.14-3.19-7.14-7.14v-4.73c0-3.94,3.19-7.14,7.14-7.14h105.18c3.94,0,7.13,3.19,7.13,7.14v4.73c0,3.94-3.19,7.14-7.13,7.14"/>
    <rect class="cls-1" x="14.21" y="76.59" width="119.45" height="19"/>
    <rect class="cls-1" x="14.21" y="76.59" width="119.45" height="19"/>
  </g>
  <g class="cls-10">
    <path class="cls-11" d="M126.52,72.59H21.34c-3.94,0-7.14-3.19-7.14-7.14v-4.73c0-3.94,3.19-7.14,7.14-7.14h105.18c3.94,0,7.13,3.19,7.13,7.14v4.73c0,3.94-3.19,7.14-7.13,7.14"/>
    <rect class="cls-1" x="14.21" y="53.59" width="119.45" height="19"/>
    <rect class="cls-1" x="14.21" y="53.59" width="119.45" height="19"/>
  </g>
  <rect class="cls-1" x="2.78" width="334" height="165"/>
  <g class="cls-10">
    <path class="cls-12" d="M317.86,119.02h-147.1c-3.94,0-7.14-3.19-7.14-7.14v-4.73c0-3.94,3.2-7.14,7.14-7.14h147.1c3.94,0,7.14,3.19,7.14,7.14v4.73c0,3.94-3.2,7.14-7.14,7.14"/>
    <rect class="cls-1" x="163.62" y="100.02" width="161.37" height="19"/>
    <rect class="cls-1" x="163.62" y="100.02" width="161.37" height="19"/>
  </g>
  <path d="M320.55,50.02c4.97,0,9.01,4.04,9.01,9.01v77.97c0,4.97-4.04,9.01-9.01,9.01h-151.54c-4.97,0-9.01-4.04-9.01-9.01V59.03c0-4.97,4.04-9.01,9.01-9.01h151.54ZM320.55,49.02h-151.54c-5.53,0-10.01,4.48-10.01,10.01v77.97c0,5.53,4.48,10.01,10.01,10.01h151.54c5.53,0,10.01-4.48,10.01-10.01V59.03c0-5.53-4.48-10.01-10.01-10.01"/>
  <g class="cls-10">
    <path class="cls-7" d="M317.86,142.02h-147.1c-3.94,0-7.14-3.19-7.14-7.14v-4.73c0-3.94,3.2-7.14,7.14-7.14h147.1c3.94,0,7.14,3.19,7.14,7.14v4.73c0,3.94-3.2,7.14-7.14,7.14"/>
    <rect class="cls-1" x="163.62" y="123.02" width="161.37" height="19"/>
    <rect class="cls-1" x="163.62" y="123.02" width="161.37" height="19"/>
  </g>
  <g class="cls-10">
    <path class="cls-9" d="M317.86,96.02h-147.1c-3.94,0-7.14-3.19-7.14-7.14v-4.73c0-3.94,3.2-7.14,7.14-7.14h147.1c3.94,0,7.14,3.19,7.14,7.14v4.73c0,3.94-3.2,7.14-7.14,7.14"/>
    <rect class="cls-1" x="163.62" y="77.02" width="161.37" height="19"/>
    <rect class="cls-1" x="163.62" y="77.02" width="161.37" height="19"/>
  </g>
  <g class="cls-10">
    <path class="cls-11" d="M317.86,73.02h-147.1c-3.94,0-7.14-3.19-7.14-7.14v-4.73c0-3.94,3.2-7.14,7.14-7.14h147.1c3.94,0,7.14,3.19,7.14,7.14v4.73c0,3.94-3.2,7.14-7.14,7.14"/>
    <rect class="cls-1" x="163.62" y="54.02" width="161.37" height="19"/>
    <rect class="cls-1" x="163.62" y="54.02" width="161.37" height="19"/>
  </g>
  <g>
    <path class="cls-12" d="M167.76,157.88l-.03-.42c-.1-.86.19-1.81.99-2.77.72-.85,1.12-1.47,1.12-2.19,0-.82-.51-1.36-1.52-1.38-.58,0-1.22.19-1.62.5l-.38-1.01c.53-.38,1.44-.64,2.29-.64,1.84,0,2.67,1.14,2.67,2.35,0,1.09-.61,1.87-1.38,2.79-.7.83-.96,1.54-.91,2.35l.02.42h-1.25ZM167.41,160.12c0-.59.4-1.01.96-1.01s.94.42.94,1.01c0,.56-.37.99-.96.99-.56,0-.94-.43-.94-.99Z"/>
    <path class="cls-12" d="M177.64,157.88l-.03-.42c-.1-.86.19-1.81.99-2.77.72-.85,1.12-1.47,1.12-2.19,0-.82-.51-1.36-1.52-1.38-.58,0-1.22.19-1.62.5l-.38-1.01c.53-.38,1.44-.64,2.29-.64,1.84,0,2.67,1.14,2.67,2.35,0,1.09-.61,1.87-1.38,2.79-.7.83-.96,1.54-.91,2.35l.02.42h-1.25ZM177.29,160.12c0-.59.4-1.01.96-1.01s.94.42.94,1.01c0,.56-.37.99-.96.99-.56,0-.95-.43-.95-.99Z"/>
  </g>
  <path class="cls-6" d="M191.18,161.17l-2.78-10.79h1.5l1.3,5.46c.33,1.34.62,2.69.81,3.73h.03c.18-1.07.52-2.35.89-3.75l1.46-5.44h1.48l1.33,5.47c.31,1.28.6,2.56.76,3.7h.03c.23-1.18.54-2.39.88-3.73l1.45-5.44h1.45l-3.11,10.79h-1.48l-1.38-5.62c-.34-1.38-.57-2.43-.72-3.52h-.03c-.2,1.07-.44,2.13-.85,3.52l-1.56,5.62h-1.48Z"/>
  <path class="cls-6" d="M203.02,149.81h1.43v4.83h.03c.23-.4.59-.75,1.02-.99.42-.24.93-.4,1.46-.4,1.06,0,2.75.64,2.75,3.31v4.61h-1.43v-4.45c0-1.25-.47-2.3-1.82-2.3-.93,0-1.66.64-1.92,1.41-.08.19-.1.4-.1.67v4.67h-1.43v-11.36Z"/>
  <path class="cls-6" d="M216.41,161.17l-.11-.98h-.05c-.44.61-1.29,1.15-2.41,1.15-1.59,0-2.41-1.1-2.41-2.22,0-1.87,1.69-2.9,4.73-2.88v-.16c0-.64-.18-1.79-1.79-1.79-.73,0-1.5.22-2.05.58l-.33-.93c.65-.42,1.59-.69,2.59-.69,2.41,0,2.99,1.62,2.99,3.17v2.9c0,.67.03,1.33.13,1.86h-1.3ZM216.2,157.22c-1.56-.03-3.33.24-3.33,1.74,0,.91.62,1.34,1.35,1.34,1.03,0,1.68-.64,1.9-1.3.05-.14.08-.3.08-.45v-1.34Z"/>
  <g>
    <path class="cls-6" d="M221.57,151.2v2.22h2.05v1.07h-2.05v4.18c0,.96.28,1.5,1.07,1.5.37,0,.65-.05.83-.1l.07,1.06c-.28.11-.72.19-1.27.19-.67,0-1.2-.21-1.55-.59-.41-.42-.55-1.1-.55-2.02v-4.23h-1.22v-1.07h1.22v-1.86l1.4-.37Z"/>
    <path class="cls-6" d="M230.27,151.25c.02.48-.34.86-.91.86-.5,0-.86-.38-.86-.86s.37-.88.89-.88.88.38.88.88ZM228.68,161.17v-7.75h1.43v7.75h-1.43Z"/>
    <path class="cls-6" d="M232.29,159.73c.42.27,1.17.56,1.89.56,1.04,0,1.53-.51,1.53-1.15s-.41-1.04-1.46-1.42c-1.42-.5-2.08-1.26-2.08-2.19,0-1.25,1.02-2.27,2.72-2.27.8,0,1.5.22,1.94.48l-.36,1.02c-.31-.19-.88-.45-1.61-.45-.85,0-1.32.48-1.32,1.06,0,.64.47.93,1.5,1.31,1.37.51,2.07,1.18,2.07,2.34,0,1.36-1.07,2.32-2.94,2.32-.86,0-1.66-.21-2.21-.53l.36-1.07Z"/>
    <path class="cls-6" d="M244.1,151.2v2.22h2.05v1.07h-2.05v4.18c0,.96.28,1.5,1.07,1.5.37,0,.65-.05.83-.1l.07,1.06c-.28.11-.72.19-1.27.19-.67,0-1.2-.21-1.55-.59-.41-.42-.55-1.1-.55-2.02v-4.23h-1.22v-1.07h1.22v-1.86l1.4-.37Z"/>
    <path class="cls-6" d="M247.76,149.81h1.43v4.83h.03c.23-.4.59-.75,1.02-.99.42-.24.93-.4,1.46-.4,1.06,0,2.75.64,2.75,3.31v4.61h-1.43v-4.45c0-1.25-.47-2.3-1.82-2.3-.93,0-1.66.64-1.92,1.41-.08.19-.1.4-.1.67v4.67h-1.43v-11.36Z"/>
    <path class="cls-6" d="M257.59,157.56c.03,1.9,1.27,2.69,2.7,2.69,1.02,0,1.64-.18,2.18-.4l.24,1.01c-.5.22-1.37.48-2.62.48-2.42,0-3.87-1.57-3.87-3.91s1.4-4.18,3.69-4.18c2.57,0,3.25,2.22,3.25,3.65,0,.29-.03.51-.05.66h-5.53ZM261.78,156.55c.02-.9-.37-2.29-1.98-2.29-1.45,0-2.08,1.31-2.2,2.29h4.18Z"/>
    <path class="cls-6" d="M268.44,150.38h1.42v9.62h4.68v1.17h-6.1v-10.79Z"/>
    <path class="cls-6" d="M276.12,150.38h1.42v9.62h4.68v1.17h-6.1v-10.79Z"/>
    <path class="cls-6" d="M293.04,156.43c-.08-1.5-.18-3.31-.16-4.66h-.05c-.37,1.26-.83,2.61-1.38,4.1l-1.94,5.23h-1.07l-1.77-5.14c-.52-1.52-.96-2.91-1.27-4.19h-.03c-.03,1.34-.11,3.15-.21,4.77l-.29,4.63h-1.35l.76-10.79h1.81l1.87,5.22c.46,1.33.83,2.51,1.11,3.63h.05c.28-1.09.67-2.27,1.15-3.63l1.95-5.22h1.81l.68,10.79h-1.38l-.28-4.74Z"/>
    <path class="cls-6" d="M298.64,150.21c-.37,1.34-1.07,3.06-1.53,3.79l-.91.11c.36-.94.78-2.61.96-3.76l1.48-.14Z"/>
    <path class="cls-6" d="M300,159.73c.42.27,1.17.56,1.89.56,1.04,0,1.53-.51,1.53-1.15s-.41-1.04-1.46-1.42c-1.42-.5-2.08-1.26-2.08-2.19,0-1.25,1.02-2.27,2.72-2.27.8,0,1.5.22,1.94.48l-.36,1.02c-.31-.19-.88-.45-1.61-.45-.85,0-1.32.48-1.32,1.06,0,.64.47.93,1.5,1.31,1.37.51,2.07,1.18,2.07,2.34,0,1.36-1.07,2.32-2.94,2.32-.86,0-1.66-.21-2.21-.53l.36-1.07Z"/>
    <path class="cls-6" d="M316.87,153.43c-.03.56-.07,1.18-.07,2.13v4.5c0,1.78-.36,2.87-1.12,3.54-.76.7-1.87.93-2.86.93s-1.98-.22-2.62-.64l.36-1.07c.52.32,1.33.61,2.31.61,1.46,0,2.54-.75,2.54-2.71v-.86h-.03c-.44.72-1.29,1.3-2.5,1.3-1.95,0-3.35-1.63-3.35-3.78,0-2.62,1.74-4.11,3.55-4.11,1.37,0,2.11.7,2.46,1.34h.03l.07-1.17h1.25ZM315.39,156.48c0-.24-.02-.45-.08-.64-.26-.82-.96-1.49-2-1.49-1.37,0-2.34,1.14-2.34,2.93,0,1.52.78,2.79,2.33,2.79.88,0,1.68-.54,1.98-1.44.08-.24.11-.51.11-.75v-1.39Z"/>
    <path class="cls-6" d="M326.31,157.24c0,2.87-2.02,4.11-3.92,4.11-2.13,0-3.77-1.54-3.77-3.99,0-2.59,1.72-4.11,3.9-4.11s3.79,1.62,3.79,3.99ZM320.06,157.32c0,1.7.99,2.98,2.39,2.98s2.39-1.26,2.39-3.01c0-1.31-.67-2.98-2.36-2.98s-2.42,1.54-2.42,3.01Z"/>
    <path class="cls-6" d="M332.48,161.17l-.11-.98h-.05c-.44.61-1.29,1.15-2.41,1.15-1.59,0-2.41-1.1-2.41-2.22,0-1.87,1.69-2.9,4.73-2.88v-.16c0-.64-.18-1.79-1.79-1.79-.73,0-1.5.22-2.05.58l-.33-.93c.65-.42,1.59-.69,2.59-.69,2.41,0,2.99,1.62,2.99,3.17v2.9c0,.67.03,1.33.13,1.86h-1.3ZM332.26,157.22c-1.56-.03-3.33.24-3.33,1.74,0,.91.62,1.34,1.35,1.34,1.03,0,1.68-.64,1.9-1.3.05-.14.08-.3.08-.45v-1.34Z"/>
    <path class="cls-6" d="M335.96,149.81h1.43v11.36h-1.43v-11.36Z"/>
    <path class="cls-6" d="M340.9,158.12l-.03-.42c-.1-.86.2-1.81,1.01-2.77.73-.85,1.14-1.47,1.14-2.19,0-.82-.52-1.36-1.55-1.38-.58,0-1.24.19-1.64.5l-.39-1.01c.54-.38,1.46-.64,2.33-.64,1.87,0,2.72,1.14,2.72,2.35,0,1.09-.62,1.87-1.4,2.79-.71.83-.98,1.54-.93,2.35l.02.42h-1.27ZM340.55,160.36c0-.59.41-1.01.98-1.01s.96.42.96,1.01c0,.56-.37.99-.98.99-.57,0-.96-.43-.96-.99Z"/>
  </g>
  <path class="cls-12" d="M185.22,141.59h-16.32c-2.95,0-5.34-2.39-5.34-5.34v-8.33c0-2.95,2.39-5.34,5.34-5.34h16.32c2.95,0,5.34,2.39,5.34,5.34v8.33c0,2.95-2.39,5.34-5.34,5.34"/>
  <path class="cls-2" d="M169.27,123.09h15.46c2.95,0,5.34,2.39,5.34,5.34v7.33c0,2.95-2.39,5.34-5.34,5.34h-15.46c-2.95,0-5.34-2.39-5.34-5.34v-7.33c0-2.95,2.39-5.34,5.34-5.34Z"/>
  <rect class="cls-1" x="1.56" width="346.88" height="165"/>
  <g>
    <path class="cls-6" d="M201.79,33.06c.67-.11,1.55-.21,2.67-.21,1.38,0,2.38.32,3.03.9.59.51.94,1.3.94,2.26s-.29,1.75-.83,2.31c-.74.78-1.94,1.18-3.3,1.18-.42,0-.8-.02-1.12-.1v4.32h-1.39v-10.66ZM203.18,38.26c.3.08.69.11,1.15.11,1.68,0,2.71-.82,2.71-2.3s-1.01-2.11-2.54-2.11c-.61,0-1.07.05-1.31.11v4.19Z"/>
    <path class="cls-6" d="M210.25,38.39c0-.91-.02-1.7-.06-2.42h1.23l.05,1.52h.06c.35-1.04,1.2-1.7,2.14-1.7.16,0,.27.02.4.05v1.33c-.14-.03-.29-.05-.48-.05-.99,0-1.7.75-1.89,1.81-.03.19-.06.42-.06.66v4.13h-1.39v-5.33Z"/>
    <path class="cls-6" d="M222.5,39.79c0,2.87-1.99,4.11-3.86,4.11-2.1,0-3.71-1.54-3.71-3.99,0-2.59,1.7-4.11,3.84-4.11s3.73,1.62,3.73,3.99ZM216.35,39.87c0,1.7.98,2.98,2.35,2.98s2.35-1.26,2.35-3.01c0-1.31-.66-2.98-2.32-2.98s-2.38,1.54-2.38,3.01Z"/>
    <path class="cls-6" d="M224.27,38.07c0-.8-.02-1.46-.06-2.1h1.23l.06,1.25h.05c.43-.74,1.15-1.42,2.43-1.42,1.06,0,1.86.64,2.19,1.55h.03c.24-.43.54-.77.87-1.01.46-.35.98-.54,1.71-.54,1.02,0,2.54.67,2.54,3.36v4.56h-1.38v-4.39c0-1.49-.54-2.38-1.68-2.38-.8,0-1.42.59-1.67,1.28-.06.19-.11.45-.11.7v4.79h-1.38v-4.64c0-1.23-.54-2.13-1.62-2.13-.88,0-1.52.7-1.74,1.41-.08.21-.11.45-.11.69v4.67h-1.38v-5.65Z"/>
    <path class="cls-6" d="M244.62,39.79c0,2.87-1.99,4.11-3.86,4.11-2.1,0-3.71-1.54-3.71-3.99,0-2.59,1.7-4.11,3.84-4.11s3.73,1.62,3.73,3.99ZM238.48,39.87c0,1.7.98,2.98,2.35,2.98s2.35-1.26,2.35-3.01c0-1.31-.66-2.98-2.32-2.98s-2.38,1.54-2.38,3.01Z"/>
    <path class="cls-6" d="M248.09,33.75v2.23h2.02v1.07h-2.02v4.18c0,.96.27,1.5,1.06,1.5.37,0,.64-.05.82-.1l.06,1.06c-.27.11-.7.19-1.25.19-.66,0-1.18-.21-1.52-.59-.4-.42-.54-1.1-.54-2.02v-4.23h-1.2v-1.07h1.2v-1.86l1.38-.37Z"/>
    <path class="cls-6" d="M252.48,40.1c.03,1.9,1.25,2.69,2.66,2.69,1.01,0,1.62-.18,2.15-.4l.24,1.01c-.5.22-1.34.48-2.58.48-2.38,0-3.81-1.57-3.81-3.91s1.38-4.18,3.63-4.18c2.53,0,3.2,2.23,3.2,3.65,0,.29-.03.51-.05.66h-5.44ZM256.61,39.1c.02-.9-.37-2.29-1.95-2.29-1.42,0-2.05,1.31-2.16,2.29h4.11Z"/>
    <path class="cls-6" d="M263.64,35.98l1.52,4.35c.26.7.46,1.34.62,1.98h.05c.18-.64.4-1.28.66-1.98l1.5-4.35h1.47l-3.04,7.75h-1.34l-2.95-7.75h1.5Z"/>
    <path class="cls-6" d="M271.58,40.1c.03,1.9,1.25,2.69,2.66,2.69,1.01,0,1.62-.18,2.15-.4l.24,1.01c-.5.22-1.34.48-2.58.48-2.38,0-3.81-1.57-3.81-3.91s1.38-4.18,3.63-4.18c2.53,0,3.2,2.23,3.2,3.65,0,.29-.03.51-.05.66h-5.44ZM275.71,39.1c.02-.9-.37-2.29-1.95-2.29-1.42,0-2.05,1.31-2.16,2.29h4.11Z"/>
    <path class="cls-6" d="M285.49,35.98c-.03.56-.06,1.18-.06,2.13v4.5c0,1.78-.35,2.87-1.1,3.54-.75.7-1.84.93-2.82.93s-1.95-.22-2.58-.64l.35-1.07c.51.32,1.31.61,2.27.61,1.44,0,2.5-.75,2.5-2.71v-.86h-.03c-.43.72-1.26,1.3-2.46,1.3-1.92,0-3.3-1.63-3.3-3.78,0-2.62,1.71-4.11,3.49-4.11,1.34,0,2.08.7,2.42,1.34h.03l.06-1.17h1.23ZM284.03,39.03c0-.24-.02-.45-.08-.64-.26-.82-.94-1.49-1.97-1.49-1.34,0-2.3,1.14-2.3,2.93,0,1.52.77,2.79,2.29,2.79.87,0,1.65-.54,1.95-1.44.08-.24.11-.51.11-.75v-1.39Z"/>
    <path class="cls-6" d="M292.05,43.72l-.11-.98h-.05c-.43.61-1.26,1.15-2.37,1.15-1.57,0-2.37-1.1-2.37-2.23,0-1.87,1.66-2.9,4.66-2.88v-.16c0-.64-.18-1.79-1.76-1.79-.72,0-1.47.22-2.02.58l-.32-.93c.64-.42,1.57-.69,2.54-.69,2.37,0,2.95,1.62,2.95,3.17v2.9c0,.67.03,1.33.13,1.86h-1.28ZM291.84,39.77c-1.54-.03-3.28.24-3.28,1.74,0,.91.61,1.34,1.33,1.34,1.01,0,1.65-.64,1.87-1.3.05-.14.08-.3.08-.45v-1.34Z"/>
    <path class="cls-6" d="M295.47,38.07c0-.8-.02-1.46-.06-2.1h1.25l.08,1.28h.03c.38-.74,1.28-1.46,2.56-1.46,1.07,0,2.74.64,2.74,3.3v4.63h-1.41v-4.47c0-1.25-.46-2.29-1.79-2.29-.93,0-1.65.66-1.89,1.44-.06.18-.1.42-.1.66v4.66h-1.41v-5.65Z"/>
    <path class="cls-6" d="M305.92,33.8c.02.48-.34.86-.9.86-.5,0-.85-.38-.85-.86s.37-.88.88-.88.86.38.86.88ZM304.35,43.72v-7.75h1.41v7.75h-1.41Z"/>
    <path class="cls-6" d="M307.9,42.28c.42.27,1.15.56,1.86.56,1.02,0,1.5-.51,1.5-1.15,0-.67-.4-1.04-1.44-1.42-1.39-.5-2.05-1.26-2.05-2.19,0-1.25,1.01-2.27,2.67-2.27.78,0,1.47.22,1.9.48l-.35,1.02c-.3-.19-.86-.45-1.58-.45-.83,0-1.3.48-1.3,1.06,0,.64.46.93,1.47,1.31,1.34.51,2.03,1.18,2.03,2.34,0,1.36-1.06,2.32-2.9,2.32-.85,0-1.63-.21-2.18-.53l.35-1.07Z"/>
    <path class="cls-6" d="M314.43,38.07c0-.8-.02-1.46-.06-2.1h1.23l.06,1.25h.05c.43-.74,1.15-1.42,2.43-1.42,1.06,0,1.86.64,2.19,1.55h.03c.24-.43.54-.77.87-1.01.46-.35.98-.54,1.71-.54,1.02,0,2.54.67,2.54,3.36v4.56h-1.38v-4.39c0-1.49-.54-2.38-1.68-2.38-.8,0-1.42.59-1.67,1.28-.06.19-.11.45-.11.7v4.79h-1.38v-4.64c0-1.23-.54-2.13-1.62-2.13-.88,0-1.52.7-1.74,1.41-.08.21-.11.45-.11.69v4.67h-1.38v-5.65Z"/>
    <path class="cls-6" d="M327.44,42.89c0-.59.4-1.01.96-1.01s.94.42.94,1.01-.37,1.01-.96,1.01c-.56,0-.94-.43-.94-1.01Z"/>
  </g>
  <path d="M145.01,22.75c-.96.48-2.88.96-5.34.96-5.7,0-9.99-3.6-9.99-10.23s4.29-10.62,10.56-10.62c2.52,0,4.11.54,4.8.9l-.63,2.13c-.99-.48-2.4-.84-4.08-.84-4.74,0-7.89,3.03-7.89,8.34,0,4.95,2.85,8.13,7.77,8.13,1.59,0,3.21-.33,4.26-.84l.54,2.07Z"/>
  <path d="M161.03,16.03c0,5.37-3.72,7.71-7.23,7.71-3.93,0-6.96-2.88-6.96-7.47,0-4.86,3.18-7.71,7.2-7.71s6.99,3.03,6.99,7.47ZM149.51,16.18c0,3.18,1.83,5.58,4.41,5.58s4.41-2.37,4.41-5.64c0-2.46-1.23-5.58-4.35-5.58s-4.47,2.88-4.47,5.64Z"/>
  <path d="M164.36,12.82c0-1.5-.03-2.73-.12-3.93h2.34l.15,2.4h.06c.72-1.38,2.4-2.73,4.8-2.73,2.01,0,5.13,1.2,5.13,6.18v8.67h-2.64v-8.37c0-2.34-.87-4.29-3.36-4.29-1.74,0-3.09,1.23-3.54,2.7-.12.33-.18.78-.18,1.23v8.73h-2.64v-10.59Z"/>
  <path d="M184.07,4.72v4.17h3.78v2.01h-3.78v7.83c0,1.8.51,2.82,1.98,2.82.69,0,1.2-.09,1.53-.18l.12,1.98c-.51.21-1.32.36-2.34.36-1.23,0-2.22-.39-2.85-1.11-.75-.78-1.02-2.07-1.02-3.78v-7.92h-2.25v-2.01h2.25v-3.48l2.58-.69Z"/>
  <path d="M190.82,13.42c0-1.71-.03-3.18-.12-4.53h2.31l.09,2.85h.12c.66-1.95,2.25-3.18,4.02-3.18.3,0,.51.03.75.09v2.49c-.27-.06-.54-.09-.9-.09-1.86,0-3.18,1.41-3.54,3.39-.06.36-.12.78-.12,1.23v7.74h-2.61v-9.99Z"/>
  <g>
    <path d="M213.5,16.03c0,5.37-3.72,7.71-7.23,7.71-3.93,0-6.96-2.88-6.96-7.47,0-4.86,3.18-7.71,7.2-7.71s6.99,3.03,6.99,7.47ZM201.98,16.18c0,3.18,1.83,5.58,4.41,5.58s4.41-2.37,4.41-5.64c0-2.46-1.23-5.58-4.35-5.58s-4.47,2.88-4.47,5.64Z"/>
    <path d="M216.83,2.11h2.64v21.3h-2.64V2.11Z"/>
  </g>
  <rect class="cls-1" x="8" width="334" height="165"/>
  <g>
    <path d="M24.65,38.98c-.08-1.5-.18-3.31-.16-4.66h-.05c-.37,1.26-.82,2.61-1.36,4.1l-1.9,5.23h-1.06l-1.74-5.14c-.51-1.52-.94-2.91-1.25-4.19h-.03c-.03,1.34-.11,3.15-.21,4.77l-.29,4.63h-1.33l.75-10.79h1.78l1.84,5.22c.45,1.33.82,2.51,1.09,3.63h.05c.27-1.09.66-2.27,1.14-3.63l1.92-5.22h1.78l.67,10.79h-1.36l-.27-4.74Z"/>
    <path d="M34.86,41.61c0,.8.02,1.5.06,2.11h-1.25l-.08-1.26h-.03c-.37.62-1.18,1.44-2.56,1.44-1.22,0-2.67-.67-2.67-3.39v-4.53h1.41v4.29c0,1.47.45,2.47,1.73,2.47.94,0,1.6-.66,1.86-1.28.08-.21.13-.46.13-.72v-4.75h1.41v5.63Z"/>
    <path d="M37,42.28c.42.27,1.15.56,1.86.56,1.02,0,1.5-.51,1.5-1.15,0-.67-.4-1.04-1.44-1.42-1.39-.5-2.05-1.26-2.05-2.19,0-1.25,1.01-2.27,2.67-2.27.78,0,1.47.22,1.9.48l-.35,1.02c-.3-.19-.86-.45-1.58-.45-.83,0-1.3.48-1.3,1.06,0,.64.46.93,1.47,1.31,1.34.51,2.03,1.18,2.03,2.34,0,1.36-1.06,2.32-2.9,2.32-.85,0-1.63-.21-2.18-.53l.35-1.07Z"/>
    <path d="M43.53,32.36h1.41v4.83h.03c.22-.4.58-.75,1.01-.99.42-.24.91-.4,1.44-.4,1.04,0,2.71.64,2.71,3.31v4.61h-1.41v-4.45c0-1.25-.46-2.31-1.79-2.31-.91,0-1.63.64-1.89,1.41-.08.19-.1.4-.1.67v4.67h-1.41v-11.36Z"/>
    <path d="M52.41,38.39c0-.91-.02-1.7-.06-2.42h1.23l.05,1.52h.06c.35-1.04,1.2-1.7,2.14-1.7.16,0,.27.02.4.05v1.33c-.14-.03-.29-.05-.48-.05-.99,0-1.7.75-1.89,1.81-.03.19-.06.42-.06.66v4.13h-1.39v-5.33Z"/>
    <path d="M64.65,39.78c0,2.87-1.98,4.11-3.86,4.11-2.1,0-3.71-1.54-3.71-3.99,0-2.59,1.7-4.11,3.84-4.11s3.73,1.62,3.73,3.99ZM58.51,39.86c0,1.7.98,2.98,2.35,2.98s2.35-1.26,2.35-3.01c0-1.31-.66-2.98-2.32-2.98s-2.39,1.54-2.39,3.01Z"/>
    <path d="M73.44,39.78c0,2.87-1.98,4.11-3.86,4.11-2.1,0-3.71-1.54-3.71-3.99,0-2.59,1.7-4.11,3.84-4.11s3.73,1.62,3.73,3.99ZM67.29,39.86c0,1.7.98,2.98,2.35,2.98s2.35-1.26,2.35-3.01c0-1.31-.66-2.98-2.32-2.98s-2.39,1.54-2.39,3.01Z"/>
    <path d="M75.21,38.07c0-.8-.02-1.46-.06-2.1h1.23l.06,1.25h.05c.43-.74,1.15-1.42,2.43-1.42,1.06,0,1.86.64,2.19,1.55h.03c.24-.43.54-.77.86-1.01.46-.35.98-.54,1.71-.54,1.02,0,2.54.67,2.54,3.36v4.56h-1.38v-4.39c0-1.49-.54-2.38-1.68-2.38-.8,0-1.42.59-1.67,1.28-.06.19-.11.45-.11.7v4.79h-1.38v-4.64c0-1.23-.54-2.13-1.62-2.13-.88,0-1.52.7-1.74,1.41-.08.21-.11.45-.11.69v4.67h-1.38v-5.65Z"/>
    <path d="M91.88,43.72c.03-.53.06-1.31.06-2v-9.36h1.39v4.87h.03c.5-.86,1.39-1.42,2.64-1.42,1.92,0,3.28,1.6,3.27,3.95,0,2.77-1.74,4.15-3.47,4.15-1.12,0-2.02-.43-2.59-1.46h-.05l-.06,1.28h-1.22ZM93.34,40.62c0,.18.03.35.06.51.27.98,1.09,1.65,2.11,1.65,1.47,0,2.35-1.2,2.35-2.98,0-1.55-.8-2.88-2.3-2.88-.96,0-1.86.66-2.15,1.73-.03.16-.08.35-.08.58v1.39Z"/>
    <path d="M107.53,41.61c0,.8.02,1.5.06,2.11h-1.25l-.08-1.26h-.03c-.37.62-1.18,1.44-2.56,1.44-1.22,0-2.67-.67-2.67-3.39v-4.53h1.41v4.29c0,1.47.45,2.47,1.73,2.47.94,0,1.6-.66,1.86-1.28.08-.21.13-.46.13-.72v-4.75h1.41v5.63Z"/>
    <path d="M109.87,38.39c0-.91-.02-1.7-.06-2.42h1.23l.05,1.52h.06c.35-1.04,1.2-1.7,2.14-1.7.16,0,.27.02.4.05v1.33c-.14-.03-.29-.05-.48-.05-.99,0-1.7.75-1.89,1.81-.03.19-.06.42-.06.66v4.13h-1.39v-5.33Z"/>
    <path d="M121.77,35.98c-.03.56-.06,1.18-.06,2.13v4.5c0,1.78-.35,2.87-1.1,3.54-.75.7-1.84.93-2.82.93s-1.95-.22-2.58-.64l.35-1.07c.51.32,1.31.61,2.27.61,1.44,0,2.5-.75,2.5-2.71v-.86h-.03c-.43.72-1.26,1.3-2.46,1.3-1.92,0-3.3-1.63-3.3-3.78,0-2.62,1.71-4.11,3.49-4.11,1.34,0,2.08.7,2.42,1.34h.03l.06-1.17h1.23ZM120.32,39.03c0-.24-.02-.45-.08-.64-.26-.82-.94-1.49-1.97-1.49-1.34,0-2.31,1.14-2.31,2.93,0,1.52.77,2.79,2.29,2.79.86,0,1.65-.54,1.95-1.44.08-.24.11-.51.11-.75v-1.39Z"/>
    <path d="M124.83,40.1c.03,1.9,1.25,2.69,2.66,2.69,1.01,0,1.62-.18,2.15-.4l.24,1.01c-.5.22-1.34.48-2.58.48-2.39,0-3.81-1.57-3.81-3.91s1.38-4.18,3.63-4.18c2.53,0,3.2,2.23,3.2,3.65,0,.29-.03.51-.05.66h-5.44ZM128.96,39.1c.02-.9-.37-2.29-1.95-2.29-1.42,0-2.05,1.31-2.16,2.29h4.11Z"/>
    <path d="M132.06,38.39c0-.91-.02-1.7-.06-2.42h1.23l.05,1.52h.06c.35-1.04,1.2-1.7,2.14-1.7.16,0,.27.02.4.05v1.33c-.14-.03-.29-.05-.48-.05-.99,0-1.7.75-1.89,1.81-.03.19-.06.42-.06.66v4.13h-1.39v-5.33Z"/>
    <path d="M136.95,37.26c0-.59.4-1.01.96-1.01s.93.42.94,1.01c0,.56-.37.99-.96.99-.56,0-.94-.43-.94-.99ZM136.95,42.91c0-.59.4-1.01.96-1.01s.93.42.94,1.01c0,.56-.37.99-.96.99-.56,0-.94-.43-.94-.99Z"/>
  </g>
  <path d="M167.53,58.71c.85-.13,1.86-.22,2.96-.22,2,0,3.43.46,4.37,1.34.96.88,1.52,2.13,1.52,3.87s-.54,3.2-1.55,4.19c-1.01,1.01-2.67,1.55-4.77,1.55-.99,0-1.82-.05-2.53-.13v-10.61ZM168.92,68.25c.35.06.86.08,1.41.08,2.98,0,4.59-1.66,4.59-4.58.02-2.55-1.42-4.16-4.37-4.16-.72,0-1.26.06-1.63.14v8.52Z"/>
  <path d="M178.99,65.74c.03,1.9,1.25,2.69,2.66,2.69,1.01,0,1.62-.18,2.14-.4l.24,1.01c-.5.22-1.34.48-2.58.48-2.38,0-3.81-1.57-3.81-3.91s1.38-4.18,3.63-4.18c2.53,0,3.2,2.23,3.2,3.65,0,.29-.03.51-.05.66h-5.44ZM183.12,64.73c.02-.9-.37-2.29-1.95-2.29-1.42,0-2.05,1.31-2.16,2.29h4.11Z"/>
  <path d="M191.74,69.07c-.37.19-1.18.45-2.22.45-2.34,0-3.86-1.58-3.86-3.95s1.63-4.11,4.16-4.11c.83,0,1.57.21,1.95.4l-.32,1.09c-.34-.19-.86-.37-1.63-.37-1.78,0-2.74,1.31-2.74,2.93,0,1.79,1.15,2.9,2.69,2.9.8,0,1.33-.21,1.73-.38l.24,1.06Z"/>
  <g>
    <path d="M200.3,65.42c0,2.87-1.99,4.11-3.86,4.11-2.1,0-3.71-1.54-3.71-3.99,0-2.59,1.7-4.11,3.84-4.11s3.73,1.62,3.73,3.99ZM194.16,65.5c0,1.7.98,2.98,2.35,2.98s2.35-1.26,2.35-3.01c0-1.31-.66-2.98-2.32-2.98s-2.38,1.54-2.38,3.01Z"/>
    <path d="M208.77,57.99v9.36c0,.69.02,1.47.06,2h-1.26l-.06-1.34h-.03c-.43.86-1.38,1.52-2.64,1.52-1.87,0-3.31-1.58-3.31-3.94-.02-2.58,1.58-4.16,3.47-4.16,1.18,0,1.98.56,2.34,1.18h.03v-4.63h1.41ZM207.36,64.76c0-.18-.02-.42-.06-.59-.21-.9-.98-1.63-2.03-1.63-1.46,0-2.32,1.28-2.32,2.99,0,1.57.77,2.87,2.29,2.87.95,0,1.81-.62,2.07-1.68.05-.19.06-.38.06-.61v-1.34Z"/>
    <path d="M211.88,65.74c.03,1.9,1.25,2.69,2.66,2.69,1.01,0,1.62-.18,2.15-.4l.24,1.01c-.5.22-1.34.48-2.58.48-2.38,0-3.81-1.57-3.81-3.91s1.38-4.18,3.63-4.18c2.53,0,3.2,2.23,3.2,3.65,0,.29-.03.51-.05.66h-5.44ZM216.01,64.73c.02-.9-.37-2.29-1.95-2.29-1.42,0-2.05,1.31-2.16,2.29h4.11Z"/>
    <path d="M219.11,64.02c0-.91-.02-1.7-.06-2.42h1.23l.05,1.52h.06c.35-1.04,1.2-1.7,2.14-1.7.16,0,.27.02.4.05v1.33c-.14-.03-.29-.05-.48-.05-.99,0-1.7.75-1.89,1.81-.03.19-.06.42-.06.66v4.13h-1.39v-5.33Z"/>
  </g>
  <path d="M20.57,59.75h-3.28v-1.18h7.99v1.18h-3.3v9.6h-1.41v-9.6Z"/>
  <path d="M29.71,69.35l-.11-.98h-.05c-.43.61-1.26,1.15-2.37,1.15-1.57,0-2.37-1.1-2.37-2.23,0-1.87,1.67-2.9,4.66-2.88v-.16c0-.64-.18-1.79-1.76-1.79-.72,0-1.47.22-2.02.58l-.32-.93c.64-.42,1.57-.69,2.54-.69,2.37,0,2.95,1.62,2.95,3.17v2.9c0,.67.03,1.33.13,1.86h-1.28ZM29.5,65.4c-1.54-.03-3.28.24-3.28,1.74,0,.91.61,1.34,1.33,1.34,1.01,0,1.65-.64,1.87-1.3.05-.14.08-.3.08-.45v-1.34Z"/>
  <path d="M33.13,64.02c0-.91-.02-1.7-.06-2.42h1.23l.05,1.52h.06c.35-1.04,1.2-1.7,2.14-1.7.16,0,.27.02.4.05v1.33c-.14-.03-.29-.05-.48-.05-.99,0-1.7.75-1.89,1.81-.03.19-.06.42-.06.66v4.13h-1.39v-5.33Z"/>
  <g>
    <path d="M44.91,61.61c-.03.56-.06,1.18-.06,2.13v4.5c0,1.78-.35,2.87-1.1,3.54-.75.7-1.84.93-2.82.93s-1.95-.22-2.58-.64l.35-1.07c.51.32,1.31.61,2.27.61,1.44,0,2.5-.75,2.5-2.71v-.86h-.03c-.43.72-1.26,1.3-2.46,1.3-1.92,0-3.3-1.63-3.3-3.78,0-2.62,1.71-4.11,3.49-4.11,1.34,0,2.08.7,2.42,1.34h.03l.06-1.17h1.23ZM43.45,64.66c0-.24-.02-.45-.08-.64-.26-.82-.94-1.49-1.97-1.49-1.34,0-2.31,1.14-2.31,2.93,0,1.52.77,2.79,2.29,2.79.86,0,1.65-.54,1.95-1.44.08-.24.11-.51.11-.75v-1.39Z"/>
    <path d="M47.96,65.74c.03,1.9,1.25,2.69,2.66,2.69,1.01,0,1.62-.18,2.15-.4l.24,1.01c-.5.22-1.34.48-2.58.48-2.39,0-3.81-1.57-3.81-3.91s1.38-4.18,3.63-4.18c2.53,0,3.2,2.23,3.2,3.65,0,.29-.03.51-.05.66h-5.44ZM52.09,64.73c.02-.9-.37-2.29-1.95-2.29-1.42,0-2.05,1.31-2.16,2.29h4.11Z"/>
    <path d="M56.89,59.38v2.23h2.02v1.07h-2.02v4.18c0,.96.27,1.5,1.06,1.5.37,0,.64-.05.82-.1l.06,1.06c-.27.11-.7.19-1.25.19-.66,0-1.18-.21-1.52-.59-.4-.42-.54-1.1-.54-2.02v-4.23h-1.2v-1.07h1.2v-1.86l1.38-.37Z"/>
    <path d="M63.93,58.57h1.39v9.62h4.61v1.17h-6v-10.79Z"/>
    <path d="M71.48,58.57h1.39v9.62h4.61v1.17h-6v-10.79Z"/>
    <path d="M88.13,64.62c-.08-1.5-.18-3.31-.16-4.66h-.05c-.37,1.26-.82,2.61-1.36,4.1l-1.9,5.23h-1.06l-1.74-5.14c-.51-1.52-.94-2.91-1.25-4.19h-.03c-.03,1.34-.11,3.15-.21,4.77l-.29,4.63h-1.33l.75-10.79h1.78l1.84,5.22c.45,1.33.82,2.51,1.09,3.63h.05c.27-1.09.66-2.27,1.14-3.63l1.92-5.22h1.78l.67,10.79h-1.36l-.27-4.74Z"/>
  </g>
  <rect class="cls-1" x="1.56" width="346.88" height="165"/>
  <g>
    <path class="cls-5" d="M310.93,51.93c-.88,15.08-5.21,26.1-9.18,33.46-17.03,31.56-56.32,49.26-101.52,48.73"/>
    <polygon class="cls-8" points="203.12 130.42 201.47 134.09 202.97 137.83 194.27 133.95 203.12 130.42"/>
  </g>
  <g>
    <path d="M227.83,128.97c-.44.24-1.3.66-2.38.83-1.21.19-2.25.04-3.15-.58-.79-.55-1.39-1.55-1.59-2.8-.37-2.38.99-4.39,3.67-4.82.92-.15,1.68-.06,2.05.05l-.11.88c-.46-.12-1.02-.19-1.82-.06-1.94.31-3.02,1.72-2.7,3.73.32,2.03,1.74,3.03,3.6,2.73.68-.11,1.12-.28,1.34-.43l-.38-2.38-1.62.26-.13-.83,2.63-.42.61,3.84Z"/>
    <path d="M228.81,125.05c-.14-.67-.27-1.24-.41-1.77l.9-.18.26,1.11h.05c.1-.83.63-1.44,1.32-1.58.12-.02.2-.03.3-.03l.2.98c-.11,0-.22,0-.36.04-.73.15-1.13.81-1.12,1.61,0,.15.02.32.05.49l.62,3.03-1.02.21-.8-3.91Z"/>
    <path d="M236.69,127.38l-.25-.69h-.04c-.21.53-.72,1.07-1.52,1.27-1.14.28-1.92-.39-2.12-1.2-.33-1.36.7-2.41,2.88-2.92l-.03-.12c-.11-.47-.45-1.28-1.6-1-.53.13-1.03.42-1.37.78l-.4-.62c.39-.42,1.02-.78,1.73-.95,1.72-.42,2.43.66,2.71,1.79l.51,2.11c.12.49.26.96.42,1.33l-.93.23ZM235.84,124.53c-1.12.25-2.35.75-2.08,1.85.16.66.68.87,1.21.74.73-.18,1.09-.76,1.13-1.28,0-.11,0-.24-.02-.34l-.24-.98Z"/>
    <path d="M241.81,117.08l2,6.73c.15.49.33,1.05.47,1.42l-.91.27-.33-.95h-.02c-.13.72-.67,1.39-1.57,1.66-1.35.4-2.72-.43-3.22-2.12-.56-1.85.25-3.33,1.61-3.73.85-.25,1.55-.02,1.93.35h.02s-.99-3.33-.99-3.33l1.01-.3ZM242.25,122.25c-.04-.12-.1-.29-.17-.41-.34-.6-1.05-.97-1.81-.74-1.05.31-1.39,1.41-1.03,2.64.33,1.13,1.16,1.89,2.26,1.57.68-.2,1.17-.83,1.12-1.65,0-.15-.04-.29-.08-.45l-.29-.97Z"/>
    <path d="M244.8,117.19c.13.34-.03.69-.43.83-.35.12-.69-.07-.81-.41-.12-.35.05-.71.41-.84.38-.13.71.06.83.42ZM246.09,124.61l-1.88-5.5,1-.34,1.88,5.5-1,.34Z"/>
    <path d="M248.52,120.89c.54,1.32,1.6,1.55,2.58,1.17.71-.27,1.08-.56,1.39-.86l.44.64c-.29.29-.81.7-1.67,1.03-1.67.64-3.09-.07-3.72-1.71-.63-1.64-.16-3.29,1.42-3.9,1.77-.68,2.84.7,3.22,1.69.08.2.12.37.14.47l-3.81,1.46ZM251.14,119.07c-.23-.63-.87-1.5-1.98-1.08-1,.38-1.08,1.47-.9,2.18l2.88-1.11Z"/>
    <path d="M253.06,117.47c-.25-.55-.46-.99-.69-1.41l.85-.39.45.85h.02c.03-.63.42-1.4,1.3-1.8.73-.33,2.07-.41,2.89,1.4l1.43,3.16-.96.44-1.38-3.05c-.39-.85-1.03-1.42-1.93-1.01-.63.29-.92.96-.84,1.57.01.14.06.31.14.48l1.44,3.18-.96.44-1.75-3.85Z"/>
    <path d="M258.73,111.18l.77,1.48,1.34-.7.37.71-1.34.7,1.44,2.78c.33.64.7.91,1.22.64.25-.13.41-.25.51-.35l.41.68c-.14.17-.4.37-.76.56-.44.23-.86.27-1.22.13-.41-.14-.74-.55-1.06-1.16l-1.46-2.81-.8.41-.37-.71.8-.41-.64-1.24.79-.72Z"/>
    <path d="M267.13,115.07l-2.59-4.29-.7.42-.42-.69.7-.42-.14-.24c-.42-.7-.65-1.43-.47-2.08.14-.53.51-.94.93-1.19.32-.19.64-.29.86-.32l.3.77c-.17.02-.39.08-.64.23-.77.46-.56,1.26-.1,2.02l.16.27,1.2-.72.42.69-1.2.73,2.59,4.29-.89.54Z"/>
    <path d="M268,109.84c-.38-.57-.71-1.06-1.04-1.49l.77-.51.66.93.04-.03c-.21-.8.05-1.56.64-1.95.1-.07.18-.1.27-.14l.55.83c-.1.04-.2.09-.32.17-.62.41-.75,1.17-.44,1.91.06.13.13.29.23.44l1.7,2.59-.87.57-2.2-3.34Z"/>
    <path d="M276.05,105.4c1.28,1.72.65,3.36-.47,4.2-1.26.94-2.92.74-4.02-.73-1.16-1.56-.83-3.23.46-4.19,1.34-1,2.96-.7,4.03.72ZM272.39,108.21c.76,1.02,1.92,1.35,2.75.73.81-.6.85-1.81.06-2.86-.59-.79-1.73-1.49-2.73-.75-1,.75-.74,1.99-.08,2.88Z"/>
    <path d="M276.42,103.52c-.41-.44-.75-.8-1.1-1.12l.68-.63.67.66.03-.02c-.13-.62-.09-1.37.62-2.02.58-.54,1.35-.59,2-.26l.02-.02c-.09-.36-.09-.7-.04-1,.08-.43.26-.8.67-1.17.57-.52,1.75-.92,3.11.56l2.32,2.52-.76.7-2.23-2.42c-.76-.82-1.51-1.04-2.14-.46-.44.41-.49,1.05-.27,1.55.06.14.17.3.3.45l2.43,2.64-.76.7-2.36-2.56c-.62-.68-1.38-.9-1.97-.35-.49.45-.48,1.16-.25,1.66.06.16.17.3.29.44l2.37,2.58-.76.7-2.87-3.12Z"/>
    <path class="cls-6" d="M291.18,94c-.07.3-.31.9-.8,1.5-1.12,1.35-2.76,1.47-4.13.34-1.38-1.14-1.59-2.91-.39-4.37.4-.48.87-.81,1.16-.94l.48.7c-.27.1-.63.32-.99.77-.85,1.03-.55,2.21.38,2.98,1.04.86,2.22.72,2.96-.17.38-.46.52-.87.61-1.18l.72.37Z"/>
    <path class="cls-6" d="M292.89,86.89c1.76,1.23,1.68,2.99.87,4.14-.9,1.29-2.54,1.62-4.04.57-1.59-1.11-1.8-2.81-.88-4.13.96-1.37,2.59-1.6,4.05-.58ZM290.3,90.7c1.04.73,2.25.68,2.84-.17.58-.83.23-1.99-.84-2.74-.81-.56-2.11-.88-2.83.15-.71,1.02-.08,2.13.83,2.76Z"/>
    <path class="cls-6" d="M292.56,85.01c-.52-.29-.96-.52-1.39-.73l.46-.81.87.42v-.02c-.33-.52-.47-1.37,0-2.21.39-.7,1.42-1.55,3.16-.58l3.02,1.7-.52.92-2.92-1.64c-.81-.46-1.67-.54-2.15.33-.34.61-.18,1.32.25,1.76.09.11.24.22.39.3l3.04,1.71-.52.92-3.69-2.07Z"/>
    <path class="cls-6" d="M293.36,76.55l1.51.7.64-1.37.73.34-.64,1.37,2.84,1.33c.65.3,1.11.29,1.36-.24.12-.25.17-.45.19-.58l.74.29c0,.22-.09.54-.27.91-.21.45-.52.74-.88.84-.41.14-.92.02-1.54-.27l-2.87-1.34-.38.82-.73-.34.38-.82-1.26-.59.19-1.05Z"/>
    <path class="cls-6" d="M297.64,75.49c-.63-.25-1.19-.46-1.7-.63l.34-.86,1.07.39.02-.04c-.63-.54-.85-1.31-.58-1.97.04-.11.09-.18.14-.27l.93.37c-.06.09-.11.19-.17.32-.28.69.05,1.39.73,1.82.12.08.27.16.44.23l2.87,1.15-.39.97-3.71-1.48Z"/>
    <path class="cls-6" d="M301.65,67.21c2.05.65,2.49,2.36,2.06,3.69-.48,1.5-1.94,2.3-3.69,1.74-1.85-.59-2.55-2.15-2.06-3.68.51-1.59,2.01-2.29,3.7-1.75ZM300.31,71.62c1.21.39,2.35-.02,2.66-1,.31-.96-.37-1.97-1.61-2.37-.94-.3-2.28-.21-2.66.98-.38,1.19.55,2.05,1.61,2.39Z"/>
    <path class="cls-6" d="M296.59,64.41l.25-1.02,8.27,2.06-.26,1.03-8.27-2.07Z"/>
  </g>
  <g>
    <line class="cls-5" x1="164.04" y1="135.75" x2="140.12" y2="126.32"/>
    <polygon class="cls-8" points="144.09 123.91 141.27 126.78 141.38 130.8 134.57 124.13 144.09 123.91"/>
  </g>
  <g>
    <path class="cls-4" d="M132.56,107.37c3.45.5,8.27,1.34,13.63,2.82,6.78,1.87,10.6,2.96,10.83,4.99.32,2.86-6.88,4.44-6.59,6.86.27,2.28,6.9,3.47,13.7,4.16"/>
    <polygon points="161.01 129.61 162.9 126.06 161.66 122.24 170.08 126.69 161.01 129.61"/>
  </g>
</svg>