<?xml version="1.0" encoding="UTF-8"?>
<svg id="Layer_1" xmlns="http://www.w3.org/2000/svg" viewBox="0 0 350 165">
  <defs>
    <style>
      .cls-1, .cls-2, .cls-3, .cls-4 {
        fill: none;
      }

      .cls-5 {
        fill: #6800da;
      }

      .cls-2 {
        stroke-dasharray: 4 4;
        stroke-width: .25px;
      }

      .cls-2, .cls-3, .cls-4 {
        stroke: #000;
        stroke-miterlimit: 10;
      }

      .cls-6 {
        fill: #55c667;
      }

      .cls-7 {
        fill: #b8de29;
      }

      .cls-8 {
        fill: #404041;
      }

      .cls-9 {
        fill: #29af7f;
      }

      .cls-10 {
        opacity: .2;
      }

      .cls-11 {
        fill: #fde725;
      }

      .cls-12 {
        fill: #73d055;
      }

      .cls-4 {
        stroke-dasharray: 3.87 3.87;
      }
    </style>
  </defs>
  <g class="cls-10">
    <path class="cls-9" d="M140.08,113.23H39.45c-2.86,0-5.18-2.32-5.18-5.18v-21.63c0-2.86,2.32-5.18,5.18-5.18h100.63c2.86,0,5.18,2.32,5.18,5.18v21.63c0,2.86-2.32,5.18-5.18,5.18"/>
    <rect class="cls-1" x="34.26" y="81.23" width="111" height="32"/>
    <rect class="cls-1" x="34.26" y="81.23" width="111" height="32"/>
  </g>
  <path class="cls-12" d="M188.46,141.23h-22.39c-3.21,0-5.81-2.6-5.81-5.81v-7.39c0-3.21,2.6-5.81,5.81-5.81h22.39c3.21,0,5.81,2.6,5.81,5.81v7.39c0,3.21-2.6,5.81-5.81,5.81"/>
  <path d="M138.25,48.63c5.25,0,9.51,4.17,9.51,9.29v78.05c0,5.12-4.27,9.29-9.51,9.29H28.28c-5.25,0-9.51-4.17-9.51-9.29V57.92c0-5.12,4.27-9.29,9.51-9.29h109.97ZM138.25,48.14H28.28c-5.53,0-10.01,4.38-10.01,9.77v78.05c0,5.4,4.48,9.77,10.01,9.77h109.97c5.53,0,10.01-4.38,10.01-9.77V57.92c0-5.4-4.48-9.77-10.01-9.77"/>
  <path d="M125.62,4.05c1.32-.27,3.21-.42,5.01-.42,2.79,0,4.59.51,5.85,1.65,1.02.9,1.59,2.28,1.59,3.84,0,2.67-1.68,4.44-3.81,5.16v.09c1.56.54,2.49,1.98,2.97,4.08.66,2.82,1.14,4.77,1.56,5.55h-2.7c-.33-.57-.78-2.31-1.35-4.83-.6-2.79-1.68-3.84-4.05-3.93h-2.46v8.76h-2.61V4.05ZM128.23,13.26h2.67c2.79,0,4.56-1.53,4.56-3.84,0-2.61-1.89-3.75-4.65-3.78-1.26,0-2.16.12-2.58.24v7.38Z"/>
  <g>
    <path d="M143.26,17.22c.06,3.57,2.34,5.04,4.98,5.04,1.89,0,3.03-.33,4.02-.75l.45,1.89c-.93.42-2.52.9-4.83.9-4.47,0-7.14-2.94-7.14-7.32s2.58-7.83,6.81-7.83c4.74,0,6,4.17,6,6.84,0,.54-.06.96-.09,1.23h-10.2ZM151,15.33c.03-1.68-.69-4.29-3.66-4.29-2.67,0-3.84,2.46-4.05,4.29h7.71Z"/>
    <path d="M164.86,24l-.21-1.83h-.09c-.81,1.14-2.37,2.16-4.44,2.16-2.94,0-4.44-2.07-4.44-4.17,0-3.51,3.12-5.43,8.73-5.4v-.3c0-1.2-.33-3.36-3.3-3.36-1.35,0-2.76.42-3.78,1.08l-.6-1.74c1.2-.78,2.94-1.29,4.77-1.29,4.44,0,5.52,3.03,5.52,5.94v5.43c0,1.26.06,2.49.24,3.48h-2.4ZM164.47,16.59c-2.88-.06-6.15.45-6.15,3.27,0,1.71,1.14,2.52,2.49,2.52,1.89,0,3.09-1.2,3.51-2.43.09-.27.15-.57.15-.84v-2.52Z"/>
    <path d="M183.82,2.7v17.55c0,1.29.03,2.76.12,3.75h-2.37l-.12-2.52h-.06c-.81,1.62-2.58,2.85-4.95,2.85-3.51,0-6.21-2.97-6.21-7.38-.03-4.83,2.97-7.8,6.51-7.8,2.22,0,3.72,1.05,4.38,2.22h.06V2.7h2.64ZM181.18,15.39c0-.33-.03-.78-.12-1.11-.39-1.68-1.83-3.06-3.81-3.06-2.73,0-4.35,2.4-4.35,5.61,0,2.94,1.44,5.37,4.29,5.37,1.77,0,3.39-1.17,3.87-3.15.09-.36.12-.72.12-1.14v-2.52Z"/>
    <path d="M191.14,5.4c.03.9-.63,1.62-1.68,1.62-.93,0-1.59-.72-1.59-1.62s.69-1.65,1.65-1.65,1.62.72,1.62,1.65ZM188.2,24v-14.52h2.64v14.52h-2.64Z"/>
    <path d="M195.22,13.41c0-1.5-.03-2.73-.12-3.93h2.34l.15,2.4h.06c.72-1.38,2.4-2.73,4.8-2.73,2.01,0,5.13,1.2,5.13,6.18v8.67h-2.64v-8.37c0-2.34-.87-4.29-3.36-4.29-1.74,0-3.09,1.23-3.54,2.7-.12.33-.18.78-.18,1.23v8.73h-2.64v-10.59Z"/>
    <path d="M224.38,9.48c-.06,1.05-.12,2.22-.12,3.99v8.43c0,3.33-.66,5.37-2.07,6.63-1.41,1.32-3.45,1.74-5.28,1.74s-3.66-.42-4.83-1.2l.66-2.01c.96.6,2.46,1.14,4.26,1.14,2.7,0,4.68-1.41,4.68-5.07v-1.62h-.06c-.81,1.35-2.37,2.43-4.62,2.43-3.6,0-6.18-3.06-6.18-7.08,0-4.92,3.21-7.71,6.54-7.71,2.52,0,3.9,1.32,4.53,2.52h.06l.12-2.19h2.31ZM221.65,15.21c0-.45-.03-.84-.15-1.2-.48-1.53-1.77-2.79-3.69-2.79-2.52,0-4.32,2.13-4.32,5.49,0,2.85,1.44,5.22,4.29,5.22,1.62,0,3.09-1.02,3.66-2.7.15-.45.21-.96.21-1.41v-2.61Z"/>
  </g>
  <g>
    <path class="cls-12" d="M162.32,156.76l-.03-.42c-.1-.86.19-1.81.99-2.77.72-.85,1.12-1.47,1.12-2.19,0-.82-.51-1.36-1.52-1.38-.58,0-1.22.19-1.62.5l-.38-1.01c.53-.38,1.44-.64,2.29-.64,1.84,0,2.67,1.14,2.67,2.35,0,1.09-.61,1.87-1.38,2.79-.7.83-.96,1.54-.91,2.35l.02.42h-1.25ZM161.97,159c0-.59.4-1.01.96-1.01s.94.42.94,1.01c0,.56-.37.99-.96.99-.56,0-.94-.43-.94-.99Z"/>
    <path class="cls-12" d="M172.21,156.76l-.03-.42c-.1-.86.19-1.81.99-2.77.72-.85,1.12-1.47,1.12-2.19,0-.82-.51-1.36-1.52-1.38-.58,0-1.22.19-1.62.5l-.38-1.01c.53-.38,1.44-.64,2.29-.64,1.84,0,2.67,1.14,2.67,2.35,0,1.09-.61,1.87-1.38,2.79-.7.83-.96,1.54-.91,2.35l.02.42h-1.25ZM171.85,159c0-.59.4-1.01.96-1.01s.94.42.94,1.01c0,.56-.37.99-.96.99-.56,0-.94-.43-.94-.99Z"/>
    <path class="cls-12" d="M182.09,156.76l-.03-.42c-.1-.86.19-1.81.99-2.77.72-.85,1.12-1.47,1.12-2.19,0-.82-.51-1.36-1.52-1.38-.58,0-1.22.19-1.62.5l-.38-1.01c.53-.38,1.44-.64,2.29-.64,1.84,0,2.67,1.14,2.67,2.35,0,1.09-.61,1.87-1.38,2.79-.7.83-.96,1.54-.91,2.35l.02.42h-1.25ZM181.74,159c0-.59.4-1.01.96-1.01s.94.42.94,1.01c0,.56-.37.99-.96.99-.56,0-.95-.43-.95-.99Z"/>
  </g>
  <path class="cls-5" d="M195.52,159.81l-2.74-10.79h1.47l1.28,5.46c.32,1.34.61,2.69.8,3.73h.03c.18-1.07.51-2.35.88-3.75l1.44-5.44h1.46l1.31,5.47c.3,1.28.59,2.56.75,3.7h.03c.22-1.18.53-2.39.86-3.73l1.42-5.44h1.42l-3.06,10.79h-1.46l-1.36-5.62c-.34-1.38-.56-2.43-.7-3.52h-.03c-.19,1.07-.43,2.13-.83,3.52l-1.54,5.62h-1.46Z"/>
  <path class="cls-5" d="M207.17,148.45h1.41v4.83h.03c.22-.4.58-.75,1.01-.99.42-.24.91-.4,1.44-.4,1.04,0,2.71.64,2.71,3.31v4.61h-1.41v-4.45c0-1.25-.46-2.3-1.79-2.3-.91,0-1.63.64-1.89,1.41-.08.19-.1.4-.1.67v4.67h-1.41v-11.36Z"/>
  <path class="cls-5" d="M220.34,159.81l-.11-.98h-.05c-.43.61-1.26,1.15-2.37,1.15-1.57,0-2.37-1.1-2.37-2.22,0-1.87,1.66-2.9,4.66-2.88v-.16c0-.64-.18-1.79-1.76-1.79-.72,0-1.47.22-2.02.58l-.32-.93c.64-.42,1.57-.69,2.54-.69,2.37,0,2.95,1.62,2.95,3.17v2.9c0,.67.03,1.33.13,1.86h-1.28ZM220.13,155.86c-1.54-.03-3.28.24-3.28,1.74,0,.91.61,1.34,1.33,1.34,1.01,0,1.65-.64,1.87-1.3.05-.14.08-.3.08-.45v-1.34Z"/>
  <g>
    <path class="cls-5" d="M225.41,149.84v2.22h2.02v1.07h-2.02v4.18c0,.96.27,1.5,1.06,1.5.37,0,.64-.05.82-.1l.06,1.06c-.27.11-.7.19-1.25.19-.66,0-1.18-.21-1.52-.59-.4-.42-.54-1.1-.54-2.02v-4.23h-1.2v-1.07h1.2v-1.86l1.38-.37Z"/>
    <path class="cls-5" d="M233.97,149.89c.02.48-.34.86-.9.86-.5,0-.85-.38-.85-.86s.37-.88.88-.88.86.38.86.88ZM232.4,159.81v-7.75h1.41v7.75h-1.41Z"/>
    <path class="cls-5" d="M235.95,158.37c.42.27,1.15.56,1.86.56,1.02,0,1.5-.51,1.5-1.15s-.4-1.04-1.44-1.42c-1.39-.5-2.05-1.26-2.05-2.19,0-1.25,1.01-2.27,2.67-2.27.78,0,1.47.22,1.9.48l-.35,1.02c-.3-.19-.86-.45-1.58-.45-.83,0-1.3.48-1.3,1.06,0,.64.46.93,1.47,1.31,1.34.51,2.03,1.18,2.03,2.34,0,1.36-1.06,2.32-2.9,2.32-.85,0-1.63-.21-2.18-.53l.35-1.07Z"/>
    <path class="cls-5" d="M247.57,149.84v2.22h2.02v1.07h-2.02v4.18c0,.96.27,1.5,1.06,1.5.37,0,.64-.05.82-.1l.06,1.06c-.27.11-.7.19-1.25.19-.66,0-1.18-.21-1.52-.59-.4-.42-.54-1.1-.54-2.02v-4.23h-1.2v-1.07h1.2v-1.86l1.38-.37Z"/>
    <path class="cls-5" d="M251.17,148.45h1.41v4.83h.03c.22-.4.58-.75,1.01-.99.42-.24.91-.4,1.44-.4,1.04,0,2.71.64,2.71,3.31v4.61h-1.41v-4.45c0-1.25-.46-2.3-1.79-2.3-.91,0-1.63.64-1.89,1.41-.08.19-.1.4-.1.67v4.67h-1.41v-11.36Z"/>
    <path class="cls-5" d="M260.83,156.2c.03,1.9,1.25,2.69,2.66,2.69,1.01,0,1.62-.18,2.15-.4l.24,1.01c-.5.22-1.34.48-2.58.48-2.38,0-3.81-1.57-3.81-3.91s1.38-4.18,3.63-4.18c2.53,0,3.2,2.22,3.2,3.65,0,.29-.03.51-.05.66h-5.44ZM264.96,155.19c.02-.9-.37-2.29-1.95-2.29-1.42,0-2.05,1.31-2.16,2.29h4.11Z"/>
    <path class="cls-5" d="M271.45,154.6c0-.99-.03-1.79-.06-2.53h1.26l.06,1.33h.03c.58-.94,1.49-1.5,2.75-1.5,1.87,0,3.28,1.58,3.28,3.94,0,2.79-1.7,4.16-3.52,4.16-1.02,0-1.92-.45-2.38-1.22h-.03v4.21h-1.39v-8.39ZM272.85,156.66c0,.21.03.4.06.58.26.98,1.1,1.65,2.11,1.65,1.49,0,2.35-1.22,2.35-2.99,0-1.55-.82-2.88-2.3-2.88-.96,0-1.86.69-2.13,1.75-.05.18-.1.38-.1.58v1.33Z"/>
    <path class="cls-5" d="M281.34,156.2c.03,1.9,1.25,2.69,2.66,2.69,1.01,0,1.62-.18,2.15-.4l.24,1.01c-.5.22-1.34.48-2.58.48-2.38,0-3.81-1.57-3.81-3.91s1.38-4.18,3.63-4.18c2.53,0,3.2,2.22,3.2,3.65,0,.29-.03.51-.05.66h-5.44ZM285.47,155.19c.02-.9-.37-2.29-1.95-2.29-1.42,0-2.05,1.31-2.16,2.29h4.11Z"/>
    <path class="cls-5" d="M288.57,154.48c0-.91-.02-1.7-.06-2.42h1.23l.05,1.52h.06c.35-1.04,1.2-1.7,2.14-1.7.16,0,.27.02.4.05v1.33c-.14-.03-.29-.05-.48-.05-.99,0-1.7.75-1.89,1.81-.03.19-.06.42-.06.66v4.13h-1.39v-5.33Z"/>
    <path class="cls-5" d="M293.61,158.37c.42.27,1.15.56,1.86.56,1.02,0,1.5-.51,1.5-1.15s-.4-1.04-1.44-1.42c-1.39-.5-2.05-1.26-2.05-2.19,0-1.25,1.01-2.27,2.67-2.27.78,0,1.47.22,1.9.48l-.35,1.02c-.3-.19-.86-.45-1.58-.45-.83,0-1.3.48-1.3,1.06,0,.64.46.93,1.47,1.31,1.34.51,2.03,1.18,2.03,2.34,0,1.36-1.06,2.32-2.9,2.32-.85,0-1.63-.21-2.18-.53l.35-1.07Z"/>
    <path class="cls-5" d="M307.15,155.88c0,2.87-1.99,4.11-3.86,4.11-2.1,0-3.71-1.54-3.71-3.99,0-2.59,1.7-4.11,3.84-4.11s3.73,1.62,3.73,3.99ZM301.01,155.96c0,1.7.98,2.98,2.35,2.98s2.35-1.26,2.35-3.01c0-1.31-.66-2.98-2.32-2.98s-2.38,1.54-2.38,3.01Z"/>
    <path class="cls-5" d="M308.92,154.16c0-.8-.02-1.46-.06-2.1h1.25l.08,1.28h.03c.38-.74,1.28-1.46,2.56-1.46,1.07,0,2.74.64,2.74,3.3v4.63h-1.41v-4.47c0-1.25-.46-2.29-1.79-2.29-.93,0-1.65.66-1.89,1.44-.06.18-.1.42-.1.66v4.66h-1.41v-5.65Z"/>
    <path class="cls-5" d="M322.09,159.81l-.11-.98h-.05c-.43.61-1.26,1.15-2.37,1.15-1.57,0-2.37-1.1-2.37-2.22,0-1.87,1.66-2.9,4.66-2.88v-.16c0-.64-.18-1.79-1.76-1.79-.72,0-1.47.22-2.02.58l-.32-.93c.64-.42,1.57-.69,2.54-.69,2.37,0,2.95,1.62,2.95,3.17v2.9c0,.67.03,1.33.13,1.86h-1.28ZM321.89,155.86c-1.54-.03-3.28.24-3.28,1.74,0,.91.61,1.34,1.33,1.34,1.01,0,1.65-.64,1.87-1.3.05-.14.08-.3.08-.45v-1.34Z"/>
    <path class="cls-5" d="M326.6,156.76l-.03-.42c-.1-.86.19-1.81.99-2.77.72-.85,1.12-1.47,1.12-2.19,0-.82-.51-1.36-1.52-1.38-.58,0-1.22.19-1.62.5l-.38-1.01c.53-.38,1.44-.64,2.29-.64,1.84,0,2.67,1.14,2.67,2.35,0,1.09-.61,1.87-1.38,2.79-.7.83-.96,1.54-.91,2.35l.02.42h-1.25ZM326.25,159c0-.59.4-1.01.96-1.01s.94.42.94,1.01c0,.56-.37.99-.96.99-.56,0-.95-.43-.95-.99Z"/>
  </g>
  <rect class="cls-1" x="15.26" y="-2.53" width="318" height="165"/>
  <g>
    <path class="cls-5" d="M267.39,40.44l-1.12,3.39h-1.44l3.67-10.79h1.68l3.68,10.79h-1.49l-1.15-3.39h-3.83ZM270.93,39.35l-1.06-3.1c-.24-.7-.4-1.34-.56-1.97h-.03c-.16.64-.34,1.3-.54,1.95l-1.06,3.12h3.25Z"/>
    <path class="cls-5" d="M279.34,36.08l1.02,3.94c.22.86.43,1.66.58,2.46h.05c.18-.78.43-1.62.69-2.45l1.26-3.95h1.18l1.2,3.87c.29.93.51,1.74.69,2.53h.05c.13-.78.34-1.6.59-2.51l1.1-3.89h1.39l-2.5,7.75h-1.28l-1.18-3.7c-.27-.86-.5-1.63-.69-2.55h-.03c-.19.93-.43,1.73-.7,2.56l-1.25,3.68h-1.28l-2.34-7.75h1.44Z"/>
    <path class="cls-5" d="M292.13,33.91c.02.48-.34.86-.9.86-.5,0-.85-.38-.85-.86s.37-.88.88-.88.86.38.86.88ZM290.56,43.83v-7.75h1.41v7.75h-1.41Z"/>
    <path class="cls-5" d="M293.42,43.01l3.51-4.56c.34-.42.66-.78,1.01-1.2v-.03h-4.19v-1.14h5.91l-.02.88-3.46,4.5c-.32.43-.64.82-.99,1.22v.03h4.53v1.12h-6.29v-.82Z"/>
    <path class="cls-5" d="M305.44,43.83l-.11-.98h-.05c-.43.61-1.26,1.15-2.37,1.15-1.57,0-2.37-1.1-2.37-2.23,0-1.87,1.66-2.9,4.66-2.88v-.16c0-.64-.18-1.79-1.76-1.79-.72,0-1.47.22-2.02.58l-.32-.93c.64-.42,1.57-.69,2.54-.69,2.37,0,2.95,1.62,2.95,3.17v2.9c0,.67.03,1.33.13,1.86h-1.28ZM305.23,39.88c-1.54-.03-3.28.24-3.28,1.74,0,.91.61,1.34,1.33,1.34,1.01,0,1.65-.64,1.87-1.3.05-.14.08-.3.08-.45v-1.34Z"/>
  </g>
  <path class="cls-5" d="M308.87,38.5c0-.91-.02-1.7-.06-2.42h1.23l.05,1.52h.06c.35-1.04,1.2-1.7,2.14-1.7.16,0,.27.02.4.05v1.33c-.14-.03-.29-.05-.48-.05-.99,0-1.7.75-1.89,1.81-.03.19-.06.42-.06.66v4.13h-1.39v-5.33Z"/>
  <path class="cls-5" d="M320.64,32.47v9.36c0,.69.02,1.47.06,2h-1.26l-.06-1.34h-.03c-.43.86-1.38,1.52-2.64,1.52-1.87,0-3.31-1.58-3.31-3.94-.02-2.58,1.58-4.16,3.47-4.16,1.18,0,1.98.56,2.34,1.18h.03v-4.63h1.41ZM319.23,39.24c0-.18-.02-.42-.06-.59-.21-.9-.98-1.63-2.03-1.63-1.46,0-2.32,1.28-2.32,2.99,0,1.57.77,2.87,2.29,2.87.95,0,1.81-.62,2.07-1.68.05-.19.06-.38.06-.61v-1.34Z"/>
  <path class="cls-5" d="M322.48,43c0-.59.4-1.01.96-1.01s.94.42.94,1.01-.37,1.01-.96,1.01c-.56,0-.94-.43-.94-1.01Z"/>
  <g class="cls-10">
    <path class="cls-12" d="M314.55,117.72h-147.5c-3.94,0-7.13-3.19-7.13-7.14v-4.73c0-3.94,3.19-7.14,7.13-7.14h147.5c3.94,0,7.14,3.19,7.14,7.14v4.73c0,3.94-3.2,7.14-7.14,7.14"/>
    <rect class="cls-1" x="159.91" y="98.72" width="161.77" height="19"/>
    <rect class="cls-1" x="159.91" y="98.72" width="161.77" height="19"/>
  </g>
  <path d="M317.25,48.72c4.97,0,9.01,4.04,9.01,9.01v77.97c0,4.97-4.04,9.01-9.01,9.01h-151.97c-4.97,0-9.01-4.04-9.01-9.01V57.74c0-4.97,4.04-9.01,9.01-9.01h151.97ZM317.25,47.72h-151.97c-5.53,0-10.01,4.48-10.01,10.01v77.97c0,5.53,4.48,10.01,10.01,10.01h151.97c5.53,0,10.01-4.48,10.01-10.01V57.74c0-5.53-4.48-10.01-10.01-10.01"/>
  <path class="cls-4" d="M166.1,122.22h22.33c2.95,0,5.34,2.39,5.34,5.34v7.33c0,2.95-2.39,5.34-5.34,5.34h-22.33c-2.95,0-5.34-2.39-5.34-5.34v-7.33c0-2.95,2.39-5.34,5.34-5.34Z"/>
  <g class="cls-10">
    <path class="cls-6" d="M314.55,140.72h-147.5c-3.94,0-7.13-3.19-7.13-7.14v-4.73c0-3.94,3.19-7.14,7.13-7.14h147.5c3.94,0,7.14,3.19,7.14,7.14v4.73c0,3.94-3.2,7.14-7.14,7.14"/>
    <rect class="cls-1" x="159.91" y="121.72" width="161.77" height="19"/>
    <rect class="cls-1" x="159.91" y="121.72" width="161.77" height="19"/>
  </g>
  <g class="cls-10">
    <path class="cls-7" d="M314.55,94.72h-147.5c-3.94,0-7.13-3.19-7.13-7.14v-4.73c0-3.94,3.19-7.14,7.13-7.14h147.5c3.94,0,7.14,3.19,7.14,7.14v4.73c0,3.94-3.2,7.14-7.14,7.14"/>
    <rect class="cls-1" x="159.91" y="75.72" width="161.77" height="19"/>
    <rect class="cls-1" x="159.91" y="75.72" width="161.77" height="19"/>
  </g>
  <g class="cls-10">
    <path class="cls-11" d="M314.55,71.72h-147.5c-3.94,0-7.13-3.19-7.13-7.14v-4.73c0-3.94,3.19-7.14,7.13-7.14h147.5c3.94,0,7.14,3.19,7.14,7.14v4.73c0,3.94-3.2,7.14-7.14,7.14"/>
    <rect class="cls-1" x="159.91" y="52.72" width="161.77" height="19"/>
    <rect class="cls-1" x="159.91" y="52.72" width="161.77" height="19"/>
  </g>
  <rect class="cls-1" x="15.26" y="-2.53" width="318" height="165"/>
  <g>
    <path d="M22.1,31.42c.85-.13,1.86-.22,2.96-.22,2,0,3.43.46,4.37,1.34.96.88,1.52,2.13,1.52,3.87s-.54,3.2-1.55,4.19c-1.01,1.01-2.67,1.55-4.77,1.55-.99,0-1.82-.05-2.53-.13v-10.61ZM23.49,40.96c.35.06.86.08,1.41.08,2.98,0,4.59-1.66,4.59-4.58.02-2.55-1.42-4.16-4.37-4.16-.72,0-1.26.06-1.63.14v8.52Z"/>
    <path d="M34.27,32.14c.02.48-.34.86-.9.86-.5,0-.85-.38-.85-.86s.37-.88.88-.88.86.38.86.88ZM32.7,42.07v-7.75h1.41v7.75h-1.41Z"/>
    <path d="M40.74,42.07l-.11-.98h-.05c-.43.61-1.26,1.15-2.37,1.15-1.57,0-2.37-1.1-2.37-2.23,0-1.87,1.67-2.9,4.66-2.88v-.16c0-.64-.18-1.79-1.76-1.79-.72,0-1.47.22-2.02.58l-.32-.93c.64-.42,1.57-.69,2.54-.69,2.37,0,2.95,1.62,2.95,3.17v2.9c0,.67.03,1.33.13,1.86h-1.28ZM40.53,38.11c-1.54-.03-3.28.24-3.28,1.74,0,.91.61,1.34,1.33,1.34,1.01,0,1.65-.64,1.87-1.3.05-.14.08-.3.08-.45v-1.34Z"/>
    <path d="M44.16,30.7h1.41v11.36h-1.41v-11.36Z"/>
    <path d="M54.95,38.13c0,2.87-1.98,4.11-3.86,4.11-2.1,0-3.71-1.54-3.71-3.99,0-2.59,1.7-4.11,3.84-4.11s3.73,1.62,3.73,3.99ZM48.8,38.21c0,1.7.98,2.98,2.35,2.98s2.35-1.26,2.35-3.01c0-1.31-.66-2.98-2.32-2.98s-2.39,1.54-2.39,3.01Z"/>
    <path d="M63.39,34.32c-.03.56-.06,1.18-.06,2.13v4.5c0,1.78-.35,2.87-1.1,3.54-.75.7-1.84.93-2.82.93s-1.95-.22-2.58-.64l.35-1.07c.51.32,1.31.61,2.27.61,1.44,0,2.5-.75,2.5-2.71v-.86h-.03c-.43.72-1.26,1.3-2.46,1.3-1.92,0-3.3-1.63-3.3-3.78,0-2.62,1.71-4.11,3.49-4.11,1.34,0,2.08.7,2.42,1.34h.03l.06-1.17h1.23ZM61.94,37.38c0-.24-.02-.45-.08-.64-.26-.82-.94-1.49-1.97-1.49-1.34,0-2.31,1.14-2.31,2.93,0,1.52.77,2.79,2.29,2.79.86,0,1.65-.54,1.95-1.44.08-.24.11-.51.11-.75v-1.39Z"/>
  </g>
  <path class="cls-8" d="M139.31,120.23s-.35-.56-.27-1.27c.07-.71.29-.58.4-.11.12.46.25.97.61,1.08,0,0,.3-.11.63-.04,0,0-.03-.6-.13-1.01-.1-.4.2-.69.58-.14.38.55.29,1.31.19,1.92,0,0,.01.29.2.52.19.23-.07,2.69.04,3.86.11,1.17.4,1.48.43,2.68.03,1.27.35,1.66.26,2.45-.09.79-.17,1.64-.79,2.29-.62.65-.92.95-1.04,1.3-.11.35-.42,1.31-.45,2.03-.03.72-.06,1.56.01,1.82.07.26.22.55.09.55s-.3-.14-.3-.14c0,0-.11.16-.3.14-.19-.01-.2-.1-.22-.49-.01-.39-.16-1.56-.13-1.87l-.19.29s.01-.91.2-1.24c0,0-.45.76-.52,1.48-.07.72.06,1.73-.09,1.83s-.25-.26-.33-.15c-.09.11-.2.3-.33.16-.13-.13-.1-1.73,0-2.34l-.16.19s-.07-.59,0-.81l-.16.17s-.05-.51.06-.8c0-.02.02-.04.03-.06.14-.27-.62.71-.39,1.31.23.6.71,1.37.71,1.37l.03.49s-.56.13-.78-.07c-.22-.2-.63-1.81-.88-2.54-.24-.72-.2-1.38-.2-1.38l-.13.32s.06-.84.23-1.17l-.23.27s.14-.5.13-.89c0,0-.55.2-.59,1.21-.04,1.01-.22,2.36-.1,2.98.12.62.1.59.17.76.07.17.1.43.1.43,0,0-.24-.03-.31-.04-.08-.01-.42.2-.52-.01-.1-.22-.35-1.28-.49-2.26-.14-.98-.27-2.31-.2-2.78l-.14.22s.13-.55.07-1.04c-.06-.49-.39-1.56-.38-2.84.02-1.28.12-2.39.29-3,.17-.6.66-.76.66-.76l-.33.04s.52-.38.91-.29l-.17-.17s.45-.04,1.24.32c0,0,2.04-.04,2.81.22,0,0-.09-.8,0-1.3.17-.89-.04-.94,0-1.34.04-.4.17-.52.07-.71-.1-.19-.39-.1-.39-.46,0,0-.12,0-.07-.24.04-.25.16-.23.16-.23,0,0-.1-.13,0-.33.1-.2.4-.36.4-.36"/>
  <path class="cls-8" d="M26.52,83.72c-3.1,0-5.61,2.51-5.61,5.6s2.51,5.6,5.61,5.6,5.6-2.51,5.6-5.6-2.51-5.6-5.6-5.6M30.1,92.91c-.92.92-2.18,1.49-3.59,1.49s-2.67-.57-3.59-1.49c-.92-.92-1.48-2.18-1.48-3.59s.57-2.67,1.48-3.58c.92-.92,2.19-1.49,3.59-1.49s2.67.57,3.59,1.49,1.49,2.18,1.49,3.58-.57,2.67-1.49,3.59M26.52,88.73c.76,0,1.37-.61,1.37-1.37,0-.76-.61-1.37-1.37-1.37-.76,0-1.37.61-1.37,1.37,0,.76.61,1.37,1.37,1.37M27.29,89.09h-1.55c-.51,0-.96.21-1.3.54-.33.33-.54.79-.54,1.29v1.27c.73.29,1.63.47,2.61.47s1.87-.17,2.6-.47v-1.27c0-.51-.2-.96-.54-1.29-.33-.33-.79-.54-1.3-.54"/>
  <rect class="cls-1" x="15.26" y="-2.53" width="318" height="165"/>
  <path d="M25.6,59.03c.47.29,1.15.53,1.87.53,1.07,0,1.69-.56,1.69-1.38,0-.76-.43-1.19-1.52-1.61-1.32-.47-2.13-1.15-2.13-2.29,0-1.26,1.04-2.19,2.61-2.19.83,0,1.43.19,1.79.4l-.29.85c-.26-.14-.8-.38-1.54-.38-1.1,0-1.52.66-1.52,1.21,0,.76.49,1.13,1.61,1.56,1.37.53,2.06,1.19,2.06,2.38,0,1.25-.92,2.33-2.83,2.33-.78,0-1.63-.23-2.06-.52l.26-.88Z"/>
  <path d="M31.93,54.5l1.27,3.43c.13.38.28.84.37,1.19h.02c.11-.35.23-.79.37-1.21l1.15-3.41h1.12l-1.58,4.14c-.76,1.99-1.27,3.01-1.99,3.63-.52.46-1.03.64-1.29.68l-.26-.89c.26-.08.61-.25.92-.52.29-.23.65-.64.89-1.18.05-.11.08-.19.08-.25s-.02-.14-.07-.28l-2.15-5.35h1.15Z"/>
  <path d="M36.99,59.22c.31.2.86.42,1.39.42.77,0,1.13-.38,1.13-.86,0-.5-.3-.78-1.08-1.07-1.04-.37-1.54-.95-1.54-1.64,0-.94.76-1.7,2-1.7.59,0,1.1.17,1.43.36l-.26.77c-.23-.14-.65-.34-1.19-.34-.62,0-.97.36-.97.79,0,.48.35.7,1.1.98,1.01.38,1.52.89,1.52,1.75,0,1.02-.79,1.74-2.17,1.74-.64,0-1.22-.16-1.63-.4l.26-.8Z"/>
  <path d="M43.16,52.83v1.67h1.51v.8h-1.51v3.13c0,.72.2,1.13.79,1.13.28,0,.48-.04.61-.07l.05.79c-.2.08-.53.14-.94.14-.49,0-.89-.16-1.14-.44-.3-.31-.41-.83-.41-1.51v-3.17h-.9v-.8h.9v-1.39l1.03-.28Z"/>
  <g>
    <path d="M46.37,57.59c.02,1.43.94,2.01,1.99,2.01.76,0,1.21-.13,1.61-.3l.18.76c-.37.17-1.01.36-1.93.36-1.79,0-2.85-1.18-2.85-2.93s1.03-3.13,2.72-3.13c1.9,0,2.4,1.67,2.4,2.73,0,.22-.02.38-.04.49h-4.08ZM49.47,56.83c.01-.67-.28-1.71-1.46-1.71-1.07,0-1.54.98-1.62,1.71h3.08Z"/>
    <path d="M51.8,56.07c0-.6-.01-1.09-.05-1.57h.92l.05.94h.04c.32-.55.86-1.07,1.82-1.07.79,0,1.39.48,1.64,1.16h.02c.18-.32.41-.58.65-.76.35-.26.73-.41,1.28-.41.77,0,1.91.5,1.91,2.52v3.42h-1.03v-3.29c0-1.12-.41-1.79-1.26-1.79-.6,0-1.07.44-1.25.96-.05.14-.08.34-.08.53v3.59h-1.03v-3.48c0-.92-.41-1.6-1.21-1.6-.66,0-1.14.53-1.31,1.06-.06.16-.08.34-.08.52v3.5h-1.03v-4.23Z"/>
    <path d="M61.55,55.45c0-.44.3-.76.72-.76s.7.31.71.76c0,.42-.28.74-.72.74-.42,0-.71-.32-.71-.74ZM61.55,59.69c0-.44.3-.76.72-.76s.7.31.71.76c0,.42-.28.74-.72.74-.42,0-.71-.32-.71-.74Z"/>
  </g>
  <path d="M27.64,74.23v-3.43l-2.55-4.65h1.19l1.14,2.23c.31.61.55,1.1.8,1.67h.02c.23-.53.5-1.06.82-1.67l1.16-2.23h1.19l-2.71,4.64v3.44h-1.06Z"/>
  <g>
    <path d="M36.65,71.28c0,2.15-1.49,3.08-2.89,3.08-1.57,0-2.78-1.15-2.78-2.99,0-1.94,1.27-3.08,2.88-3.08s2.79,1.21,2.79,2.99ZM32.04,71.33c0,1.27.73,2.23,1.76,2.23s1.76-.95,1.76-2.25c0-.98-.49-2.23-1.74-2.23s-1.79,1.15-1.79,2.25Z"/>
    <path d="M42.84,72.64c0,.6.01,1.13.05,1.58h-.94l-.06-.95h-.02c-.28.47-.89,1.08-1.92,1.08-.91,0-2-.5-2-2.54v-3.39h1.06v3.21c0,1.1.34,1.85,1.3,1.85.71,0,1.2-.49,1.39-.96.06-.16.1-.35.1-.54v-3.56h1.06v4.22Z"/>
    <path d="M50.35,74.23l-.08-.73h-.04c-.32.46-.95.86-1.77.86-1.18,0-1.77-.83-1.77-1.67,0-1.4,1.25-2.17,3.49-2.16v-.12c0-.48-.13-1.34-1.32-1.34-.54,0-1.1.17-1.51.43l-.24-.7c.48-.31,1.18-.52,1.91-.52,1.77,0,2.21,1.21,2.21,2.37v2.17c0,.5.02,1,.1,1.39h-.96ZM50.19,71.26c-1.15-.02-2.46.18-2.46,1.31,0,.68.46,1.01,1,1.01.76,0,1.24-.48,1.4-.97.04-.11.06-.23.06-.34v-1.01Z"/>
  </g>
  <path d="M52.92,70.23c0-.68-.01-1.27-.05-1.81h.92l.04,1.14h.05c.26-.78.9-1.27,1.61-1.27.12,0,.2.01.3.04v1c-.11-.02-.22-.04-.36-.04-.74,0-1.27.56-1.42,1.36-.02.14-.05.31-.05.49v3.09h-1.04v-3.99Z"/>
  <g>
    <path d="M57.32,71.51c.02,1.43.94,2.01,1.99,2.01.76,0,1.21-.13,1.61-.3l.18.76c-.37.17-1.01.36-1.93.36-1.79,0-2.85-1.18-2.85-2.93s1.03-3.13,2.72-3.13c1.9,0,2.4,1.67,2.4,2.73,0,.22-.02.38-.04.49h-4.08ZM60.42,70.76c.01-.67-.28-1.71-1.46-1.71-1.07,0-1.54.98-1.62,1.71h3.08Z"/>
    <path d="M66.37,66.14v3.38h3.91v-3.38h1.06v8.08h-1.06v-3.79h-3.91v3.79h-1.04v-8.08h1.04Z"/>
    <path d="M76.33,74.23l-.08-.73h-.04c-.32.46-.95.86-1.77.86-1.18,0-1.77-.83-1.77-1.67,0-1.4,1.25-2.17,3.49-2.16v-.12c0-.48-.13-1.34-1.32-1.34-.54,0-1.1.17-1.51.43l-.24-.7c.48-.31,1.18-.52,1.91-.52,1.77,0,2.21,1.21,2.21,2.37v2.17c0,.5.02,1,.1,1.39h-.96ZM76.18,71.26c-1.15-.02-2.46.18-2.46,1.31,0,.68.46,1.01,1,1.01.76,0,1.24-.48,1.4-.97.04-.11.06-.23.06-.34v-1.01Z"/>
  </g>
  <path d="M78.9,70.23c0-.68-.01-1.27-.05-1.81h.92l.04,1.14h.05c.26-.78.9-1.27,1.61-1.27.12,0,.2.01.3.04v1c-.11-.02-.22-.04-.36-.04-.74,0-1.27.56-1.42,1.36-.02.14-.05.31-.05.49v3.09h-1.04v-3.99Z"/>
  <path d="M82.86,70.23c0-.68-.01-1.27-.05-1.81h.92l.04,1.14h.05c.26-.78.9-1.27,1.61-1.27.12,0,.2.01.3.04v1c-.11-.02-.22-.04-.36-.04-.74,0-1.27.56-1.42,1.36-.02.14-.05.31-.05.49v3.09h-1.04v-3.99Z"/>
  <path d="M87.47,68.42l1.27,3.43c.13.38.28.84.37,1.19h.02c.11-.35.23-.79.37-1.21l1.15-3.41h1.12l-1.58,4.14c-.76,1.99-1.27,3.01-1.99,3.63-.52.46-1.03.64-1.29.68l-.26-.89c.26-.08.61-.25.92-.52.29-.23.65-.64.89-1.18.05-.11.08-.19.08-.25s-.02-.14-.07-.28l-2.15-5.35h1.15Z"/>
  <path d="M95.32,66.24c.5-.08,1.16-.16,2-.16,1.03,0,1.79.24,2.27.67.44.38.71.97.71,1.69s-.22,1.31-.62,1.73c-.55.59-1.45.89-2.47.89-.31,0-.6-.01-.84-.07v3.24h-1.04v-7.99ZM96.36,70.14c.23.06.52.08.86.08,1.26,0,2.03-.61,2.03-1.73s-.76-1.58-1.91-1.58c-.46,0-.8.04-.98.08v3.14Z"/>
  <g>
    <path d="M106.63,71.28c0,2.15-1.49,3.08-2.89,3.08-1.57,0-2.78-1.15-2.78-2.99,0-1.94,1.27-3.08,2.88-3.08s2.79,1.21,2.79,2.99ZM102.02,71.33c0,1.27.73,2.23,1.76,2.23s1.76-.95,1.76-2.25c0-.98-.49-2.23-1.74-2.23s-1.79,1.15-1.79,2.25Z"/>
    <path d="M109.24,66.75v1.67h1.51v.8h-1.51v3.13c0,.72.2,1.13.79,1.13.28,0,.48-.04.61-.07l.05.79c-.2.08-.53.14-.94.14-.49,0-.89-.16-1.14-.44-.3-.31-.41-.83-.41-1.51v-3.17h-.9v-.8h.9v-1.39l1.03-.28Z"/>
  </g>
  <path d="M113.21,66.75v1.67h1.51v.8h-1.51v3.13c0,.72.2,1.13.79,1.13.28,0,.48-.04.61-.07l.05.79c-.2.08-.53.14-.94.14-.49,0-.89-.16-1.14-.44-.3-.31-.41-.83-.41-1.51v-3.17h-.9v-.8h.9v-1.39l1.03-.28Z"/>
  <path d="M116.42,71.51c.02,1.43.94,2.01,1.99,2.01.76,0,1.21-.13,1.61-.3l.18.76c-.37.17-1.01.36-1.93.36-1.79,0-2.85-1.18-2.85-2.93s1.03-3.13,2.72-3.13c1.9,0,2.4,1.67,2.4,2.73,0,.22-.02.38-.04.49h-4.08ZM119.52,70.76c.01-.67-.28-1.71-1.46-1.71-1.07,0-1.54.98-1.62,1.71h3.08Z"/>
  <path d="M121.85,70.23c0-.68-.01-1.27-.05-1.81h.92l.04,1.14h.05c.26-.78.9-1.27,1.61-1.27.12,0,.2.01.3.04v1c-.11-.02-.22-.04-.36-.04-.74,0-1.27.56-1.42,1.36-.02.14-.05.31-.05.49v3.09h-1.04v-3.99Z"/>
  <path d="M124.88,73.6c0-.44.3-.76.72-.76s.71.31.71.76-.28.76-.72.76c-.42,0-.71-.32-.71-.76Z"/>
  <line class="cls-2" x1="20.67" y1="78.39" x2="148.29" y2="78.39"/>
  <path d="M38.09,93.27l-2.05-8.08h1.1l.96,4.09c.24,1.01.46,2.02.6,2.79h.02c.13-.8.38-1.76.66-2.81l1.08-4.08h1.09l.98,4.1c.23.96.44,1.92.56,2.77h.02c.17-.89.4-1.79.65-2.79l1.07-4.08h1.07l-2.29,8.08h-1.09l-1.02-4.21c-.25-1.03-.42-1.82-.53-2.64h-.02c-.14.8-.32,1.6-.62,2.64l-1.15,4.21h-1.09Z"/>
  <path d="M46.71,89.27c0-.68-.01-1.27-.05-1.81h.92l.04,1.14h.05c.26-.78.9-1.27,1.61-1.27.12,0,.2.01.3.04v1c-.11-.02-.22-.04-.36-.04-.74,0-1.27.56-1.42,1.36-.02.14-.05.31-.05.49v3.09h-1.04v-3.99Z"/>
  <path d="M51.84,85.83c.01.36-.25.65-.67.65-.37,0-.64-.29-.64-.65s.28-.66.66-.66.65.29.65.66ZM50.67,93.27v-5.8h1.06v5.8h-1.06Z"/>
  <path d="M54.74,85.8v1.67h1.51v.8h-1.51v3.13c0,.72.2,1.13.79,1.13.28,0,.48-.04.61-.07l.05.79c-.2.08-.53.14-.94.14-.49,0-.89-.16-1.14-.44-.3-.31-.41-.83-.41-1.51v-3.17h-.9v-.8h.9v-1.39l1.03-.28Z"/>
  <g>
    <path d="M57.97,90.56c.02,1.43.94,2.02,1.99,2.02.76,0,1.21-.13,1.61-.3l.18.75c-.37.17-1.01.36-1.93.36-1.79,0-2.85-1.18-2.85-2.93s1.03-3.13,2.72-3.13c1.9,0,2.4,1.67,2.4,2.73,0,.22-.02.38-.04.49h-4.08ZM61.07,89.8c.01-.67-.28-1.71-1.46-1.71-1.07,0-1.54.98-1.62,1.71h3.08Z"/>
    <path d="M69.15,93.27l-.08-.73h-.04c-.32.46-.95.86-1.77.86-1.18,0-1.77-.83-1.77-1.67,0-1.4,1.25-2.17,3.49-2.16v-.12c0-.48-.13-1.34-1.32-1.34-.54,0-1.1.17-1.51.43l-.24-.7c.48-.31,1.18-.52,1.91-.52,1.77,0,2.21,1.21,2.21,2.37v2.17c0,.5.02,1,.1,1.39h-.96ZM69,90.31c-1.15-.02-2.46.18-2.46,1.31,0,.68.46,1.01,1,1.01.76,0,1.24-.48,1.4-.97.04-.11.06-.23.06-.34v-1.01Z"/>
    <path d="M74.12,92.19c.31.2.86.42,1.39.42.77,0,1.13-.38,1.13-.86s-.3-.78-1.08-1.07c-1.04-.37-1.54-.95-1.54-1.64,0-.94.76-1.7,2-1.7.59,0,1.1.17,1.43.36l-.26.77c-.23-.14-.65-.34-1.19-.34-.62,0-.97.36-.97.79,0,.48.35.7,1.1.98,1.01.38,1.52.89,1.52,1.75,0,1.02-.79,1.74-2.17,1.74-.64,0-1.22-.16-1.63-.4l.26-.8Z"/>
    <path d="M79.61,90.56c.02,1.43.94,2.02,1.99,2.02.76,0,1.21-.13,1.61-.3l.18.75c-.37.17-1.01.36-1.93.36-1.79,0-2.85-1.18-2.85-2.93s1.03-3.13,2.72-3.13c1.9,0,2.4,1.67,2.4,2.73,0,.22-.02.38-.04.49h-4.08ZM82.7,89.8c.01-.67-.28-1.71-1.46-1.71-1.07,0-1.54.98-1.62,1.71h3.08Z"/>
  </g>
  <path d="M85.03,89.04c0-.6-.01-1.09-.05-1.57h.94l.06.96h.02c.29-.55.96-1.09,1.92-1.09.8,0,2.05.48,2.05,2.47v3.47h-1.06v-3.35c0-.94-.35-1.72-1.34-1.72-.7,0-1.24.49-1.42,1.08-.05.13-.07.31-.07.49v3.49h-1.06v-4.23Z"/>
  <path d="M92.93,85.8v1.67h1.51v.8h-1.51v3.13c0,.72.2,1.13.79,1.13.28,0,.48-.04.61-.07l.05.79c-.2.08-.53.14-.94.14-.49,0-.89-.16-1.14-.44-.3-.31-.41-.83-.41-1.51v-3.17h-.9v-.8h.9v-1.39l1.03-.28Z"/>
  <g>
    <path d="M96.15,90.56c.02,1.43.94,2.02,1.99,2.02.76,0,1.21-.13,1.61-.3l.18.75c-.37.17-1.01.36-1.93.36-1.79,0-2.85-1.18-2.85-2.93s1.03-3.13,2.72-3.13c1.9,0,2.4,1.67,2.4,2.73,0,.22-.02.38-.04.49h-4.08ZM99.24,89.8c.01-.67-.28-1.71-1.46-1.71-1.07,0-1.54.98-1.62,1.71h3.08Z"/>
    <path d="M101.57,89.04c0-.6-.01-1.09-.05-1.57h.94l.06.96h.02c.29-.55.96-1.09,1.92-1.09.8,0,2.05.48,2.05,2.47v3.47h-1.06v-3.35c0-.94-.35-1.72-1.34-1.72-.7,0-1.24.49-1.42,1.08-.05.13-.07.31-.07.49v3.49h-1.06v-4.23Z"/>
  </g>
  <path d="M112.37,93.05c-.28.14-.89.34-1.67.34-1.75,0-2.89-1.19-2.89-2.96s1.22-3.08,3.12-3.08c.62,0,1.18.16,1.46.3l-.24.82c-.25-.14-.65-.28-1.22-.28-1.33,0-2.05.98-2.05,2.19,0,1.34.86,2.17,2.02,2.17.6,0,1-.16,1.3-.29l.18.79Z"/>
  <g>
    <path d="M114.12,90.56c.02,1.43.94,2.02,1.99,2.02.76,0,1.21-.13,1.61-.3l.18.75c-.37.17-1.01.36-1.93.36-1.79,0-2.85-1.18-2.85-2.93s1.03-3.13,2.72-3.13c1.9,0,2.4,1.67,2.4,2.73,0,.22-.02.38-.04.49h-4.08ZM117.21,89.8c.01-.67-.28-1.71-1.46-1.71-1.07,0-1.54.98-1.62,1.71h3.08Z"/>
    <path d="M122.51,87.46l.77,2.95c.17.65.32,1.25.43,1.85h.04c.13-.59.32-1.21.52-1.83l.95-2.96h.89l.9,2.9c.22.7.38,1.31.52,1.89h.04c.1-.59.25-1.2.44-1.88l.83-2.91h1.04l-1.87,5.8h-.96l-.89-2.77c-.2-.65-.37-1.22-.52-1.91h-.02c-.14.7-.32,1.3-.53,1.92l-.94,2.76h-.96l-1.75-5.8h1.08Z"/>
    <path d="M132.1,85.83c.01.36-.25.65-.67.65-.37,0-.64-.29-.64-.65s.28-.66.66-.66.65.29.65.66ZM130.92,93.27v-5.8h1.06v5.8h-1.06Z"/>
    <path d="M135,85.8v1.67h1.51v.8h-1.51v3.13c0,.72.2,1.13.79,1.13.28,0,.48-.04.61-.07l.05.79c-.2.08-.53.14-.94.14-.49,0-.89-.16-1.14-.44-.3-.31-.41-.83-.41-1.51v-3.17h-.9v-.8h.9v-1.39l1.03-.28Z"/>
    <path d="M137.7,84.75h1.06v3.62h.02c.17-.3.43-.56.76-.74.31-.18.68-.3,1.08-.3.78,0,2.03.48,2.03,2.48v3.45h-1.06v-3.33c0-.94-.35-1.73-1.34-1.73-.68,0-1.22.48-1.42,1.06-.06.14-.07.3-.07.5v3.5h-1.06v-8.52Z"/>
  </g>
  <g>
    <path d="M38,100.2v1.67h1.51v.8h-1.51v3.13c0,.72.2,1.13.79,1.13.28,0,.48-.04.61-.07l.05.79c-.2.08-.53.14-.94.14-.49,0-.89-.16-1.14-.44-.3-.31-.41-.83-.41-1.51v-3.17h-.9v-.8h.9v-1.39l1.03-.28Z"/>
    <path d="M40.7,99.15h1.06v3.62h.02c.17-.3.43-.56.76-.74.31-.18.68-.3,1.08-.3.78,0,2.03.48,2.03,2.48v3.45h-1.06v-3.33c0-.94-.35-1.73-1.34-1.73-.68,0-1.22.48-1.42,1.06-.06.14-.07.3-.07.5v3.5h-1.06v-8.52Z"/>
    <path d="M47.95,104.96c.02,1.43.94,2.02,1.99,2.02.76,0,1.21-.13,1.61-.3l.18.75c-.37.17-1.01.36-1.93.36-1.79,0-2.85-1.18-2.85-2.93s1.03-3.13,2.72-3.13c1.9,0,2.4,1.67,2.4,2.73,0,.22-.02.38-.04.49h-4.08ZM51.05,104.2c.01-.67-.28-1.71-1.46-1.71-1.07,0-1.54.98-1.62,1.71h3.08Z"/>
  </g>
  <path d="M56.34,101.86l.77,2.95c.17.65.32,1.25.43,1.85h.04c.13-.59.32-1.21.52-1.83l.95-2.96h.89l.9,2.9c.22.7.38,1.31.52,1.89h.04c.1-.59.25-1.2.44-1.88l.83-2.91h1.04l-1.87,5.8h-.96l-.89-2.77c-.2-.65-.37-1.22-.52-1.91h-.02c-.14.7-.32,1.3-.53,1.92l-.94,2.76h-.96l-1.75-5.8h1.08Z"/>
  <path d="M69.9,104.72c0,2.15-1.49,3.08-2.89,3.08-1.57,0-2.78-1.15-2.78-2.99,0-1.94,1.27-3.08,2.88-3.08s2.79,1.21,2.79,2.99ZM65.29,104.78c0,1.27.73,2.23,1.76,2.23s1.76-.95,1.76-2.25c0-.98-.49-2.23-1.74-2.23s-1.79,1.15-1.79,2.25Z"/>
  <path d="M71.23,103.68c0-.68-.01-1.27-.05-1.81h.92l.04,1.14h.05c.26-.78.9-1.27,1.61-1.27.12,0,.2.01.3.04v1c-.11-.02-.22-.04-.36-.04-.74,0-1.27.56-1.42,1.36-.02.14-.05.31-.05.49v3.09h-1.04v-3.99Z"/>
  <path d="M80.06,99.15v7.02c0,.52.01,1.1.05,1.5h-.95l-.05-1.01h-.02c-.32.65-1.03,1.14-1.98,1.14-1.4,0-2.48-1.19-2.48-2.95-.01-1.93,1.19-3.12,2.6-3.12.89,0,1.49.42,1.75.89h.02v-3.47h1.06ZM79.01,104.23c0-.13-.01-.31-.05-.44-.16-.67-.73-1.22-1.52-1.22-1.09,0-1.74.96-1.74,2.24,0,1.17.58,2.15,1.72,2.15.71,0,1.35-.47,1.55-1.26.04-.14.05-.29.05-.46v-1.01Z"/>
  <path d="M82.92,102.38c.28-1.01.79-2.3,1.12-2.85l.67-.07c-.25.71-.58,1.94-.71,2.81l-1.08.12Z"/>
  <path d="M88.67,107.67l-.08-.73h-.04c-.32.46-.95.86-1.77.86-1.18,0-1.77-.83-1.77-1.67,0-1.4,1.25-2.17,3.49-2.16v-.12c0-.48-.13-1.34-1.32-1.34-.54,0-1.1.17-1.51.43l-.24-.7c.48-.31,1.18-.52,1.91-.52,1.77,0,2.21,1.21,2.21,2.37v2.17c0,.5.02,1,.1,1.39h-.96ZM88.51,104.71c-1.15-.02-2.46.18-2.46,1.31,0,.68.46,1.01,1,1.01.76,0,1.24-.48,1.4-.97.04-.11.06-.23.06-.34v-1.01Z"/>
  <path d="M91.24,103.44c0-.6-.01-1.09-.05-1.57h.94l.06.96h.02c.29-.55.96-1.09,1.92-1.09.8,0,2.05.48,2.05,2.47v3.47h-1.06v-3.35c0-.94-.35-1.72-1.34-1.72-.7,0-1.24.49-1.42,1.08-.05.13-.07.31-.07.49v3.49h-1.06v-4.23Z"/>
  <g>
    <path d="M99.12,100.2v1.67h1.51v.8h-1.51v3.13c0,.72.2,1.13.79,1.13.28,0,.48-.04.61-.07l.05.79c-.2.08-.53.14-.94.14-.49,0-.89-.16-1.14-.44-.3-.31-.41-.83-.41-1.51v-3.17h-.9v-.8h.9v-1.39l1.03-.28Z"/>
    <path d="M103,100.23c.01.36-.25.65-.67.65-.37,0-.64-.29-.64-.65s.28-.66.66-.66.65.29.65.66ZM101.82,107.67v-5.8h1.06v5.8h-1.06Z"/>
    <path d="M109.64,99.15v7.02c0,.52.01,1.1.05,1.5h-.95l-.05-1.01h-.02c-.32.65-1.03,1.14-1.98,1.14-1.4,0-2.48-1.19-2.48-2.95-.01-1.93,1.19-3.12,2.6-3.12.89,0,1.49.42,1.75.89h.02v-3.47h1.06ZM108.59,104.23c0-.13-.01-.31-.05-.44-.16-.67-.73-1.22-1.52-1.22-1.09,0-1.74.96-1.74,2.24,0,1.17.58,2.15,1.72,2.15.71,0,1.35-.47,1.55-1.26.04-.14.05-.29.05-.46v-1.01Z"/>
    <path d="M116.65,104.72c0,2.15-1.49,3.08-2.89,3.08-1.57,0-2.78-1.15-2.78-2.99,0-1.94,1.27-3.08,2.88-3.08s2.79,1.21,2.79,2.99ZM112.04,104.78c0,1.27.73,2.23,1.76,2.23s1.76-.95,1.76-2.25c0-.98-.49-2.23-1.74-2.23s-1.79,1.15-1.79,2.25Z"/>
  </g>
  <path d="M119.26,100.2v1.67h1.51v.8h-1.51v3.13c0,.72.2,1.13.79,1.13.28,0,.48-.04.61-.07l.05.79c-.2.08-.53.14-.94.14-.49,0-.89-.16-1.14-.44-.3-.31-.41-.83-.41-1.51v-3.17h-.9v-.8h.9v-1.39l1.03-.28Z"/>
  <path d="M122.47,104.96c.02,1.43.94,2.02,1.99,2.02.76,0,1.21-.13,1.61-.3l.18.75c-.37.17-1.01.36-1.93.36-1.79,0-2.85-1.18-2.85-2.93s1.03-3.13,2.72-3.13c1.9,0,2.4,1.67,2.4,2.73,0,.22-.02.38-.04.49h-4.08ZM125.57,104.2c.01-.67-.28-1.71-1.46-1.71-1.07,0-1.54.98-1.62,1.71h3.08Z"/>
  <path d="M128.94,99.45c-.28,1.01-.79,2.29-1.13,2.84l-.67.08c.26-.71.58-1.96.71-2.82l1.09-.11Z"/>
  <path d="M128,107.05c0-.44.3-.75.72-.75s.71.31.71.75-.28.76-.72.76c-.42,0-.71-.32-.71-.76Z"/>
  <g>
    <path d="M28.39,115.92v8.08h-1.04v-8.08h1.04Z"/>
    <path d="M32.58,122.92c.31.2.86.42,1.39.42.77,0,1.13-.38,1.13-.86s-.3-.78-1.08-1.07c-1.04-.37-1.54-.95-1.54-1.64,0-.94.76-1.7,2-1.7.59,0,1.1.17,1.43.36l-.26.77c-.23-.14-.65-.34-1.19-.34-.62,0-.97.36-.97.79,0,.48.35.7,1.1.98,1.01.38,1.52.89,1.52,1.75,0,1.02-.79,1.74-2.17,1.74-.64,0-1.22-.16-1.63-.4l.26-.8Z"/>
  </g>
  <path d="M40.69,124l-.08-.73h-.04c-.32.46-.95.86-1.77.86-1.18,0-1.77-.83-1.77-1.67,0-1.4,1.25-2.17,3.49-2.16v-.12c0-.48-.13-1.34-1.32-1.34-.54,0-1.1.17-1.51.43l-.24-.7c.48-.31,1.18-.52,1.91-.52,1.77,0,2.21,1.21,2.21,2.37v2.17c0,.5.02,1,.1,1.39h-.96ZM40.54,121.04c-1.15-.02-2.46.18-2.46,1.31,0,.68.46,1.01,1,1.01.76,0,1.24-.48,1.4-.97.04-.11.06-.23.06-.34v-1.01Z"/>
  <path d="M43.58,118.2l.77,2.95c.17.65.32,1.25.43,1.85h.04c.13-.59.32-1.21.52-1.83l.95-2.96h.89l.9,2.9c.22.7.38,1.31.52,1.89h.04c.1-.59.25-1.2.44-1.88l.83-2.91h1.04l-1.87,5.8h-.96l-.89-2.77c-.2-.65-.37-1.22-.52-1.91h-.02c-.14.7-.32,1.3-.53,1.92l-.94,2.76h-.96l-1.75-5.8h1.08Z"/>
  <path d="M54.58,116.01c.5-.08,1.16-.16,2-.16,1.03,0,1.79.24,2.27.67.44.38.71.97.71,1.69s-.22,1.31-.62,1.73c-.55.59-1.45.89-2.47.89-.31,0-.6-.01-.84-.07v3.24h-1.04v-7.99ZM55.62,119.91c.23.06.52.08.86.08,1.26,0,2.03-.61,2.03-1.73s-.76-1.58-1.91-1.58c-.46,0-.8.04-.98.08v3.14Z"/>
  <path d="M60.75,120.01c0-.68-.01-1.27-.05-1.81h.92l.04,1.14h.05c.26-.78.9-1.27,1.61-1.27.12,0,.2.01.3.04v1c-.11-.02-.22-.04-.36-.04-.74,0-1.27.56-1.42,1.36-.02.14-.05.31-.05.49v3.09h-1.04v-3.99Z"/>
  <path d="M69.8,121.05c0,2.15-1.49,3.08-2.89,3.08-1.57,0-2.78-1.15-2.78-2.99,0-1.94,1.27-3.08,2.88-3.08s2.79,1.21,2.79,2.99ZM65.2,121.11c0,1.27.73,2.23,1.76,2.23s1.76-.95,1.76-2.25c0-.98-.49-2.23-1.74-2.23s-1.79,1.15-1.79,2.25Z"/>
  <path d="M71.24,124v-5h-.82v-.8h.82v-.28c0-.82.18-1.56.67-2.03.4-.38.92-.54,1.42-.54.37,0,.7.08.9.17l-.14.82c-.16-.07-.37-.13-.67-.13-.9,0-1.13.79-1.13,1.68v.31h1.4v.8h-1.4v5h-1.04Z"/>
  <g>
    <path d="M74,123.38c0-.44.3-.75.72-.75s.71.31.71.75-.28.76-.72.76c-.42,0-.71-.32-.71-.76Z"/>
    <path d="M79.18,122.73c.47.29,1.15.53,1.87.53,1.07,0,1.69-.56,1.69-1.38,0-.75-.43-1.19-1.52-1.61-1.32-.47-2.13-1.15-2.13-2.29,0-1.26,1.04-2.2,2.61-2.2.83,0,1.43.19,1.79.4l-.29.85c-.26-.14-.8-.38-1.54-.38-1.1,0-1.52.66-1.52,1.21,0,.76.49,1.13,1.61,1.56,1.37.53,2.06,1.19,2.06,2.37,0,1.25-.92,2.33-2.83,2.33-.78,0-1.63-.23-2.06-.52l.26-.88Z"/>
    <path d="M85.2,119.77c0-.6-.01-1.09-.05-1.57h.94l.06.96h.02c.29-.55.96-1.09,1.92-1.09.8,0,2.05.48,2.05,2.47v3.47h-1.06v-3.35c0-.94-.35-1.72-1.34-1.72-.7,0-1.24.49-1.42,1.08-.05.13-.07.31-.07.49v3.49h-1.06v-4.23Z"/>
    <path d="M95.07,124l-.08-.73h-.04c-.32.46-.95.86-1.77.86-1.18,0-1.77-.83-1.77-1.67,0-1.4,1.25-2.17,3.49-2.16v-.12c0-.48-.13-1.34-1.32-1.34-.54,0-1.1.17-1.51.43l-.24-.7c.48-.31,1.18-.52,1.91-.52,1.77,0,2.21,1.21,2.21,2.37v2.17c0,.5.02,1,.1,1.39h-.96ZM94.92,121.04c-1.15-.02-2.46.18-2.46,1.31,0,.68.46,1.01,1,1.01.76,0,1.24-.48,1.4-.97.04-.11.06-.23.06-.34v-1.01Z"/>
    <path d="M97.64,120.09c0-.74-.02-1.34-.05-1.89h.95l.05,1h.02c.43-.71,1.12-1.13,2.06-1.13,1.4,0,2.46,1.19,2.46,2.95,0,2.09-1.27,3.12-2.64,3.12-.77,0-1.44-.34-1.79-.91h-.02v3.15h-1.04v-6.29ZM98.69,121.64c0,.16.02.3.05.43.19.73.83,1.24,1.58,1.24,1.12,0,1.76-.91,1.76-2.24,0-1.16-.61-2.16-1.73-2.16-.72,0-1.39.52-1.6,1.31-.04.13-.07.29-.07.43v1Z"/>
    <path d="M105.06,121.29c.02,1.43.94,2.02,1.99,2.02.76,0,1.21-.13,1.61-.3l.18.75c-.37.17-1.01.36-1.93.36-1.79,0-2.85-1.18-2.85-2.93s1.03-3.13,2.72-3.13c1.9,0,2.4,1.67,2.4,2.73,0,.22-.02.38-.04.49h-4.08ZM108.15,120.54c.01-.67-.28-1.71-1.46-1.71-1.07,0-1.54.98-1.62,1.71h3.08Z"/>
  </g>
  <path d="M27.27,138.4c.02-.4.05-.98.05-1.5v-7.02h1.04v3.65h.02c.37-.65,1.04-1.07,1.98-1.07,1.44,0,2.46,1.2,2.45,2.96,0,2.08-1.31,3.11-2.6,3.11-.84,0-1.51-.32-1.94-1.09h-.04l-.05.96h-.91ZM28.36,136.07c0,.13.02.26.05.38.2.73.82,1.24,1.58,1.24,1.1,0,1.76-.9,1.76-2.23,0-1.16-.6-2.16-1.73-2.16-.72,0-1.39.49-1.61,1.3-.02.12-.06.26-.06.43v1.04Z"/>
  <path d="M34.14,134.41c0-.68-.01-1.27-.05-1.81h.92l.04,1.14h.05c.26-.78.9-1.27,1.61-1.27.12,0,.2.01.3.04v1c-.11-.02-.22-.04-.36-.04-.74,0-1.27.56-1.42,1.36-.02.14-.05.31-.05.49v3.09h-1.04v-3.99Z"/>
  <g>
    <path d="M38.53,135.69c.02,1.43.94,2.02,1.99,2.02.76,0,1.21-.13,1.61-.3l.18.75c-.37.17-1.01.36-1.93.36-1.79,0-2.85-1.18-2.85-2.93s1.03-3.13,2.72-3.13c1.9,0,2.4,1.67,2.4,2.73,0,.22-.02.38-.04.49h-4.08ZM41.63,134.94c.01-.67-.28-1.72-1.46-1.72-1.07,0-1.54.98-1.62,1.72h3.08Z"/>
    <path d="M44.38,132.6l.77,2.95c.17.65.32,1.25.43,1.85h.04c.13-.59.32-1.21.52-1.83l.95-2.96h.89l.9,2.9c.22.7.38,1.31.52,1.89h.04c.1-.59.25-1.2.44-1.88l.83-2.91h1.04l-1.87,5.8h-.96l-.89-2.77c-.2-.65-.37-1.22-.52-1.91h-.02c-.14.7-.32,1.3-.53,1.92l-.94,2.76h-.96l-1.75-5.8h1.08Z"/>
    <path d="M53.96,130.97c.01.36-.25.65-.67.65-.37,0-.64-.29-.64-.65s.28-.66.66-.66.65.29.65.66ZM52.79,138.4v-5.8h1.06v5.8h-1.06Z"/>
    <path d="M55.6,134.17c0-.6-.01-1.09-.05-1.57h.94l.06.96h.02c.29-.55.96-1.09,1.92-1.09.8,0,2.05.48,2.05,2.47v3.47h-1.06v-3.35c0-.94-.35-1.72-1.34-1.72-.7,0-1.24.49-1.42,1.08-.05.13-.07.31-.07.49v3.49h-1.06v-4.23Z"/>
    <path d="M67.26,132.6c-.02.42-.05.89-.05,1.59v3.37c0,1.33-.26,2.15-.83,2.65-.56.53-1.38.7-2.11.7s-1.46-.17-1.93-.48l.26-.8c.38.24.98.46,1.7.46,1.08,0,1.87-.56,1.87-2.03v-.65h-.02c-.32.54-.95.97-1.85.97-1.44,0-2.47-1.22-2.47-2.83,0-1.97,1.28-3.08,2.61-3.08,1.01,0,1.56.53,1.81,1.01h.02l.05-.88h.92ZM66.17,134.89c0-.18-.01-.34-.06-.48-.19-.61-.71-1.12-1.48-1.12-1.01,0-1.73.85-1.73,2.2,0,1.14.58,2.09,1.72,2.09.65,0,1.24-.41,1.46-1.08.06-.18.08-.38.08-.56v-1.04Z"/>
    <path d="M74.72,138.4l-.08-.73h-.04c-.32.46-.95.86-1.77.86-1.18,0-1.77-.83-1.77-1.67,0-1.4,1.25-2.17,3.49-2.16v-.12c0-.48-.13-1.34-1.32-1.34-.54,0-1.1.17-1.51.43l-.24-.7c.48-.31,1.18-.52,1.91-.52,1.77,0,2.21,1.21,2.21,2.37v2.17c0,.5.02,1,.1,1.39h-.96ZM74.57,135.44c-1.15-.02-2.46.18-2.46,1.31,0,.68.46,1.01,1,1.01.76,0,1.24-.48,1.4-.97.04-.11.06-.23.06-.34v-1.01Z"/>
    <path d="M77.29,134.17c0-.6-.01-1.09-.05-1.57h.94l.06.96h.02c.29-.55.96-1.09,1.92-1.09.8,0,2.05.48,2.05,2.47v3.47h-1.06v-3.35c0-.94-.35-1.72-1.34-1.72-.7,0-1.24.49-1.42,1.08-.05.13-.07.31-.07.49v3.49h-1.06v-4.23Z"/>
    <path d="M89.71,138.4l-.08-.73h-.04c-.32.46-.95.86-1.77.86-1.18,0-1.77-.83-1.77-1.67,0-1.4,1.25-2.17,3.49-2.16v-.12c0-.48-.13-1.34-1.32-1.34-.54,0-1.1.17-1.51.43l-.24-.7c.48-.31,1.18-.52,1.91-.52,1.77,0,2.21,1.21,2.21,2.37v2.17c0,.5.02,1,.1,1.39h-.96ZM89.55,135.44c-1.15-.02-2.46.18-2.46,1.31,0,.68.46,1.01,1,1.01.76,0,1.24-.48,1.4-.97.04-.11.06-.23.06-.34v-1.01Z"/>
  </g>
  <path d="M92.28,134.17c0-.6-.01-1.09-.05-1.57h.94l.06.96h.02c.29-.55.96-1.09,1.92-1.09.8,0,2.05.48,2.05,2.47v3.47h-1.06v-3.35c0-.94-.35-1.72-1.34-1.72-.7,0-1.24.49-1.42,1.08-.05.13-.07.31-.07.49v3.49h-1.06v-4.23Z"/>
  <g>
    <path d="M100.16,130.93v1.67h1.51v.8h-1.51v3.13c0,.72.2,1.13.79,1.13.28,0,.48-.04.61-.07l.05.79c-.2.08-.53.14-.94.14-.49,0-.89-.16-1.14-.44-.3-.31-.41-.83-.41-1.51v-3.17h-.9v-.8h.9v-1.39l1.03-.28Z"/>
    <path d="M104.04,130.97c.01.36-.25.65-.67.65-.37,0-.64-.29-.64-.65s.28-.66.66-.66.65.29.65.66ZM102.86,138.4v-5.8h1.06v5.8h-1.06Z"/>
    <path d="M110.69,129.89v7.02c0,.52.01,1.1.05,1.5h-.95l-.05-1.01h-.02c-.32.65-1.03,1.14-1.98,1.14-1.4,0-2.48-1.19-2.48-2.95-.01-1.93,1.19-3.12,2.6-3.12.89,0,1.49.42,1.75.89h.02v-3.47h1.06ZM109.63,134.96c0-.13-.01-.31-.05-.44-.16-.67-.73-1.22-1.52-1.22-1.09,0-1.74.96-1.74,2.24,0,1.17.58,2.15,1.72,2.15.71,0,1.35-.47,1.55-1.26.04-.14.05-.29.05-.46v-1.01Z"/>
    <path d="M117.69,135.45c0,2.15-1.49,3.08-2.89,3.08-1.57,0-2.78-1.15-2.78-2.99,0-1.94,1.27-3.08,2.88-3.08s2.79,1.21,2.79,2.99ZM113.09,135.51c0,1.27.73,2.23,1.76,2.23s1.76-.95,1.76-2.25c0-.98-.49-2.23-1.74-2.23s-1.79,1.15-1.79,2.25Z"/>
  </g>
  <path d="M120.3,130.93v1.67h1.51v.8h-1.51v3.13c0,.72.2,1.13.79,1.13.28,0,.48-.04.61-.07l.05.79c-.2.08-.53.14-.94.14-.49,0-.89-.16-1.14-.44-.3-.31-.41-.83-.41-1.51v-3.17h-.9v-.8h.9v-1.39l1.03-.28Z"/>
  <path d="M123.53,135.69c.02,1.43.94,2.02,1.99,2.02.76,0,1.21-.13,1.61-.3l.18.75c-.37.17-1.01.36-1.93.36-1.79,0-2.85-1.18-2.85-2.93s1.03-3.13,2.72-3.13c1.9,0,2.4,1.67,2.4,2.73,0,.22-.02.38-.04.49h-4.08ZM126.62,134.94c.01-.67-.28-1.72-1.46-1.72-1.07,0-1.54.98-1.62,1.72h3.08Z"/>
  <path d="M128.57,137.78c0-.44.3-.75.72-.75s.71.31.71.75-.28.76-.72.76c-.42,0-.71-.32-.71-.76Z"/>
  <path class="cls-3" d="M143,108.84c1.72.87,4.12,2.23,6.74,4.22,3.32,2.52,5.18,3.97,5.16,5.82-.03,2.61-3.81,3.14-3.83,5.36-.03,2.7,5.51,5.08,9.68,6.62"/>
  <polygon points="156.9 133.42 159.58 130.42 159.28 126.41 166.41 132.73 156.9 133.42"/>
  <rect class="cls-1" x="15.26" y="-2.53" width="318" height="165"/>
  <path d="M164.96,56.83c.85-.13,1.86-.22,2.96-.22,2,0,3.43.46,4.37,1.34.96.88,1.52,2.13,1.52,3.87s-.54,3.2-1.55,4.19c-1.01,1.01-2.67,1.55-4.77,1.55-.99,0-1.82-.05-2.53-.13v-10.61ZM166.36,66.37c.35.06.86.08,1.41.08,2.98,0,4.59-1.66,4.59-4.58.02-2.55-1.42-4.16-4.37-4.16-.72,0-1.26.06-1.63.14v8.52Z"/>
  <path d="M176.42,63.86c.03,1.9,1.25,2.69,2.66,2.69,1.01,0,1.62-.18,2.14-.4l.24,1.01c-.5.22-1.34.48-2.58.48-2.38,0-3.81-1.57-3.81-3.91s1.38-4.18,3.63-4.18c2.53,0,3.2,2.23,3.2,3.65,0,.29-.03.51-.05.66h-5.44ZM180.55,62.85c.02-.9-.37-2.29-1.95-2.29-1.42,0-2.05,1.31-2.16,2.29h4.11Z"/>
  <path d="M189.17,67.19c-.37.19-1.18.45-2.22.45-2.34,0-3.86-1.58-3.86-3.95s1.63-4.11,4.16-4.11c.83,0,1.57.21,1.95.4l-.32,1.09c-.34-.19-.86-.37-1.63-.37-1.78,0-2.74,1.31-2.74,2.93,0,1.79,1.15,2.9,2.69,2.9.8,0,1.33-.21,1.73-.38l.24,1.06Z"/>
  <g>
    <path d="M197.75,63.54c0,2.87-1.99,4.11-3.86,4.11-2.1,0-3.71-1.54-3.71-3.99,0-2.59,1.7-4.11,3.84-4.11s3.73,1.62,3.73,3.99ZM191.61,63.62c0,1.7.98,2.98,2.35,2.98s2.35-1.26,2.35-3.01c0-1.31-.66-2.98-2.32-2.98s-2.38,1.54-2.38,3.01Z"/>
    <path d="M206.22,56.11v9.36c0,.69.02,1.47.06,2h-1.26l-.06-1.34h-.03c-.43.86-1.38,1.52-2.64,1.52-1.87,0-3.31-1.58-3.31-3.94-.02-2.58,1.58-4.16,3.47-4.16,1.18,0,1.98.56,2.34,1.18h.03v-4.63h1.41ZM204.81,62.88c0-.18-.02-.42-.06-.59-.21-.9-.98-1.63-2.03-1.63-1.46,0-2.32,1.28-2.32,2.99,0,1.57.77,2.87,2.29,2.87.95,0,1.81-.62,2.07-1.68.05-.19.06-.38.06-.61v-1.34Z"/>
    <path d="M209.33,63.86c.03,1.9,1.25,2.69,2.66,2.69,1.01,0,1.62-.18,2.14-.4l.24,1.01c-.5.22-1.34.48-2.58.48-2.38,0-3.81-1.57-3.81-3.91s1.38-4.18,3.63-4.18c2.53,0,3.2,2.23,3.2,3.65,0,.29-.03.51-.05.66h-5.44ZM213.46,62.85c.02-.9-.37-2.29-1.95-2.29-1.42,0-2.05,1.31-2.16,2.29h4.11Z"/>
    <path d="M216.57,62.15c0-.91-.02-1.7-.06-2.42h1.23l.05,1.52h.06c.35-1.04,1.2-1.7,2.14-1.7.16,0,.27.02.4.05v1.33c-.14-.03-.29-.05-.48-.05-.99,0-1.7.75-1.89,1.81-.03.19-.06.42-.06.66v4.13h-1.39v-5.33Z"/>
  </g>
  <rect class="cls-1" x="15.26" y="-2.53" width="318" height="165"/>
</svg>