<?xml version="1.0" encoding="UTF-8"?>
<svg id="Layer_1" xmlns="http://www.w3.org/2000/svg" xmlns:xlink="http://www.w3.org/1999/xlink" viewBox="0 0 837.68 205">
  <defs>
    <style>
      .cls-1, .cls-2, .cls-3, .cls-4, .cls-5, .cls-6, .cls-7 {
        fill: none;
      }

      .cls-8 {
        fill: #6800da;
      }

      .cls-2 {
        stroke-dasharray: 4 4;
      }

      .cls-2, .cls-3, .cls-4, .cls-5, .cls-6 {
        stroke: #000;
        stroke-miterlimit: 10;
      }

      .cls-2, .cls-5 {
        stroke-width: .5px;
      }

      .cls-9 {
        fill: url(#Unnamed_Pattern);
      }

      .cls-10 {
        fill: #55c667;
      }

      .cls-11 {
        fill: #b8de29;
      }

      .cls-12 {
        fill: #fff;
      }

      .cls-3 {
        stroke-dasharray: 3.9 3.9;
      }

      .cls-4 {
        stroke-dasharray: 3.95 3.95;
      }

      .cls-13 {
        fill: #29af7f;
      }

      .cls-14 {
        fill: #006eff;
      }

      .cls-15 {
        opacity: .5;
      }

      .cls-16 {
        opacity: .2;
      }

      .cls-17 {
        opacity: .3;
      }

      .cls-7 {
        stroke: #231f20;
        stroke-linejoin: round;
        stroke-width: .3px;
      }

      .cls-18 {
        fill: #fde725;
      }

      .cls-19 {
        fill: #73d055;
      }

      .cls-20 {
        clip-path: url(#clippath);
      }
    </style>
    <clipPath id="clippath">
      <rect class="cls-1" y="0" width="72" height="72"/>
    </clipPath>
    <pattern id="Unnamed_Pattern" data-name="Unnamed Pattern" x="0" y="0" width="72" height="72" patternTransform="translate(-202.06 346.65) scale(1 -1)" patternUnits="userSpaceOnUse" viewBox="0 0 72 72">
      <g>
        <rect class="cls-1" y="0" width="72" height="72"/>
        <g class="cls-20">
          <line class="cls-7" x1="64.52" y1="-10.52" x2="82.52" y2="7.48"/>
          <line class="cls-7" x1="64.52" y1="-16.52" x2="88.52" y2="7.48"/>
          <line class="cls-7" x1="64.52" y1="-22.52" x2="94.52" y2="7.48"/>
          <line class="cls-7" x1="64.52" y1="-28.52" x2="100.52" y2="7.48"/>
          <line class="cls-7" x1="64.52" y1="-34.52" x2="106.52" y2="7.48"/>
          <line class="cls-7" x1="64.52" y1="-40.52" x2="112.52" y2="7.48"/>
          <line class="cls-7" x1="64.52" y1="-46.52" x2="118.52" y2="7.48"/>
          <line class="cls-7" x1="64.52" y1="-52.52" x2="124.52" y2="7.48"/>
          <line class="cls-7" x1="64.52" y1="-58.52" x2="130.52" y2="7.48"/>
          <line class="cls-7" x1="64.52" y1="-64.52" x2="136.52" y2="7.48"/>
          <line class="cls-7" x1="64.52" y1="-70.52" x2="142.52" y2="7.48"/>
          <line class="cls-7" x1="64.52" y1="-76.51" x2="148.52" y2="7.48"/>
          <line class="cls-7" x1="70.52" y1="-76.51" x2="148.52" y2="1.48"/>
          <line class="cls-7" x1="-7.48" y1="-10.52" x2="10.52" y2="7.48"/>
          <line class="cls-7" x1="-7.48" y1="-16.52" x2="16.52" y2="7.48"/>
          <line class="cls-7" x1="-7.48" y1="-22.52" x2="22.52" y2="7.48"/>
          <line class="cls-7" x1="-7.48" y1="-28.52" x2="28.52" y2="7.48"/>
          <line class="cls-7" x1="-7.48" y1="-34.52" x2="34.52" y2="7.48"/>
          <line class="cls-7" x1="-7.48" y1="-40.52" x2="40.52" y2="7.48"/>
          <line class="cls-7" x1="-7.48" y1="-46.52" x2="46.52" y2="7.48"/>
          <line class="cls-7" x1="-7.48" y1="-52.52" x2="52.52" y2="7.48"/>
          <line class="cls-7" x1="-7.48" y1="-58.52" x2="58.52" y2="7.48"/>
          <line class="cls-7" x1="-7.48" y1="-64.52" x2="64.52" y2="7.48"/>
          <line class="cls-7" x1="-7.48" y1="-70.52" x2="70.52" y2="7.48"/>
          <line class="cls-7" x1="-7.48" y1="-76.51" x2="76.52" y2="7.48"/>
          <line class="cls-7" x1="-1.48" y1="-76.51" x2="76.52" y2="1.48"/>
          <line class="cls-7" x1="-79.48" y1="-76.51" x2="4.52" y2="7.48"/>
          <line class="cls-7" x1="-73.48" y1="-76.51" x2="4.52" y2="1.48"/>
          <line class="cls-7" x1="64.52" y1="61.48" x2="82.52" y2="79.48"/>
          <line class="cls-7" x1="64.52" y1="55.48" x2="88.52" y2="79.48"/>
          <line class="cls-7" x1="64.52" y1="49.48" x2="94.52" y2="79.48"/>
          <line class="cls-7" x1="64.52" y1="43.48" x2="100.52" y2="79.48"/>
          <line class="cls-7" x1="64.52" y1="37.48" x2="106.52" y2="79.48"/>
          <line class="cls-7" x1="64.52" y1="31.48" x2="112.52" y2="79.48"/>
          <line class="cls-7" x1="64.52" y1="25.48" x2="118.52" y2="79.48"/>
          <line class="cls-7" x1="64.52" y1="19.48" x2="124.52" y2="79.48"/>
          <line class="cls-7" x1="64.52" y1="13.48" x2="130.52" y2="79.48"/>
          <line class="cls-7" x1="64.52" y1="7.48" x2="136.52" y2="79.48"/>
          <line class="cls-7" x1="64.52" y1="1.48" x2="142.52" y2="79.48"/>
          <line class="cls-7" x1="64.52" y1="-4.51" x2="148.52" y2="79.48"/>
          <line class="cls-7" x1="70.52" y1="-4.51" x2="148.52" y2="73.48"/>
          <line class="cls-7" x1="-7.48" y1="61.48" x2="10.52" y2="79.48"/>
          <line class="cls-7" x1="-7.48" y1="55.48" x2="16.52" y2="79.48"/>
          <line class="cls-7" x1="-7.48" y1="49.48" x2="22.52" y2="79.48"/>
          <line class="cls-7" x1="-7.48" y1="43.48" x2="28.52" y2="79.48"/>
          <line class="cls-7" x1="-7.48" y1="37.48" x2="34.52" y2="79.48"/>
          <line class="cls-7" x1="-7.48" y1="31.48" x2="40.52" y2="79.48"/>
          <line class="cls-7" x1="-7.48" y1="25.48" x2="46.52" y2="79.48"/>
          <line class="cls-7" x1="-7.48" y1="19.48" x2="52.52" y2="79.48"/>
          <line class="cls-7" x1="-7.48" y1="13.48" x2="58.52" y2="79.48"/>
          <line class="cls-7" x1="-7.48" y1="7.48" x2="64.52" y2="79.48"/>
          <line class="cls-7" x1="-7.48" y1="1.48" x2="70.52" y2="79.48"/>
          <line class="cls-7" x1="-7.48" y1="-4.51" x2="76.52" y2="79.48"/>
          <line class="cls-7" x1="-1.48" y1="-4.51" x2="76.52" y2="73.48"/>
          <line class="cls-7" x1="4.52" y1="-4.51" x2="76.52" y2="67.48"/>
          <line class="cls-7" x1="10.52" y1="-4.51" x2="76.52" y2="61.48"/>
          <line class="cls-7" x1="16.52" y1="-4.51" x2="76.52" y2="55.48"/>
          <line class="cls-7" x1="22.52" y1="-4.51" x2="76.52" y2="49.48"/>
          <line class="cls-7" x1="28.52" y1="-4.51" x2="76.52" y2="43.48"/>
          <line class="cls-7" x1="34.52" y1="-4.51" x2="76.52" y2="37.48"/>
          <line class="cls-7" x1="40.52" y1="-4.51" x2="76.52" y2="31.48"/>
          <line class="cls-7" x1="46.52" y1="-4.51" x2="76.52" y2="25.48"/>
          <line class="cls-7" x1="52.52" y1="-4.51" x2="76.52" y2="19.48"/>
          <line class="cls-7" x1="58.52" y1="-4.51" x2="76.52" y2="13.48"/>
          <line class="cls-7" x1="64.52" y1="-4.51" x2="76.52" y2="7.48"/>
          <line class="cls-7" x1="-79.48" y1="-4.51" x2="4.52" y2="79.48"/>
          <line class="cls-7" x1="-73.48" y1="-4.51" x2="4.52" y2="73.48"/>
          <line class="cls-7" x1="-67.48" y1="-4.51" x2="4.52" y2="67.48"/>
          <line class="cls-7" x1="-61.48" y1="-4.51" x2="4.52" y2="61.48"/>
          <line class="cls-7" x1="-55.48" y1="-4.51" x2="4.52" y2="55.48"/>
          <line class="cls-7" x1="-49.48" y1="-4.51" x2="4.52" y2="49.48"/>
          <line class="cls-7" x1="-43.48" y1="-4.51" x2="4.52" y2="43.48"/>
          <line class="cls-7" x1="-37.48" y1="-4.51" x2="4.52" y2="37.48"/>
          <line class="cls-7" x1="-31.48" y1="-4.51" x2="4.52" y2="31.48"/>
          <line class="cls-7" x1="-25.48" y1="-4.51" x2="4.52" y2="25.48"/>
          <line class="cls-7" x1="-19.48" y1="-4.51" x2="4.52" y2="19.48"/>
          <line class="cls-7" x1="-13.48" y1="-4.51" x2="4.52" y2="13.48"/>
          <line class="cls-7" x1="-7.48" y1="-4.51" x2="4.52" y2="7.48"/>
          <line class="cls-7" x1="64.52" y1="67.49" x2="148.52" y2="151.48"/>
          <line class="cls-7" x1="70.52" y1="67.49" x2="148.52" y2="145.48"/>
          <line class="cls-7" x1="-7.48" y1="67.49" x2="76.52" y2="151.48"/>
          <line class="cls-7" x1="-1.48" y1="67.49" x2="76.52" y2="145.48"/>
          <line class="cls-7" x1="4.52" y1="67.49" x2="76.52" y2="139.48"/>
          <line class="cls-7" x1="10.52" y1="67.49" x2="76.52" y2="133.48"/>
          <line class="cls-7" x1="16.52" y1="67.49" x2="76.52" y2="127.48"/>
          <line class="cls-7" x1="22.52" y1="67.49" x2="76.52" y2="121.48"/>
          <line class="cls-7" x1="28.52" y1="67.49" x2="76.52" y2="115.48"/>
          <line class="cls-7" x1="34.52" y1="67.49" x2="76.52" y2="109.48"/>
          <line class="cls-7" x1="40.52" y1="67.49" x2="76.52" y2="103.48"/>
          <line class="cls-7" x1="46.52" y1="67.49" x2="76.52" y2="97.48"/>
          <line class="cls-7" x1="52.52" y1="67.49" x2="76.52" y2="91.48"/>
          <line class="cls-7" x1="58.52" y1="67.49" x2="76.52" y2="85.48"/>
          <line class="cls-7" x1="64.52" y1="67.49" x2="76.52" y2="79.48"/>
          <line class="cls-7" x1="-79.48" y1="67.49" x2="4.52" y2="151.48"/>
          <line class="cls-7" x1="-73.48" y1="67.49" x2="4.52" y2="145.48"/>
          <line class="cls-7" x1="-67.48" y1="67.49" x2="4.52" y2="139.48"/>
          <line class="cls-7" x1="-61.48" y1="67.49" x2="4.52" y2="133.48"/>
          <line class="cls-7" x1="-55.48" y1="67.49" x2="4.52" y2="127.48"/>
          <line class="cls-7" x1="-49.48" y1="67.49" x2="4.52" y2="121.48"/>
          <line class="cls-7" x1="-43.48" y1="67.49" x2="4.52" y2="115.48"/>
          <line class="cls-7" x1="-37.48" y1="67.49" x2="4.52" y2="109.48"/>
          <line class="cls-7" x1="-31.48" y1="67.49" x2="4.52" y2="103.48"/>
          <line class="cls-7" x1="-25.48" y1="67.49" x2="4.52" y2="97.48"/>
          <line class="cls-7" x1="-19.48" y1="67.49" x2="4.52" y2="91.48"/>
          <line class="cls-7" x1="-13.48" y1="67.49" x2="4.52" y2="85.48"/>
          <line class="cls-7" x1="-7.48" y1="67.49" x2="4.52" y2="79.48"/>
        </g>
      </g>
    </pattern>
  </defs>
  <path class="cls-19" d="M645.37,174.1h-39.33c-2.95,0-5.34-2.39-5.34-5.34v-8.33c0-2.95,2.39-5.34,5.34-5.34h39.33c2.95,0,5.34,2.39,5.34,5.34v8.33c0,2.95-2.39,5.34-5.34,5.34"/>
  <path class="cls-19" d="M465.54,126h-204.73c-3.94,0-7.13-3.19-7.13-7.14v-4.73c0-3.94,3.19-7.14,7.13-7.14h204.73c3.94,0,7.14,3.19,7.14,7.14v4.73c0,3.94-3.2,7.14-7.14,7.14"/>
  <path d="M467.66,54c4.97,0,9.01,4.04,9.01,9.01v105.97c0,4.97-4.04,9.01-9.01,9.01h-208.97c-4.97,0-9.01-4.04-9.01-9.01V63.01c0-4.97,4.04-9.01,9.01-9.01h208.97ZM467.66,53h-208.97c-5.53,0-10.01,4.48-10.01,10.01v105.97c0,5.53,4.48,10.01,10.01,10.01h208.97c5.53,0,10.01-4.48,10.01-10.01V63.01c0-5.53-4.48-10.01-10.01-10.01"/>
  <path class="cls-12" d="M482.17,116c7.42.91,17.91,2.57,30,5.78,15.29,4.07,23.93,6.45,26,11.57,2.92,7.23-10.51,11.95-8,18.07,3.66,8.92,36.41,9.69,53,10.12,5.72.15,10.53.09,14,0"/>
  <path class="cls-6" d="M482.17,116c7.42.91,17.91,2.57,30,5.78,15.29,4.07,23.93,6.45,26,11.57,2.92,7.23-10.51,11.95-8,18.07,3.66,8.92,36.41,9.69,53,10.12,2.94.08,5.63.1,8.03.09"/>
  <polygon points="588.39 165.24 589.97 161.54 588.39 157.83 597.17 161.54 588.39 165.24"/>
  <g class="cls-15">
    <line class="cls-2" x1="492.28" y1="1.5" x2="492.28" y2="203.5"/>
    <rect class="cls-1" x="492.03" y="1.5" width=".5" height="202"/>
    <rect class="cls-1" x="492.03" y="1.5" width=".5" height="202"/>
  </g>
  <path d="M64.96,23.99c-.96.48-2.88.96-5.34.96-5.7,0-9.99-3.6-9.99-10.23s4.29-10.62,10.56-10.62c2.52,0,4.11.54,4.8.9l-.63,2.13c-.99-.48-2.4-.84-4.08-.84-4.74,0-7.89,3.03-7.89,8.34,0,4.95,2.85,8.13,7.77,8.13,1.59,0,3.21-.33,4.26-.84l.54,2.07Z"/>
  <path d="M79.96,20.69c0,1.5.03,2.82.12,3.96h-2.34l-.15-2.37h-.06c-.69,1.17-2.22,2.7-4.8,2.7-2.28,0-5.01-1.26-5.01-6.36v-8.49h2.64v8.04c0,2.76.84,4.62,3.24,4.62,1.77,0,3-1.23,3.48-2.4.15-.39.24-.87.24-1.35v-8.91h2.64v10.56Z"/>
  <path d="M84.34,14.66c0-1.71-.03-3.18-.12-4.53h2.31l.09,2.85h.12c.66-1.95,2.25-3.18,4.02-3.18.3,0,.51.03.75.09v2.49c-.27-.06-.54-.09-.9-.09-1.86,0-3.18,1.41-3.54,3.39-.06.36-.12.78-.12,1.23v7.74h-2.61v-9.99Z"/>
  <path d="M102.07,24.65l-.21-1.83h-.09c-.81,1.14-2.37,2.16-4.44,2.16-2.94,0-4.44-2.07-4.44-4.17,0-3.51,3.12-5.43,8.73-5.4v-.3c0-1.2-.33-3.36-3.3-3.36-1.35,0-2.76.42-3.78,1.08l-.6-1.74c1.2-.78,2.94-1.29,4.77-1.29,4.44,0,5.52,3.03,5.52,5.94v5.43c0,1.26.06,2.49.24,3.48h-2.4ZM101.68,17.24c-2.88-.06-6.15.45-6.15,3.27,0,1.71,1.14,2.52,2.49,2.52,1.89,0,3.09-1.2,3.51-2.43.09-.27.15-.57.15-.84v-2.52Z"/>
  <g>
    <path d="M111.55,5.96v4.17h3.78v2.01h-3.78v7.83c0,1.8.51,2.82,1.98,2.82.69,0,1.2-.09,1.53-.18l.12,1.98c-.51.21-1.32.36-2.34.36-1.23,0-2.22-.39-2.85-1.11-.75-.78-1.02-2.07-1.02-3.78v-7.92h-2.25v-2.01h2.25v-3.48l2.58-.69Z"/>
    <path d="M121.24,6.05c.03.9-.63,1.62-1.68,1.62-.93,0-1.59-.72-1.59-1.62s.69-1.65,1.65-1.65,1.62.72,1.62,1.65ZM118.3,24.65v-14.52h2.64v14.52h-2.64Z"/>
    <path d="M125.32,14.06c0-1.5-.03-2.73-.12-3.93h2.34l.15,2.4h.06c.72-1.38,2.4-2.73,4.8-2.73,2.01,0,5.13,1.2,5.13,6.18v8.67h-2.64v-8.37c0-2.34-.87-4.29-3.36-4.29-1.74,0-3.09,1.23-3.54,2.7-.12.33-.18.78-.18,1.23v8.73h-2.64v-10.59Z"/>
    <path d="M154.48,10.13c-.06,1.05-.12,2.22-.12,3.99v8.43c0,3.33-.66,5.37-2.07,6.63-1.41,1.32-3.45,1.74-5.28,1.74s-3.66-.42-4.83-1.2l.66-2.01c.96.6,2.46,1.14,4.26,1.14,2.7,0,4.68-1.41,4.68-5.07v-1.62h-.06c-.81,1.35-2.37,2.43-4.62,2.43-3.6,0-6.18-3.06-6.18-7.08,0-4.92,3.21-7.71,6.54-7.71,2.52,0,3.9,1.32,4.53,2.52h.06l.12-2.19h2.31ZM151.75,15.86c0-.45-.03-.84-.15-1.2-.48-1.53-1.77-2.79-3.69-2.79-2.52,0-4.32,2.13-4.32,5.49,0,2.85,1.44,5.22,4.29,5.22,1.62,0,3.09-1.02,3.66-2.7.15-.45.21-.96.21-1.41v-2.61Z"/>
    <path d="M165.19,4.43h2.61v18.03h8.64v2.19h-11.25V4.43Z"/>
  </g>
  <path d="M187.3,24.65l-.21-1.83h-.09c-.81,1.14-2.37,2.16-4.44,2.16-2.94,0-4.44-2.07-4.44-4.17,0-3.51,3.12-5.43,8.73-5.4v-.3c0-1.2-.33-3.36-3.3-3.36-1.35,0-2.76.42-3.78,1.08l-.6-1.74c1.2-.78,2.94-1.29,4.77-1.29,4.44,0,5.52,3.03,5.52,5.94v5.43c0,1.26.06,2.49.24,3.48h-2.4ZM186.91,17.24c-2.88-.06-6.15.45-6.15,3.27,0,1.71,1.14,2.52,2.49,2.52,1.89,0,3.09-1.2,3.51-2.43.09-.27.15-.57.15-.84v-2.52Z"/>
  <path d="M196.78,5.96v4.17h3.78v2.01h-3.78v7.83c0,1.8.51,2.82,1.98,2.82.69,0,1.2-.09,1.53-.18l.12,1.98c-.51.21-1.32.36-2.34.36-1.23,0-2.22-.39-2.85-1.11-.75-.78-1.02-2.07-1.02-3.78v-7.92h-2.25v-2.01h2.25v-3.48l2.58-.69Z"/>
  <path d="M204.82,17.87c.06,3.57,2.34,5.04,4.98,5.04,1.89,0,3.03-.33,4.02-.75l.45,1.89c-.93.42-2.52.9-4.83.9-4.47,0-7.14-2.94-7.14-7.32s2.58-7.83,6.81-7.83c4.74,0,6,4.17,6,6.84,0,.54-.06.96-.09,1.23h-10.2ZM212.56,15.98c.03-1.68-.69-4.29-3.66-4.29-2.67,0-3.84,2.46-4.05,4.29h7.71Z"/>
  <path d="M218.38,14.06c0-1.5-.03-2.73-.12-3.93h2.34l.15,2.4h.06c.72-1.38,2.4-2.73,4.8-2.73,2.01,0,5.13,1.2,5.13,6.18v8.67h-2.64v-8.37c0-2.34-.87-4.29-3.36-4.29-1.74,0-3.09,1.23-3.54,2.7-.12.33-.18.78-.18,1.23v8.73h-2.64v-10.59Z"/>
  <path d="M238.12,5.96v4.17h3.78v2.01h-3.78v7.83c0,1.8.51,2.82,1.98,2.82.69,0,1.2-.09,1.53-.18l.12,1.98c-.51.21-1.32.36-2.34.36-1.23,0-2.22-.39-2.85-1.11-.75-.78-1.02-2.07-1.02-3.78v-7.92h-2.25v-2.01h2.25v-3.48l2.58-.69Z"/>
  <path d="M261.64,27.62c-2.73-.72-5.4-1.53-7.74-2.34-.42-.15-.84-.3-1.23-.3-4.8-.18-8.91-3.72-8.91-10.23s3.96-10.65,9.42-10.65,9.06,4.26,9.06,10.23c0,5.19-2.4,8.52-5.76,9.69v.12c2.01.51,4.2.99,5.91,1.29l-.75,2.19ZM259.48,14.45c0-4.05-2.1-8.22-6.39-8.22s-6.57,4.08-6.54,8.46c-.03,4.29,2.34,8.16,6.42,8.16s6.51-3.78,6.51-8.4Z"/>
  <g>
    <path d="M268.51,18.29l-2.1,6.36h-2.7l6.87-20.22h3.15l6.9,20.22h-2.79l-2.16-6.36h-7.17ZM275.14,16.25l-1.98-5.82c-.45-1.32-.75-2.52-1.05-3.69h-.06c-.3,1.2-.63,2.43-1.02,3.66l-1.98,5.85h6.09Z"/>
    <path d="M289.96,4.7c1.59-.24,3.48-.42,5.55-.42,3.75,0,6.42.87,8.19,2.52,1.8,1.65,2.85,3.99,2.85,7.26s-1.02,6-2.91,7.86c-1.89,1.89-5.01,2.91-8.94,2.91-1.86,0-3.42-.09-4.74-.24V4.7ZM292.57,22.58c.66.12,1.62.15,2.64.15,5.58,0,8.61-3.12,8.61-8.58.03-4.77-2.67-7.8-8.19-7.8-1.35,0-2.37.12-3.06.27v15.96Z"/>
  </g>
  <path d="M317.89,24.65l-.21-1.83h-.09c-.81,1.14-2.37,2.16-4.44,2.16-2.94,0-4.44-2.07-4.44-4.17,0-3.51,3.12-5.43,8.73-5.4v-.3c0-1.2-.33-3.36-3.3-3.36-1.35,0-2.76.42-3.78,1.08l-.6-1.74c1.2-.78,2.94-1.29,4.77-1.29,4.44,0,5.52,3.03,5.52,5.94v5.43c0,1.26.06,2.49.24,3.48h-2.4ZM317.5,17.24c-2.88-.06-6.15.45-6.15,3.27,0,1.71,1.14,2.52,2.49,2.52,1.89,0,3.09-1.2,3.51-2.43.09-.27.15-.57.15-.84v-2.52Z"/>
  <g>
    <path d="M327.4,5.96v4.17h3.78v2.01h-3.78v7.83c0,1.8.51,2.82,1.98,2.82.69,0,1.2-.09,1.53-.18l.12,1.98c-.51.21-1.32.36-2.34.36-1.23,0-2.22-.39-2.85-1.11-.75-.78-1.02-2.07-1.02-3.78v-7.92h-2.25v-2.01h2.25v-3.48l2.58-.69Z"/>
    <path d="M342.19,24.65l-.21-1.83h-.09c-.81,1.14-2.37,2.16-4.44,2.16-2.94,0-4.44-2.07-4.44-4.17,0-3.51,3.12-5.43,8.73-5.4v-.3c0-1.2-.33-3.36-3.3-3.36-1.35,0-2.76.42-3.78,1.08l-.6-1.74c1.2-.78,2.94-1.29,4.77-1.29,4.44,0,5.52,3.03,5.52,5.94v5.43c0,1.26.06,2.49.24,3.48h-2.4ZM341.8,17.24c-2.88-.06-6.15.45-6.15,3.27,0,1.71,1.14,2.52,2.49,2.52,1.89,0,3.09-1.2,3.51-2.43.09-.27.15-.57.15-.84v-2.52Z"/>
    <path d="M356.02,10.13l1.92,7.38c.42,1.62.81,3.12,1.08,4.62h.09c.33-1.47.81-3.03,1.29-4.59l2.37-7.41h2.22l2.25,7.26c.54,1.74.96,3.27,1.29,4.74h.09c.24-1.47.63-3,1.11-4.71l2.07-7.29h2.61l-4.68,14.52h-2.4l-2.22-6.93c-.51-1.62-.93-3.06-1.29-4.77h-.06c-.36,1.74-.81,3.24-1.32,4.8l-2.34,6.9h-2.4l-4.38-14.52h2.7Z"/>
    <path d="M379.99,6.05c.03.9-.63,1.62-1.68,1.62-.93,0-1.59-.72-1.59-1.62s.69-1.65,1.65-1.65,1.62.72,1.62,1.65ZM377.05,24.65v-14.52h2.64v14.52h-2.64Z"/>
    <path d="M387.25,5.96v4.17h3.78v2.01h-3.78v7.83c0,1.8.51,2.82,1.98,2.82.69,0,1.2-.09,1.53-.18l.12,1.98c-.51.21-1.32.36-2.34.36-1.23,0-2.22-.39-2.85-1.11-.75-.78-1.02-2.07-1.02-3.78v-7.92h-2.25v-2.01h2.25v-3.48l2.58-.69Z"/>
    <path d="M394,3.35h2.64v9.06h.06c.42-.75,1.08-1.41,1.89-1.86.78-.45,1.71-.75,2.7-.75,1.95,0,5.07,1.2,5.07,6.21v8.64h-2.64v-8.34c0-2.34-.87-4.32-3.36-4.32-1.71,0-3.06,1.2-3.54,2.64-.15.36-.18.75-.18,1.26v8.76h-2.64V3.35Z"/>
    <path d="M432.49,23.75c-1.17.42-3.48,1.11-6.21,1.11-3.06,0-5.58-.78-7.56-2.67-1.74-1.68-2.82-4.38-2.82-7.53.03-6.03,4.17-10.44,10.95-10.44,2.34,0,4.17.51,5.04.93l-.63,2.13c-1.08-.48-2.43-.87-4.47-.87-4.92,0-8.13,3.06-8.13,8.13s3.09,8.16,7.8,8.16c1.71,0,2.88-.24,3.48-.54v-6.03h-4.11v-2.1h6.66v9.72Z"/>
    <path d="M436.48,4.67c1.26-.21,2.91-.39,5.01-.39,2.58,0,4.47.6,5.67,1.68,1.11.96,1.77,2.43,1.77,4.23s-.54,3.27-1.56,4.32c-1.38,1.47-3.63,2.22-6.18,2.22-.78,0-1.5-.03-2.1-.18v8.1h-2.61V4.67ZM439.09,14.42c.57.15,1.29.21,2.16.21,3.15,0,5.07-1.53,5.07-4.32s-1.89-3.96-4.77-3.96c-1.14,0-2.01.09-2.46.21v7.86Z"/>
    <path d="M456.28,6.65h-6.15v-2.22h14.97v2.22h-6.18v18h-2.64V6.65Z"/>
  </g>
  <g class="cls-16">
    <path class="cls-13" d="M465.54,174h-204.73c-3.94,0-7.13-3.19-7.13-7.14v-4.73c0-3.94,3.19-7.14,7.13-7.14h204.73c3.94,0,7.14,3.19,7.14,7.14v4.73c0,3.94-3.2,7.14-7.14,7.14"/>
    <rect class="cls-1" x="253.67" y="155" width="219" height="19"/>
    <rect class="cls-1" x="253.67" y="155" width="219" height="19"/>
  </g>
  <rect class="cls-1" width="837.68" height="205"/>
  <g>
    <path class="cls-14" d="M258.19,186.53c.61-.13,1.57-.22,2.55-.22,1.39,0,2.29.24,2.96.78.56.42.9,1.06.9,1.9,0,1.04-.69,1.95-1.82,2.37v.03c1.02.26,2.22,1.1,2.22,2.71,0,.93-.37,1.63-.91,2.16-.75.69-1.97,1.01-3.73,1.01-.96,0-1.7-.06-2.16-.13v-10.61ZM259.58,190.95h1.26c1.47,0,2.34-.77,2.34-1.81,0-1.26-.96-1.76-2.37-1.76-.64,0-1.01.05-1.23.1v3.47ZM259.58,196.12c.27.05.67.06,1.17.06,1.44,0,2.77-.53,2.77-2.1,0-1.47-1.26-2.08-2.79-2.08h-1.15v4.11Z"/>
    <path class="cls-14" d="M267.59,193.56c.03,1.9,1.25,2.69,2.66,2.69,1.01,0,1.62-.18,2.15-.4l.24,1.01c-.5.22-1.34.48-2.58.48-2.39,0-3.81-1.57-3.81-3.91s1.38-4.18,3.63-4.18c2.53,0,3.2,2.22,3.2,3.65,0,.29-.03.51-.05.66h-5.44ZM271.72,192.55c.02-.9-.37-2.29-1.95-2.29-1.42,0-2.05,1.31-2.16,2.29h4.11Z"/>
    <path class="cls-14" d="M282.51,197.17l-.11-.98h-.05c-.43.61-1.26,1.15-2.37,1.15-1.57,0-2.37-1.1-2.37-2.22,0-1.87,1.67-2.9,4.66-2.88v-.16c0-.64-.18-1.79-1.76-1.79-.72,0-1.47.22-2.02.58l-.32-.93c.64-.42,1.57-.69,2.54-.69,2.37,0,2.95,1.62,2.95,3.17v2.9c0,.67.03,1.33.13,1.86h-1.28ZM282.3,193.22c-1.54-.03-3.28.24-3.28,1.74,0,.91.61,1.34,1.33,1.34,1.01,0,1.65-.64,1.87-1.3.05-.14.08-.3.08-.45v-1.34Z"/>
    <path class="cls-14" d="M289.32,191.96c0-.99-.03-1.79-.06-2.53h1.26l.06,1.33h.03c.58-.94,1.49-1.5,2.75-1.5,1.87,0,3.28,1.58,3.28,3.94,0,2.79-1.7,4.16-3.52,4.16-1.02,0-1.92-.45-2.38-1.22h-.03v4.21h-1.39v-8.39ZM290.71,194.02c0,.21.03.4.06.58.26.98,1.1,1.65,2.11,1.65,1.49,0,2.35-1.22,2.35-2.99,0-1.55-.82-2.88-2.3-2.88-.96,0-1.86.69-2.13,1.75-.05.18-.1.38-.1.58v1.33Z"/>
    <path class="cls-14" d="M299.99,187.25c.02.48-.34.86-.9.86-.5,0-.85-.38-.85-.86s.37-.88.88-.88.86.38.86.88ZM298.42,197.17v-7.75h1.41v7.75h-1.41Z"/>
    <path class="cls-14" d="M302.17,191.84c0-.91-.02-1.7-.06-2.42h1.23l.05,1.52h.06c.35-1.04,1.2-1.7,2.14-1.7.16,0,.27.02.4.05v1.33c-.14-.03-.29-.05-.48-.05-.99,0-1.7.75-1.89,1.81-.03.19-.06.42-.06.66v4.13h-1.39v-5.33Z"/>
    <path class="cls-14" d="M311.69,197.17l-.11-.98h-.05c-.43.61-1.26,1.15-2.37,1.15-1.57,0-2.37-1.1-2.37-2.22,0-1.87,1.67-2.9,4.66-2.88v-.16c0-.64-.18-1.79-1.76-1.79-.72,0-1.47.22-2.02.58l-.32-.93c.64-.42,1.57-.69,2.54-.69,2.37,0,2.95,1.62,2.95,3.17v2.9c0,.67.03,1.33.13,1.86h-1.28ZM311.48,193.22c-1.54-.03-3.28.24-3.28,1.74,0,.91.61,1.34,1.33,1.34,1.01,0,1.65-.64,1.87-1.3.05-.14.08-.3.08-.45v-1.34Z"/>
    <path class="cls-14" d="M316.81,187.2v2.22h2.02v1.07h-2.02v4.18c0,.96.27,1.5,1.06,1.5.37,0,.64-.05.82-.1l.06,1.06c-.27.11-.7.19-1.25.19-.66,0-1.18-.21-1.52-.59-.4-.42-.54-1.1-.54-2.02v-4.23h-1.2v-1.07h1.2v-1.86l1.38-.37Z"/>
    <path class="cls-14" d="M321.19,193.56c.03,1.9,1.25,2.69,2.66,2.69,1.01,0,1.62-.18,2.15-.4l.24,1.01c-.5.22-1.34.48-2.58.48-2.39,0-3.81-1.57-3.81-3.91s1.38-4.18,3.63-4.18c2.53,0,3.2,2.22,3.2,3.65,0,.29-.03.51-.05.66h-5.44ZM325.32,192.55c.02-.9-.37-2.29-1.95-2.29-1.42,0-2.05,1.31-2.16,2.29h4.11Z"/>
    <path class="cls-14" d="M328.09,196.34c0-.59.4-1.01.96-1.01s.94.42.94,1.01-.37,1.01-.96,1.01c-.56,0-.94-.43-.94-1.01Z"/>
  </g>
  <path class="cls-19" d="M339.16,197.17l-2.74-10.79h1.47l1.28,5.46c.32,1.34.61,2.69.8,3.73h.03c.18-1.07.51-2.35.88-3.75l1.44-5.44h1.46l1.31,5.47c.3,1.28.59,2.56.75,3.7h.03c.22-1.18.53-2.39.86-3.73l1.42-5.44h1.42l-3.06,10.79h-1.46l-1.36-5.62c-.34-1.38-.56-2.43-.7-3.52h-.03c-.19,1.07-.43,2.13-.83,3.52l-1.54,5.62h-1.46Z"/>
  <path class="cls-19" d="M350.83,185.81h1.41v4.83h.03c.22-.4.58-.75,1.01-.99.42-.24.91-.4,1.44-.4,1.04,0,2.71.64,2.71,3.31v4.61h-1.41v-4.45c0-1.25-.46-2.3-1.79-2.3-.91,0-1.63.64-1.89,1.41-.08.19-.1.4-.1.67v4.67h-1.41v-11.36Z"/>
  <path class="cls-19" d="M363.99,197.17l-.11-.98h-.05c-.43.61-1.26,1.15-2.37,1.15-1.57,0-2.37-1.1-2.37-2.22,0-1.87,1.67-2.9,4.66-2.88v-.16c0-.64-.18-1.79-1.76-1.79-.72,0-1.47.22-2.02.58l-.32-.93c.64-.42,1.57-.69,2.54-.69,2.37,0,2.95,1.62,2.95,3.17v2.9c0,.67.03,1.33.13,1.86h-1.28ZM363.79,193.22c-1.54-.03-3.28.24-3.28,1.74,0,.91.61,1.34,1.33,1.34,1.01,0,1.65-.64,1.87-1.3.05-.14.08-.3.08-.45v-1.34Z"/>
  <path class="cls-19" d="M369.05,187.2v2.22h2.02v1.07h-2.02v4.18c0,.96.27,1.5,1.06,1.5.37,0,.64-.05.82-.1l.06,1.06c-.27.11-.7.19-1.25.19-.66,0-1.18-.21-1.52-.59-.4-.42-.54-1.1-.54-2.02v-4.23h-1.2v-1.07h1.2v-1.86l1.38-.37Z"/>
  <path class="cls-19" d="M381.56,196.88c-.37.19-1.18.45-2.23.45-2.34,0-3.86-1.58-3.86-3.95s1.63-4.11,4.16-4.11c.83,0,1.57.21,1.95.4l-.32,1.09c-.34-.19-.86-.37-1.63-.37-1.78,0-2.74,1.31-2.74,2.93,0,1.79,1.15,2.9,2.69,2.9.8,0,1.33-.21,1.73-.38l.24,1.06Z"/>
  <g>
    <path class="cls-19" d="M390.14,193.24c0,2.87-1.98,4.11-3.86,4.11-2.1,0-3.71-1.54-3.71-3.99,0-2.59,1.7-4.11,3.84-4.11s3.73,1.62,3.73,3.99ZM383.99,193.32c0,1.7.98,2.98,2.35,2.98s2.35-1.26,2.35-3.01c0-1.31-.66-2.98-2.32-2.98s-2.39,1.54-2.39,3.01Z"/>
    <path class="cls-19" d="M391.91,185.81h1.41v11.36h-1.41v-11.36Z"/>
    <path class="cls-19" d="M402.7,193.24c0,2.87-1.98,4.11-3.86,4.11-2.1,0-3.71-1.54-3.71-3.99,0-2.59,1.7-4.11,3.84-4.11s3.73,1.62,3.73,3.99ZM396.55,193.32c0,1.7.98,2.98,2.35,2.98s2.35-1.26,2.35-3.01c0-1.31-.66-2.98-2.32-2.98s-2.39,1.54-2.39,3.01Z"/>
    <path class="cls-19" d="M404.47,191.84c0-.91-.02-1.7-.06-2.42h1.23l.05,1.52h.06c.35-1.04,1.2-1.7,2.14-1.7.16,0,.27.02.4.05v1.33c-.14-.03-.29-.05-.48-.05-.99,0-1.7.75-1.89,1.81-.03.19-.06.42-.06.66v4.13h-1.39v-5.33Z"/>
    <path class="cls-19" d="M414.67,187.25c.02.48-.34.86-.9.86-.5,0-.85-.38-.85-.86s.37-.88.88-.88.86.38.86.88ZM413.1,197.17v-7.75h1.41v7.75h-1.41Z"/>
    <path class="cls-19" d="M416.65,195.73c.42.27,1.15.56,1.86.56,1.02,0,1.5-.51,1.5-1.15s-.4-1.04-1.44-1.42c-1.39-.5-2.05-1.26-2.05-2.19,0-1.25,1.01-2.27,2.67-2.27.79,0,1.47.22,1.91.48l-.35,1.02c-.3-.19-.86-.45-1.58-.45-.83,0-1.3.48-1.3,1.06,0,.64.46.93,1.47,1.31,1.34.51,2.03,1.18,2.03,2.34,0,1.36-1.06,2.32-2.9,2.32-.85,0-1.63-.21-2.18-.53l.35-1.07Z"/>
    <path class="cls-19" d="M428.27,187.2v2.22h2.02v1.07h-2.02v4.18c0,.96.27,1.5,1.06,1.5.37,0,.64-.05.82-.1l.06,1.06c-.27.11-.7.19-1.25.19-.66,0-1.18-.21-1.52-.59-.4-.42-.54-1.1-.54-2.02v-4.23h-1.2v-1.07h1.2v-1.86l1.38-.37Z"/>
    <path class="cls-19" d="M431.87,185.81h1.41v4.83h.03c.22-.4.58-.75,1.01-.99.42-.24.91-.4,1.44-.4,1.04,0,2.71.64,2.71,3.31v4.61h-1.41v-4.45c0-1.25-.46-2.3-1.79-2.3-.91,0-1.63.64-1.89,1.41-.08.19-.1.4-.1.67v4.67h-1.41v-11.36Z"/>
    <path class="cls-19" d="M441.53,193.56c.03,1.9,1.25,2.69,2.66,2.69,1.01,0,1.62-.18,2.15-.4l.24,1.01c-.5.22-1.34.48-2.58.48-2.38,0-3.81-1.57-3.81-3.91s1.38-4.18,3.63-4.18c2.53,0,3.2,2.22,3.2,3.65,0,.29-.03.51-.05.66h-5.44ZM445.66,192.55c.02-.9-.37-2.29-1.95-2.29-1.42,0-2.05,1.31-2.16,2.29h4.11Z"/>
    <path class="cls-19" d="M451.96,195.73c.42.27,1.15.56,1.86.56,1.02,0,1.5-.51,1.5-1.15s-.4-1.04-1.44-1.42c-1.39-.5-2.05-1.26-2.05-2.19,0-1.25,1.01-2.27,2.67-2.27.78,0,1.47.22,1.9.48l-.35,1.02c-.3-.19-.86-.45-1.58-.45-.83,0-1.3.48-1.3,1.06,0,.64.46.93,1.47,1.31,1.34.51,2.03,1.18,2.03,2.34,0,1.36-1.06,2.32-2.9,2.32-.85,0-1.63-.21-2.18-.53l.35-1.07Z"/>
  </g>
  <path class="cls-19" d="M459.88,192.98h.03c.19-.27.46-.61.69-.88l2.27-2.67h1.7l-2.99,3.19,3.41,4.56h-1.71l-2.67-3.71-.72.8v2.91h-1.39v-11.36h1.39v7.17Z"/>
  <g>
    <path class="cls-19" d="M466.7,189.43l1.7,4.58c.18.51.37,1.12.5,1.58h.03c.14-.46.3-1.06.5-1.62l1.54-4.55h1.49l-2.11,5.52c-1.01,2.66-1.7,4.02-2.66,4.85-.69.61-1.38.85-1.73.91l-.35-1.18c.35-.11.82-.34,1.23-.69.38-.3.86-.85,1.18-1.57.06-.14.11-.26.11-.34s-.03-.19-.1-.37l-2.86-7.14h1.54Z"/>
    <path class="cls-19" d="M474.81,194.12l-.03-.42c-.1-.86.19-1.81.99-2.77.72-.85,1.12-1.47,1.12-2.19,0-.82-.51-1.36-1.52-1.38-.58,0-1.22.19-1.62.5l-.38-1.01c.53-.38,1.44-.64,2.29-.64,1.84,0,2.67,1.14,2.67,2.35,0,1.09-.61,1.87-1.38,2.79-.7.83-.96,1.54-.91,2.35l.02.42h-1.25ZM474.46,196.36c0-.59.4-1.01.96-1.01s.94.42.94,1.01c0,.56-.37.99-.96.99-.56,0-.95-.43-.95-.99Z"/>
  </g>
  <path class="cls-4" d="M465.87,125.5h-125.56c-3.48,0-6.3-2.39-6.3-5.34v-7.33c0-2.95,2.82-5.34,6.3-5.34h125.56c3.48,0,6.3,2.39,6.3,5.34v7.33c0,2.95-2.82,5.34-6.3,5.34Z"/>
  <rect class="cls-1" width="837.68" height="205"/>
  <g>
    <path class="cls-19" d="M606.33,194.53l-.03-.42c-.1-.86.19-1.81.99-2.77.72-.85,1.12-1.47,1.12-2.19,0-.82-.51-1.36-1.52-1.38-.58,0-1.22.19-1.62.5l-.38-1.01c.53-.38,1.44-.64,2.29-.64,1.84,0,2.67,1.14,2.67,2.35,0,1.09-.61,1.87-1.38,2.79-.7.83-.96,1.54-.91,2.35l.02.42h-1.25ZM605.98,196.77c0-.59.4-1.01.96-1.01s.94.42.94,1.01c0,.56-.37.99-.96.99-.56,0-.95-.43-.95-.99Z"/>
    <path class="cls-19" d="M616.22,194.53l-.03-.42c-.1-.86.19-1.81.99-2.77.72-.85,1.12-1.47,1.12-2.19,0-.82-.51-1.36-1.52-1.38-.58,0-1.22.19-1.62.5l-.38-1.01c.53-.38,1.44-.64,2.29-.64,1.84,0,2.67,1.14,2.67,2.35,0,1.09-.61,1.87-1.38,2.79-.7.83-.96,1.54-.91,2.35l.02.42h-1.25ZM615.87,196.77c0-.59.4-1.01.96-1.01s.94.42.94,1.01c0,.56-.37.99-.96.99-.56,0-.95-.43-.95-.99Z"/>
    <path class="cls-19" d="M626.11,194.53l-.03-.42c-.1-.86.19-1.81.99-2.77.72-.85,1.12-1.47,1.12-2.19,0-.82-.51-1.36-1.52-1.38-.58,0-1.22.19-1.62.5l-.38-1.01c.53-.38,1.44-.64,2.29-.64,1.84,0,2.67,1.14,2.67,2.35,0,1.09-.61,1.87-1.38,2.79-.7.83-.96,1.54-.91,2.35l.02.42h-1.25ZM625.76,196.77c0-.59.4-1.01.96-1.01s.94.42.94,1.01c0,.56-.37.99-.96.99-.56,0-.95-.43-.95-.99Z"/>
    <path class="cls-19" d="M636,194.53l-.03-.42c-.1-.86.19-1.81.99-2.77.72-.85,1.12-1.47,1.12-2.19,0-.82-.51-1.36-1.52-1.38-.58,0-1.22.19-1.62.5l-.38-1.01c.53-.38,1.44-.64,2.29-.64,1.84,0,2.67,1.14,2.67,2.35,0,1.09-.61,1.87-1.38,2.79-.7.83-.96,1.54-.91,2.35l.02.42h-1.25ZM635.64,196.77c0-.59.4-1.01.96-1.01s.94.42.94,1.01c0,.56-.37.99-.96.99-.56,0-.95-.43-.95-.99Z"/>
    <path class="cls-19" d="M645.88,194.53l-.03-.42c-.1-.86.19-1.81.99-2.77.72-.85,1.12-1.47,1.12-2.19,0-.82-.51-1.36-1.52-1.38-.58,0-1.22.19-1.62.5l-.38-1.01c.53-.38,1.44-.64,2.29-.64,1.84,0,2.67,1.14,2.67,2.35,0,1.09-.61,1.87-1.38,2.79-.7.83-.96,1.54-.91,2.35l.02.42h-1.25ZM645.53,196.77c0-.59.4-1.01.96-1.01s.94.42.94,1.01c0,.56-.37.99-.96.99-.56,0-.95-.43-.95-.99Z"/>
  </g>
  <g>
    <path class="cls-8" d="M659.89,197.59l-2.74-10.79h1.47l1.28,5.46c.32,1.34.61,2.69.8,3.73h.03c.18-1.07.51-2.35.88-3.75l1.44-5.44h1.46l1.31,5.47c.3,1.28.59,2.56.75,3.7h.03c.22-1.18.53-2.39.86-3.73l1.42-5.44h1.42l-3.06,10.79h-1.46l-1.36-5.62c-.34-1.38-.56-2.43-.7-3.52h-.03c-.19,1.07-.43,2.13-.83,3.52l-1.54,5.62h-1.46Z"/>
    <path class="cls-8" d="M671.62,186.22h1.41v4.83h.03c.22-.4.58-.75,1.01-.99.42-.24.91-.4,1.44-.4,1.04,0,2.71.64,2.71,3.31v4.61h-1.41v-4.45c0-1.25-.46-2.3-1.79-2.3-.91,0-1.63.64-1.89,1.41-.08.19-.1.4-.1.67v4.67h-1.41v-11.36Z"/>
    <path class="cls-8" d="M684.78,197.59l-.11-.98h-.05c-.43.61-1.26,1.15-2.37,1.15-1.57,0-2.37-1.1-2.37-2.22,0-1.87,1.66-2.9,4.66-2.88v-.16c0-.64-.18-1.79-1.76-1.79-.72,0-1.47.22-2.02.58l-.32-.93c.64-.42,1.57-.69,2.54-.69,2.37,0,2.95,1.62,2.95,3.17v2.9c0,.67.03,1.33.13,1.86h-1.28ZM684.58,193.63c-1.54-.03-3.28.24-3.28,1.74,0,.91.61,1.34,1.33,1.34,1.01,0,1.65-.64,1.87-1.3.05-.14.08-.3.08-.45v-1.34Z"/>
    <path class="cls-8" d="M689.9,187.62v2.22h2.02v1.07h-2.02v4.18c0,.96.27,1.5,1.06,1.5.37,0,.64-.05.82-.1l.06,1.06c-.27.11-.7.19-1.25.19-.66,0-1.18-.21-1.52-.59-.4-.42-.54-1.1-.54-2.02v-4.23h-1.2v-1.07h1.2v-1.86l1.38-.37Z"/>
    <path class="cls-8" d="M698.46,187.66c.02.48-.34.86-.9.86-.5,0-.85-.38-.85-.86s.37-.88.88-.88.86.38.86.88ZM696.89,197.59v-7.75h1.41v7.75h-1.41Z"/>
    <path class="cls-8" d="M700.45,196.15c.42.27,1.15.56,1.86.56,1.02,0,1.5-.51,1.5-1.15s-.4-1.04-1.44-1.42c-1.39-.5-2.05-1.26-2.05-2.19,0-1.25,1.01-2.27,2.67-2.27.78,0,1.47.22,1.9.48l-.35,1.02c-.3-.19-.86-.45-1.58-.45-.83,0-1.3.48-1.3,1.06,0,.64.46.93,1.47,1.31,1.34.51,2.03,1.18,2.03,2.34,0,1.36-1.06,2.32-2.9,2.32-.85,0-1.63-.21-2.18-.53l.35-1.07Z"/>
    <path class="cls-8" d="M712.06,187.62v2.22h2.02v1.07h-2.02v4.18c0,.96.27,1.5,1.06,1.5.37,0,.64-.05.82-.1l.06,1.06c-.27.11-.7.19-1.25.19-.66,0-1.18-.21-1.52-.59-.4-.42-.54-1.1-.54-2.02v-4.23h-1.2v-1.07h1.2v-1.86l1.38-.37Z"/>
    <path class="cls-8" d="M715.66,186.22h1.41v4.83h.03c.22-.4.58-.75,1.01-.99.42-.24.91-.4,1.44-.4,1.04,0,2.71.64,2.71,3.31v4.61h-1.41v-4.45c0-1.25-.46-2.3-1.79-2.3-.91,0-1.63.64-1.89,1.41-.08.19-.1.4-.1.67v4.67h-1.41v-11.36Z"/>
    <path class="cls-8" d="M725.33,193.97c.03,1.9,1.25,2.69,2.66,2.69,1.01,0,1.62-.18,2.15-.4l.24,1.01c-.5.22-1.34.48-2.58.48-2.38,0-3.81-1.57-3.81-3.91s1.38-4.18,3.63-4.18c2.53,0,3.2,2.22,3.2,3.65,0,.29-.03.51-.05.66h-5.44ZM729.46,192.96c.02-.9-.37-2.29-1.95-2.29-1.42,0-2.05,1.31-2.16,2.29h4.11Z"/>
    <path class="cls-8" d="M735.95,191.94c0-.8-.02-1.46-.06-2.1h1.23l.06,1.25h.05c.43-.74,1.15-1.42,2.43-1.42,1.06,0,1.86.64,2.19,1.55h.03c.24-.43.54-.77.87-1.01.46-.35.98-.54,1.71-.54,1.02,0,2.54.67,2.54,3.36v4.56h-1.38v-4.39c0-1.49-.54-2.38-1.68-2.38-.8,0-1.42.59-1.67,1.28-.06.19-.11.45-.11.7v4.79h-1.38v-4.64c0-1.23-.54-2.13-1.62-2.13-.88,0-1.52.7-1.74,1.41-.08.21-.11.45-.11.69v4.67h-1.38v-5.65Z"/>
    <path class="cls-8" d="M756.3,193.65c0,2.87-1.99,4.11-3.86,4.11-2.1,0-3.71-1.54-3.71-3.99,0-2.59,1.7-4.11,3.84-4.11s3.73,1.62,3.73,3.99ZM750.16,193.73c0,1.7.98,2.98,2.35,2.98s2.35-1.26,2.35-3.01c0-1.31-.66-2.98-2.32-2.98s-2.38,1.54-2.38,3.01Z"/>
    <path class="cls-8" d="M764.77,186.22v9.36c0,.69.02,1.47.06,2h-1.26l-.06-1.34h-.03c-.43.86-1.38,1.52-2.64,1.52-1.87,0-3.31-1.58-3.31-3.94-.02-2.58,1.58-4.16,3.47-4.16,1.18,0,1.98.56,2.34,1.18h.03v-4.63h1.41ZM763.36,192.99c0-.18-.02-.42-.06-.59-.21-.9-.98-1.63-2.03-1.63-1.46,0-2.32,1.28-2.32,2.99,0,1.57.77,2.87,2.29,2.87.95,0,1.81-.62,2.07-1.68.05-.19.06-.38.06-.61v-1.34Z"/>
    <path class="cls-8" d="M767.89,193.97c.03,1.9,1.25,2.69,2.66,2.69,1.01,0,1.62-.18,2.14-.4l.24,1.01c-.5.22-1.34.48-2.58.48-2.38,0-3.81-1.57-3.81-3.91s1.38-4.18,3.63-4.18c2.53,0,3.2,2.22,3.2,3.65,0,.29-.03.51-.05.66h-5.44ZM772.01,192.96c.02-.9-.37-2.29-1.95-2.29-1.42,0-2.05,1.31-2.16,2.29h4.11Z"/>
    <path class="cls-8" d="M775.12,186.22h1.41v11.36h-1.41v-11.36Z"/>
    <path class="cls-8" d="M780.67,186.62c-.37,1.34-1.06,3.06-1.5,3.79l-.9.11c.35-.94.77-2.61.94-3.76l1.46-.14Z"/>
    <path class="cls-8" d="M782.01,196.15c.42.27,1.15.56,1.86.56,1.02,0,1.5-.51,1.5-1.15s-.4-1.04-1.44-1.42c-1.39-.5-2.05-1.26-2.05-2.19,0-1.25,1.01-2.27,2.67-2.27.78,0,1.47.22,1.9.48l-.35,1.02c-.3-.19-.86-.45-1.58-.45-.83,0-1.3.48-1.3,1.06,0,.64.46.93,1.47,1.31,1.34.51,2.03,1.18,2.03,2.34,0,1.36-1.06,2.32-2.9,2.32-.85,0-1.63-.21-2.18-.53l.35-1.07Z"/>
    <path class="cls-8" d="M798.61,189.84c-.03.56-.06,1.18-.06,2.13v4.5c0,1.78-.35,2.87-1.1,3.54-.75.7-1.84.93-2.82.93s-1.95-.22-2.58-.64l.35-1.07c.51.32,1.31.61,2.27.61,1.44,0,2.5-.75,2.5-2.71v-.86h-.03c-.43.72-1.26,1.3-2.46,1.3-1.92,0-3.3-1.63-3.3-3.78,0-2.62,1.71-4.11,3.49-4.11,1.34,0,2.08.7,2.42,1.34h.03l.06-1.17h1.23ZM797.15,192.9c0-.24-.02-.45-.08-.64-.26-.82-.94-1.49-1.97-1.49-1.34,0-2.3,1.14-2.3,2.93,0,1.52.77,2.79,2.29,2.79.87,0,1.65-.54,1.95-1.44.08-.24.11-.51.11-.75v-1.39Z"/>
    <path class="cls-8" d="M807.89,193.65c0,2.87-1.99,4.11-3.86,4.11-2.1,0-3.71-1.54-3.71-3.99,0-2.59,1.7-4.11,3.84-4.11s3.73,1.62,3.73,3.99ZM801.74,193.73c0,1.7.98,2.98,2.35,2.98s2.35-1.26,2.35-3.01c0-1.31-.66-2.98-2.32-2.98s-2.38,1.54-2.38,3.01Z"/>
    <path class="cls-8" d="M813.95,197.59l-.11-.98h-.05c-.43.61-1.26,1.15-2.37,1.15-1.57,0-2.37-1.1-2.37-2.22,0-1.87,1.66-2.9,4.66-2.88v-.16c0-.64-.18-1.79-1.76-1.79-.72,0-1.47.22-2.02.58l-.32-.93c.64-.42,1.57-.69,2.54-.69,2.37,0,2.95,1.62,2.95,3.17v2.9c0,.67.03,1.33.13,1.86h-1.28ZM813.74,193.63c-1.54-.03-3.28.24-3.28,1.74,0,.91.61,1.34,1.33,1.34,1.01,0,1.65-.64,1.87-1.3.05-.14.08-.3.08-.45v-1.34Z"/>
    <path class="cls-8" d="M817.37,186.22h1.41v11.36h-1.41v-11.36Z"/>
    <path class="cls-8" d="M822.24,194.53l-.03-.42c-.1-.86.19-1.81.99-2.77.72-.85,1.12-1.47,1.12-2.19,0-.82-.51-1.36-1.52-1.38-.58,0-1.22.19-1.62.5l-.38-1.01c.53-.38,1.44-.64,2.29-.64,1.84,0,2.67,1.14,2.67,2.35,0,1.09-.61,1.87-1.38,2.79-.7.83-.96,1.54-.91,2.35l.02.42h-1.25ZM821.88,196.77c0-.59.4-1.01.96-1.01s.94.42.94,1.01c0,.56-.37.99-.96.99-.56,0-.95-.43-.95-.99Z"/>
  </g>
  <g>
    <path d="M16.39,69.91c-.62.22-1.86.59-3.31.59-1.63,0-2.98-.42-4.03-1.42-.93-.9-1.5-2.34-1.5-4.02.02-3.22,2.23-5.57,5.84-5.57,1.25,0,2.23.27,2.69.5l-.34,1.14c-.58-.26-1.3-.46-2.38-.46-2.62,0-4.34,1.63-4.34,4.34s1.65,4.35,4.16,4.35c.91,0,1.54-.13,1.86-.29v-3.22h-2.19v-1.12h3.55v5.19Z"/>
    <path d="M18.51,59.73c.67-.11,1.55-.21,2.67-.21,1.38,0,2.38.32,3.02.9.59.51.94,1.3.94,2.26s-.29,1.75-.83,2.31c-.74.78-1.94,1.18-3.3,1.18-.42,0-.8-.02-1.12-.1v4.32h-1.39v-10.66ZM19.91,64.93c.3.08.69.11,1.15.11,1.68,0,2.71-.82,2.71-2.3s-1.01-2.11-2.55-2.11c-.61,0-1.07.05-1.31.11v4.19Z"/>
    <path d="M29.07,60.78h-3.28v-1.18h7.99v1.18h-3.3v9.6h-1.41v-9.6Z"/>
    <path d="M45.33,66.45c0,2.87-1.98,4.11-3.86,4.11-2.1,0-3.71-1.54-3.71-3.99,0-2.59,1.7-4.11,3.84-4.11s3.73,1.62,3.73,3.99ZM39.19,66.53c0,1.7.98,2.98,2.35,2.98s2.35-1.26,2.35-3.01c0-1.31-.66-2.98-2.32-2.98s-2.39,1.54-2.39,3.01Z"/>
    <path d="M49.71,61.29h-.03l-1.81.98-.27-1.07,2.27-1.22h1.2v10.4h-1.36v-9.09Z"/>
    <path d="M58.58,65.54v1.04h-3.95v-1.04h3.95Z"/>
    <path d="M60.23,65.17c0-.99-.03-1.79-.06-2.53h1.26l.06,1.33h.03c.58-.94,1.49-1.5,2.75-1.5,1.87,0,3.28,1.58,3.28,3.94,0,2.79-1.7,4.16-3.52,4.16-1.02,0-1.92-.45-2.38-1.22h-.03v4.21h-1.39v-8.39ZM61.62,67.23c0,.21.03.4.06.58.26.98,1.1,1.65,2.11,1.65,1.49,0,2.35-1.22,2.35-2.99,0-1.55-.82-2.88-2.3-2.88-.96,0-1.86.69-2.13,1.74-.05.18-.1.38-.1.58v1.33Z"/>
    <path d="M69.33,65.06c0-.91-.02-1.7-.06-2.42h1.23l.05,1.52h.06c.35-1.04,1.2-1.7,2.14-1.7.16,0,.27.02.4.05v1.33c-.14-.03-.29-.05-.48-.05-.99,0-1.7.75-1.89,1.81-.03.19-.06.42-.06.66v4.13h-1.39v-5.33Z"/>
    <path d="M75.35,66.77c.03,1.9,1.25,2.69,2.66,2.69,1.01,0,1.62-.18,2.15-.4l.24,1.01c-.5.22-1.34.48-2.58.48-2.39,0-3.81-1.57-3.81-3.91s1.38-4.18,3.63-4.18c2.53,0,3.2,2.23,3.2,3.65,0,.29-.03.51-.05.66h-5.44ZM79.48,65.76c.02-.9-.37-2.29-1.95-2.29-1.42,0-2.05,1.31-2.16,2.29h4.11Z"/>
    <path d="M83.12,62.64l1.52,4.35c.26.7.46,1.34.62,1.98h.05c.18-.64.4-1.28.66-1.98l1.5-4.35h1.47l-3.04,7.75h-1.34l-2.95-7.75h1.5Z"/>
    <path d="M91.84,60.46c.02.48-.34.86-.9.86-.5,0-.85-.38-.85-.86s.37-.88.88-.88.86.38.86.88ZM90.27,70.39v-7.75h1.41v7.75h-1.41Z"/>
    <path d="M94.8,66.77c.03,1.9,1.25,2.69,2.66,2.69,1.01,0,1.62-.18,2.15-.4l.24,1.01c-.5.22-1.34.48-2.58.48-2.39,0-3.81-1.57-3.81-3.91s1.38-4.18,3.63-4.18c2.53,0,3.2,2.23,3.2,3.65,0,.29-.03.51-.05.66h-5.44ZM98.93,65.76c.02-.9-.37-2.29-1.95-2.29-1.42,0-2.05,1.31-2.16,2.29h4.11Z"/>
    <path d="M102.59,62.64l1.02,3.94c.22.86.43,1.66.58,2.46h.05c.18-.78.43-1.62.69-2.45l1.26-3.95h1.18l1.2,3.87c.29.93.51,1.74.69,2.53h.05c.13-.78.34-1.6.59-2.51l1.1-3.89h1.39l-2.5,7.75h-1.28l-1.18-3.7c-.27-.86-.5-1.63-.69-2.55h-.03c-.19.93-.43,1.73-.7,2.56l-1.25,3.68h-1.28l-2.34-7.75h1.44Z"/>
  </g>
  <g>
    <path class="cls-8" d="M15.17,90.95c-1.46-.38-2.88-.82-4.13-1.25-.22-.08-.45-.16-.66-.16-2.56-.1-4.75-1.98-4.75-5.46s2.11-5.68,5.03-5.68,4.83,2.27,4.83,5.46c0,2.77-1.28,4.55-3.07,5.17v.06c1.07.27,2.24.53,3.15.69l-.4,1.17ZM14.02,83.92c0-2.16-1.12-4.39-3.41-4.39s-3.51,2.18-3.49,4.51c-.02,2.29,1.25,4.35,3.43,4.35s3.47-2.02,3.47-4.48Z"/>
    <path class="cls-8" d="M23.68,87.25c0,.8.02,1.5.06,2.11h-1.25l-.08-1.26h-.03c-.37.62-1.18,1.44-2.56,1.44-1.22,0-2.67-.67-2.67-3.39v-4.53h1.41v4.29c0,1.47.45,2.47,1.73,2.47.94,0,1.6-.66,1.86-1.28.08-.21.13-.46.13-.72v-4.75h1.41v5.63Z"/>
    <path class="cls-8" d="M26.73,85.75c.03,1.9,1.25,2.69,2.66,2.69,1.01,0,1.62-.18,2.15-.4l.24,1.01c-.5.22-1.34.48-2.58.48-2.39,0-3.81-1.57-3.81-3.91s1.38-4.18,3.63-4.18c2.53,0,3.2,2.23,3.2,3.65,0,.29-.03.51-.05.66h-5.44ZM30.86,84.74c.02-.9-.37-2.29-1.95-2.29-1.42,0-2.05,1.31-2.16,2.29h4.11Z"/>
  </g>
  <g>
    <path class="cls-8" d="M33.69,87.92c.42.27,1.15.56,1.86.56,1.02,0,1.5-.51,1.5-1.15,0-.67-.4-1.04-1.44-1.42-1.39-.5-2.05-1.26-2.05-2.19,0-1.25,1.01-2.27,2.67-2.27.78,0,1.47.22,1.9.48l-.35,1.02c-.3-.19-.86-.45-1.58-.45-.83,0-1.3.48-1.3,1.06,0,.64.46.93,1.47,1.31,1.34.51,2.03,1.18,2.03,2.34,0,1.36-1.06,2.32-2.9,2.32-.85,0-1.63-.21-2.18-.53l.35-1.07Z"/>
    <path class="cls-8" d="M41.84,79.39v2.23h2.02v1.07h-2.02v4.18c0,.96.27,1.5,1.06,1.5.37,0,.64-.05.82-.1l.06,1.06c-.27.11-.7.19-1.25.19-.66,0-1.18-.21-1.52-.59-.4-.42-.54-1.1-.54-2.02v-4.23h-1.2v-1.07h1.2v-1.86l1.38-.37Z"/>
    <path class="cls-8" d="M46.94,79.44c.02.48-.34.86-.9.86-.5,0-.85-.38-.85-.86s.37-.88.88-.88.86.38.86.88ZM45.37,89.36v-7.75h1.41v7.75h-1.41Z"/>
    <path class="cls-8" d="M56.06,85.43c0,2.87-1.98,4.11-3.86,4.11-2.1,0-3.71-1.54-3.71-3.99,0-2.59,1.7-4.11,3.84-4.11s3.73,1.62,3.73,3.99ZM49.92,85.51c0,1.7.98,2.98,2.35,2.98s2.35-1.26,2.35-3.01c0-1.31-.66-2.98-2.32-2.98s-2.39,1.54-2.39,3.01Z"/>
  </g>
  <path class="cls-8" d="M57.73,83.71c0-.8-.02-1.46-.06-2.1h1.25l.08,1.28h.03c.38-.74,1.28-1.46,2.56-1.46,1.07,0,2.74.64,2.74,3.3v4.63h-1.41v-4.47c0-1.25-.46-2.29-1.79-2.29-.93,0-1.65.66-1.89,1.44-.06.18-.1.42-.1.66v4.66h-1.41v-5.65Z"/>
  <path class="cls-8" d="M66.14,82.9c0-.59.4-1.01.96-1.01s.93.42.94,1.01c0,.56-.37.99-.96.99-.56,0-.94-.43-.94-.99ZM66.14,88.55c0-.59.4-1.01.96-1.01s.93.42.94,1.01c0,.56-.37.99-.96.99-.56,0-.94-.43-.94-.99Z"/>
  <path d="M74.43,89.36l-2.74-10.79h1.47l1.28,5.46c.32,1.34.61,2.69.8,3.73h.03c.18-1.07.51-2.35.88-3.75l1.44-5.44h1.46l1.31,5.47c.3,1.28.59,2.56.75,3.7h.03c.22-1.18.53-2.38.86-3.73l1.42-5.44h1.42l-3.06,10.79h-1.46l-1.36-5.62c-.34-1.38-.56-2.43-.7-3.52h-.03c-.19,1.07-.43,2.13-.83,3.52l-1.54,5.62h-1.46Z"/>
  <path d="M86.08,78h1.41v4.83h.03c.22-.4.58-.75,1.01-.99.42-.24.91-.4,1.44-.4,1.04,0,2.71.64,2.71,3.31v4.61h-1.41v-4.45c0-1.25-.46-2.31-1.79-2.31-.91,0-1.63.64-1.89,1.41-.08.19-.1.4-.1.67v4.67h-1.41v-11.36Z"/>
  <path d="M99.25,89.36l-.11-.98h-.05c-.43.61-1.26,1.15-2.37,1.15-1.57,0-2.37-1.1-2.37-2.23,0-1.87,1.67-2.9,4.66-2.88v-.16c0-.64-.18-1.79-1.76-1.79-.72,0-1.47.22-2.02.58l-.32-.93c.64-.42,1.57-.69,2.54-.69,2.37,0,2.95,1.62,2.95,3.17v2.9c0,.67.03,1.33.13,1.86h-1.28ZM99.04,85.41c-1.54-.03-3.28.24-3.28,1.74,0,.91.61,1.34,1.33,1.34,1.01,0,1.65-.64,1.87-1.3.05-.14.08-.3.08-.45v-1.34Z"/>
  <g>
    <path d="M104.3,79.39v2.23h2.02v1.07h-2.02v4.18c0,.96.27,1.5,1.06,1.5.37,0,.64-.05.82-.1l.06,1.06c-.27.11-.7.19-1.25.19-.66,0-1.18-.21-1.52-.59-.4-.42-.54-1.1-.54-2.02v-4.23h-1.2v-1.07h1.2v-1.86l1.38-.37Z"/>
    <path d="M112.86,79.44c.02.48-.34.86-.9.86-.5,0-.85-.38-.85-.86s.37-.88.88-.88.86.38.86.88ZM111.29,89.36v-7.75h1.41v7.75h-1.41Z"/>
    <path d="M114.85,87.92c.42.27,1.15.56,1.86.56,1.02,0,1.5-.51,1.5-1.15,0-.67-.4-1.04-1.44-1.42-1.39-.5-2.05-1.26-2.05-2.19,0-1.25,1.01-2.27,2.67-2.27.78,0,1.47.22,1.9.48l-.35,1.02c-.3-.19-.86-.45-1.58-.45-.83,0-1.3.48-1.3,1.06,0,.64.46.93,1.47,1.31,1.34.51,2.03,1.18,2.03,2.34,0,1.36-1.06,2.32-2.9,2.32-.85,0-1.63-.21-2.18-.53l.35-1.07Z"/>
    <path d="M126.46,79.39v2.23h2.02v1.07h-2.02v4.18c0,.96.27,1.5,1.06,1.5.37,0,.64-.05.82-.1l.06,1.06c-.27.11-.7.19-1.25.19-.66,0-1.18-.21-1.52-.59-.4-.42-.54-1.1-.54-2.02v-4.23h-1.2v-1.07h1.2v-1.86l1.38-.37Z"/>
    <path d="M130.06,78h1.41v4.83h.03c.22-.4.58-.75,1.01-.99.42-.24.91-.4,1.44-.4,1.04,0,2.71.64,2.71,3.31v4.61h-1.41v-4.45c0-1.25-.46-2.31-1.79-2.31-.91,0-1.63.64-1.89,1.41-.08.19-.1.4-.1.67v4.67h-1.41v-11.36Z"/>
    <path d="M139.73,85.75c.03,1.9,1.25,2.69,2.66,2.69,1.01,0,1.62-.18,2.15-.4l.24,1.01c-.5.22-1.34.48-2.58.48-2.39,0-3.81-1.57-3.81-3.91s1.38-4.18,3.63-4.18c2.53,0,3.2,2.23,3.2,3.65,0,.29-.03.51-.05.66h-5.44ZM143.85,84.74c.02-.9-.37-2.29-1.95-2.29-1.42,0-2.05,1.31-2.16,2.29h4.11Z"/>
    <path d="M150.35,83.71c0-.8-.02-1.46-.06-2.1h1.23l.06,1.25h.05c.43-.74,1.15-1.42,2.43-1.42,1.06,0,1.86.64,2.19,1.55h.03c.24-.43.54-.77.86-1.01.46-.35.98-.54,1.71-.54,1.02,0,2.54.67,2.54,3.36v4.56h-1.38v-4.39c0-1.49-.54-2.38-1.68-2.38-.8,0-1.42.59-1.67,1.28-.06.19-.11.45-.11.7v4.79h-1.38v-4.64c0-1.23-.54-2.13-1.62-2.13-.88,0-1.52.7-1.74,1.41-.08.21-.11.45-.11.69v4.67h-1.38v-5.65Z"/>
    <path d="M170.7,85.43c0,2.87-1.98,4.11-3.86,4.11-2.1,0-3.71-1.54-3.71-3.99,0-2.59,1.7-4.11,3.84-4.11s3.73,1.62,3.73,3.99ZM164.56,85.51c0,1.7.98,2.98,2.35,2.98s2.35-1.26,2.35-3.01c0-1.31-.66-2.98-2.32-2.98s-2.39,1.54-2.39,3.01Z"/>
    <path d="M179.17,78v9.36c0,.69.02,1.47.06,2h-1.26l-.06-1.34h-.03c-.43.86-1.38,1.52-2.64,1.52-1.87,0-3.31-1.58-3.31-3.94-.02-2.58,1.58-4.16,3.47-4.16,1.18,0,1.98.56,2.34,1.18h.03v-4.63h1.41ZM177.76,84.77c0-.18-.02-.42-.06-.59-.21-.9-.98-1.63-2.03-1.63-1.46,0-2.32,1.28-2.32,2.99,0,1.57.77,2.87,2.29,2.87.94,0,1.81-.62,2.06-1.68.05-.19.06-.38.06-.61v-1.34Z"/>
    <path d="M182.28,85.75c.03,1.9,1.25,2.69,2.66,2.69,1.01,0,1.62-.18,2.15-.4l.24,1.01c-.5.22-1.34.48-2.58.48-2.39,0-3.81-1.57-3.81-3.91s1.38-4.18,3.63-4.18c2.53,0,3.2,2.23,3.2,3.65,0,.29-.03.51-.05.66h-5.44ZM186.41,84.74c.02-.9-.37-2.29-1.95-2.29-1.42,0-2.05,1.31-2.16,2.29h4.11Z"/>
    <path d="M189.52,78h1.41v11.36h-1.41v-11.36Z"/>
    <path d="M196.68,78h1.41v11.36h-1.41v-11.36Z"/>
    <path d="M202.03,79.44c.02.48-.34.86-.9.86-.5,0-.85-.38-.85-.86s.37-.88.88-.88.86.38.86.88ZM200.46,89.36v-7.75h1.41v7.75h-1.41Z"/>
    <path d="M205.6,85.17h.03c.19-.27.46-.61.69-.88l2.27-2.67h1.7l-2.99,3.19,3.41,4.56h-1.71l-2.67-3.71-.72.8v2.91h-1.39v-11.36h1.39v7.17Z"/>
    <path d="M212.49,85.75c.03,1.9,1.25,2.69,2.66,2.69,1.01,0,1.62-.18,2.15-.4l.24,1.01c-.5.22-1.34.48-2.58.48-2.39,0-3.81-1.57-3.81-3.91s1.38-4.18,3.63-4.18c2.53,0,3.2,2.23,3.2,3.65,0,.29-.03.51-.05.66h-5.44ZM216.62,84.74c.02-.9-.37-2.29-1.95-2.29-1.42,0-2.05,1.31-2.16,2.29h4.11Z"/>
    <path d="M220.81,86.31l-.03-.42c-.1-.86.19-1.81.99-2.77.72-.85,1.12-1.47,1.12-2.19,0-.82-.51-1.36-1.52-1.38-.58,0-1.22.19-1.62.5l-.38-1.01c.53-.38,1.44-.64,2.29-.64,1.84,0,2.67,1.14,2.67,2.35,0,1.09-.61,1.87-1.38,2.79-.7.83-.96,1.54-.91,2.35l.02.42h-1.25ZM220.46,88.55c0-.59.4-1.01.96-1.01s.94.42.94,1.01c0,.56-.37.99-.96.99-.56,0-.94-.43-.94-.99Z"/>
  </g>
  <rect class="cls-1" width="837.68" height="205"/>
  <path class="cls-8" d="M38.19,104.33l-1.12,3.39h-1.44l3.67-10.79h1.68l3.68,10.79h-1.49l-1.15-3.39h-3.83ZM41.73,103.24l-1.06-3.11c-.24-.7-.4-1.34-.56-1.97h-.03c-.16.64-.34,1.3-.54,1.95l-1.06,3.12h3.25Z"/>
  <path class="cls-8" d="M46.24,102.07c0-.8-.02-1.46-.06-2.1h1.25l.08,1.28h.03c.38-.74,1.28-1.46,2.56-1.46,1.07,0,2.74.64,2.74,3.3v4.63h-1.41v-4.47c0-1.25-.46-2.29-1.79-2.29-.93,0-1.65.66-1.89,1.44-.06.18-.1.42-.1.66v4.66h-1.41v-5.65Z"/>
  <g>
    <path class="cls-8" d="M54.99,106.28c.42.27,1.15.56,1.86.56,1.02,0,1.5-.51,1.5-1.15s-.4-1.04-1.44-1.42c-1.39-.5-2.05-1.26-2.05-2.19,0-1.25,1.01-2.27,2.67-2.27.78,0,1.47.22,1.9.48l-.35,1.02c-.3-.19-.86-.45-1.58-.45-.83,0-1.3.48-1.3,1.06,0,.64.46.93,1.47,1.31,1.34.51,2.03,1.18,2.03,2.34,0,1.36-1.06,2.32-2.9,2.32-.85,0-1.63-.21-2.18-.53l.35-1.07Z"/>
    <path class="cls-8" d="M62.13,99.98l1.02,3.94c.22.86.43,1.67.58,2.46h.05c.18-.78.43-1.62.69-2.45l1.26-3.95h1.18l1.2,3.87c.29.93.51,1.75.69,2.53h.05c.13-.78.34-1.6.59-2.51l1.1-3.89h1.39l-2.5,7.75h-1.28l-1.18-3.7c-.27-.86-.5-1.63-.69-2.55h-.03c-.19.93-.43,1.73-.7,2.56l-1.25,3.68h-1.28l-2.34-7.75h1.44Z"/>
  </g>
  <path class="cls-8" d="M74.18,104.11c.03,1.9,1.25,2.69,2.66,2.69,1.01,0,1.62-.18,2.15-.4l.24,1.01c-.5.22-1.34.48-2.58.48-2.39,0-3.81-1.57-3.81-3.91s1.38-4.18,3.63-4.18c2.53,0,3.2,2.23,3.2,3.65,0,.29-.03.51-.05.66h-5.44ZM78.31,103.1c.02-.9-.37-2.29-1.95-2.29-1.42,0-2.05,1.31-2.16,2.29h4.11Z"/>
  <path class="cls-8" d="M81.47,102.39c0-.91-.02-1.7-.06-2.42h1.23l.05,1.52h.06c.35-1.04,1.2-1.7,2.14-1.7.16,0,.27.02.4.05v1.33c-.14-.03-.29-.05-.48-.05-.99,0-1.7.75-1.89,1.81-.03.19-.06.42-.06.66v4.13h-1.39v-5.33Z"/>
  <path class="cls-8" d="M86.48,101.26c0-.59.4-1.01.96-1.01s.93.42.94,1.01c0,.56-.37.99-.96.99-.56,0-.94-.43-.94-.99ZM86.48,106.91c0-.59.4-1.01.96-1.01s.93.42.94,1.01c0,.56-.37.99-.96.99-.56,0-.94-.43-.94-.99Z"/>
  <path d="M93.57,97.08c.61-.13,1.57-.22,2.55-.22,1.39,0,2.29.24,2.96.78.56.42.9,1.06.9,1.9,0,1.04-.69,1.95-1.82,2.37v.03c1.02.26,2.22,1.1,2.22,2.71,0,.93-.37,1.63-.91,2.16-.75.69-1.97,1.01-3.73,1.01-.96,0-1.7-.06-2.16-.13v-10.61ZM94.96,101.5h1.26c1.47,0,2.34-.77,2.34-1.81,0-1.26-.96-1.76-2.37-1.76-.64,0-1.01.05-1.23.1v3.47ZM94.96,106.67c.27.05.67.06,1.17.06,1.44,0,2.77-.53,2.77-2.1,0-1.47-1.26-2.08-2.79-2.08h-1.15v4.11Z"/>
  <path d="M102.19,102.39c0-.91-.02-1.7-.06-2.42h1.23l.05,1.52h.06c.35-1.04,1.2-1.7,2.14-1.7.16,0,.27.02.4.05v1.33c-.14-.03-.29-.05-.48-.05-.99,0-1.7.75-1.89,1.81-.03.19-.06.42-.06.66v4.13h-1.39v-5.33Z"/>
  <g>
    <path d="M111.63,107.72l-.11-.98h-.05c-.43.61-1.26,1.15-2.37,1.15-1.57,0-2.37-1.1-2.37-2.22,0-1.87,1.67-2.9,4.66-2.88v-.16c0-.64-.18-1.79-1.76-1.79-.72,0-1.47.22-2.02.58l-.32-.93c.64-.42,1.57-.69,2.54-.69,2.37,0,2.95,1.62,2.95,3.17v2.9c0,.67.03,1.33.13,1.86h-1.28ZM111.43,103.77c-1.54-.03-3.28.24-3.28,1.74,0,.91.61,1.34,1.33,1.34,1.01,0,1.65-.64,1.87-1.3.05-.14.08-.3.08-.45v-1.34Z"/>
    <path d="M114.87,106.28c.42.27,1.15.56,1.86.56,1.02,0,1.5-.51,1.5-1.15s-.4-1.04-1.44-1.42c-1.39-.5-2.05-1.26-2.05-2.19,0-1.25,1.01-2.27,2.67-2.27.78,0,1.47.22,1.9.48l-.35,1.02c-.3-.19-.86-.45-1.58-.45-.83,0-1.3.48-1.3,1.06,0,.64.46.93,1.47,1.31,1.34.51,2.03,1.18,2.03,2.34,0,1.36-1.06,2.32-2.9,2.32-.85,0-1.63-.21-2.18-.53l.35-1.07Z"/>
    <path d="M121.39,96.36h1.41v4.83h.03c.22-.4.58-.75,1.01-.99.42-.24.91-.4,1.44-.4,1.04,0,2.71.64,2.71,3.31v4.61h-1.41v-4.45c0-1.25-.46-2.3-1.79-2.3-.91,0-1.63.64-1.89,1.41-.08.19-.1.4-.1.67v4.67h-1.41v-11.36Z"/>
    <path d="M137.95,107.72l-.11-.98h-.05c-.43.61-1.26,1.15-2.37,1.15-1.57,0-2.37-1.1-2.37-2.22,0-1.87,1.67-2.9,4.66-2.88v-.16c0-.64-.18-1.79-1.76-1.79-.72,0-1.47.22-2.02.58l-.32-.93c.64-.42,1.57-.69,2.54-.69,2.37,0,2.95,1.62,2.95,3.17v2.9c0,.67.03,1.33.13,1.86h-1.28ZM137.75,103.77c-1.54-.03-3.28.24-3.28,1.74,0,.91.61,1.34,1.33,1.34,1.01,0,1.65-.64,1.87-1.3.05-.14.08-.3.08-.45v-1.34Z"/>
    <path d="M141.38,102.07c0-.8-.02-1.46-.06-2.1h1.25l.08,1.28h.03c.38-.74,1.28-1.46,2.56-1.46,1.07,0,2.74.64,2.74,3.3v4.63h-1.41v-4.47c0-1.25-.46-2.29-1.79-2.29-.93,0-1.65.66-1.89,1.44-.06.18-.1.42-.1.66v4.66h-1.41v-5.65Z"/>
    <path d="M156.95,96.36v9.36c0,.69.02,1.47.06,2h-1.26l-.06-1.34h-.03c-.43.86-1.38,1.52-2.64,1.52-1.87,0-3.31-1.58-3.31-3.94-.02-2.58,1.58-4.16,3.47-4.16,1.18,0,1.98.56,2.34,1.18h.03v-4.63h1.41ZM155.54,103.13c0-.18-.02-.42-.06-.59-.21-.9-.98-1.63-2.03-1.63-1.46,0-2.32,1.28-2.32,2.99,0,1.57.77,2.87,2.29,2.87.94,0,1.81-.62,2.06-1.68.05-.19.06-.38.06-.61v-1.34Z"/>
  </g>
  <path d="M162.82,107.72v-6.67h-1.09v-1.07h1.09v-.37c0-1.09.24-2.08.9-2.71.53-.51,1.23-.72,1.89-.72.5,0,.93.11,1.2.22l-.19,1.09c-.21-.1-.5-.18-.9-.18-1.2,0-1.5,1.06-1.5,2.24v.42h1.87v1.07h-1.87v6.67h-1.39Z"/>
  <g>
    <path d="M167.94,104.11c.03,1.9,1.25,2.69,2.66,2.69,1.01,0,1.62-.18,2.15-.4l.24,1.01c-.5.22-1.34.48-2.58.48-2.39,0-3.81-1.57-3.81-3.91s1.38-4.18,3.63-4.18c2.53,0,3.2,2.23,3.2,3.65,0,.29-.03.51-.05.66h-5.44ZM172.07,103.1c.02-.9-.37-2.29-1.95-2.29-1.42,0-2.05,1.31-2.16,2.29h4.11Z"/>
    <path d="M179.46,107.72l-.11-.98h-.05c-.43.61-1.26,1.15-2.37,1.15-1.57,0-2.37-1.1-2.37-2.22,0-1.87,1.67-2.9,4.66-2.88v-.16c0-.64-.18-1.79-1.76-1.79-.72,0-1.47.22-2.02.58l-.32-.93c.64-.42,1.57-.69,2.54-.69,2.37,0,2.95,1.62,2.95,3.17v2.9c0,.67.03,1.33.13,1.86h-1.28ZM179.25,103.77c-1.54-.03-3.28.24-3.28,1.74,0,.91.61,1.34,1.33,1.34,1.01,0,1.65-.64,1.87-1.3.05-.14.08-.3.08-.45v-1.34Z"/>
  </g>
  <path d="M182.88,102.39c0-.91-.02-1.7-.06-2.42h1.23l.05,1.52h.06c.35-1.04,1.2-1.7,2.14-1.7.16,0,.27.02.4.05v1.33c-.14-.03-.29-.05-.48-.05-.99,0-1.7.75-1.89,1.81-.03.19-.06.42-.06.66v4.13h-1.39v-5.33Z"/>
  <g>
    <path d="M188.16,96.36h1.41v11.36h-1.41v-11.36Z"/>
    <path d="M192.72,104.11c.03,1.9,1.25,2.69,2.66,2.69,1.01,0,1.62-.18,2.15-.4l.24,1.01c-.5.22-1.34.48-2.58.48-2.39,0-3.81-1.57-3.81-3.91s1.38-4.18,3.63-4.18c2.53,0,3.2,2.23,3.2,3.65,0,.29-.03.51-.05.66h-5.44ZM196.85,103.1c.02-.9-.37-2.29-1.95-2.29-1.42,0-2.05,1.31-2.16,2.29h4.11Z"/>
    <path d="M199.76,106.28c.42.27,1.15.56,1.86.56,1.02,0,1.5-.51,1.5-1.15s-.4-1.04-1.44-1.42c-1.39-.5-2.05-1.26-2.05-2.19,0-1.25,1.01-2.27,2.67-2.27.78,0,1.47.22,1.9.48l-.35,1.02c-.3-.19-.86-.45-1.58-.45-.83,0-1.3.48-1.3,1.06,0,.64.46.93,1.47,1.31,1.34.51,2.03,1.18,2.03,2.34,0,1.36-1.06,2.32-2.9,2.32-.85,0-1.63-.21-2.18-.53l.35-1.07Z"/>
    <path d="M206.1,106.28c.42.27,1.15.56,1.86.56,1.02,0,1.5-.51,1.5-1.15s-.4-1.04-1.44-1.42c-1.39-.5-2.05-1.26-2.05-2.19,0-1.25,1.01-2.27,2.67-2.27.78,0,1.47.22,1.9.48l-.35,1.02c-.3-.19-.86-.45-1.58-.45-.83,0-1.3.48-1.3,1.06,0,.64.46.93,1.47,1.31,1.34.51,2.03,1.18,2.03,2.34,0,1.36-1.06,2.32-2.9,2.32-.85,0-1.63-.21-2.18-.53l.35-1.07Z"/>
    <path d="M212.29,106.89c0-.59.4-1.01.96-1.01s.94.42.94,1.01-.37,1.01-.96,1.01c-.56,0-.94-.43-.94-1.01Z"/>
  </g>
  <g>
    <path class="cls-8" d="M15.17,129.34c-1.46-.38-2.88-.82-4.13-1.25-.22-.08-.45-.16-.66-.16-2.56-.1-4.75-1.98-4.75-5.46s2.11-5.68,5.03-5.68,4.83,2.27,4.83,5.46c0,2.77-1.28,4.55-3.07,5.17v.06c1.07.27,2.24.53,3.15.69l-.4,1.17ZM14.02,122.31c0-2.16-1.12-4.39-3.41-4.39s-3.51,2.18-3.49,4.51c-.02,2.29,1.25,4.35,3.43,4.35s3.47-2.02,3.47-4.48Z"/>
    <path class="cls-8" d="M23.68,125.64c0,.8.02,1.5.06,2.11h-1.25l-.08-1.26h-.03c-.37.62-1.18,1.44-2.56,1.44-1.22,0-2.67-.67-2.67-3.39v-4.53h1.41v4.29c0,1.47.45,2.46,1.73,2.46.94,0,1.6-.66,1.86-1.28.08-.21.13-.46.13-.72v-4.75h1.41v5.63Z"/>
    <path class="cls-8" d="M26.74,124.14c.03,1.9,1.25,2.69,2.66,2.69,1.01,0,1.62-.18,2.15-.4l.24,1.01c-.5.22-1.34.48-2.58.48-2.39,0-3.81-1.57-3.81-3.91s1.38-4.18,3.63-4.18c2.53,0,3.2,2.22,3.2,3.65,0,.29-.03.51-.05.66h-5.44ZM30.87,123.13c.02-.9-.37-2.29-1.95-2.29-1.42,0-2.05,1.31-2.16,2.29h4.11Z"/>
  </g>
  <g>
    <path class="cls-8" d="M33.7,126.32c.42.27,1.15.56,1.86.56,1.02,0,1.5-.51,1.5-1.15s-.4-1.04-1.44-1.42c-1.39-.5-2.05-1.26-2.05-2.19,0-1.25,1.01-2.27,2.67-2.27.78,0,1.47.22,1.9.48l-.35,1.02c-.3-.19-.86-.45-1.58-.45-.83,0-1.3.48-1.3,1.06,0,.64.46.93,1.47,1.31,1.34.51,2.03,1.18,2.03,2.34,0,1.36-1.06,2.32-2.9,2.32-.85,0-1.63-.21-2.18-.53l.35-1.07Z"/>
    <path class="cls-8" d="M41.84,117.78v2.22h2.02v1.07h-2.02v4.18c0,.96.27,1.5,1.06,1.5.37,0,.64-.05.82-.1l.06,1.06c-.27.11-.7.19-1.25.19-.66,0-1.18-.21-1.52-.59-.4-.42-.54-1.1-.54-2.02v-4.23h-1.2v-1.07h1.2v-1.86l1.38-.37Z"/>
    <path class="cls-8" d="M46.95,117.83c.02.48-.34.86-.9.86-.5,0-.85-.38-.85-.86s.37-.88.88-.88.86.38.86.88ZM45.38,127.76v-7.75h1.41v7.75h-1.41Z"/>
    <path class="cls-8" d="M56.07,123.82c0,2.87-1.98,4.11-3.86,4.11-2.1,0-3.71-1.54-3.71-3.99,0-2.59,1.7-4.11,3.84-4.11s3.73,1.62,3.73,3.99ZM49.92,123.9c0,1.7.98,2.98,2.35,2.98s2.35-1.26,2.35-3.01c0-1.31-.66-2.98-2.32-2.98s-2.39,1.54-2.39,3.01Z"/>
  </g>
  <path class="cls-8" d="M57.73,122.11c0-.8-.02-1.46-.06-2.1h1.25l.08,1.28h.03c.38-.74,1.28-1.46,2.56-1.46,1.07,0,2.74.64,2.74,3.3v4.63h-1.41v-4.47c0-1.25-.46-2.29-1.79-2.29-.93,0-1.65.66-1.89,1.44-.06.18-.1.42-.1.66v4.66h-1.41v-5.65Z"/>
  <path class="cls-8" d="M66.15,121.29c0-.59.4-1.01.96-1.01s.93.42.94,1.01c0,.56-.37.99-.96.99-.56,0-.94-.43-.94-.99ZM66.15,126.94c0-.59.4-1.01.96-1.01s.93.42.94,1.01c0,.56-.37.99-.96.99-.56,0-.94-.43-.94-.99Z"/>
  <g>
    <path d="M74.99,127.76l-2.74-10.79h1.47l1.28,5.46c.32,1.34.61,2.69.8,3.73h.03c.18-1.07.51-2.35.88-3.75l1.44-5.44h1.46l1.31,5.47c.3,1.28.59,2.56.75,3.7h.03c.22-1.18.53-2.39.86-3.73l1.42-5.44h1.42l-3.06,10.79h-1.46l-1.36-5.62c-.34-1.38-.56-2.43-.7-3.52h-.03c-.19,1.07-.43,2.13-.83,3.52l-1.54,5.62h-1.46Z"/>
    <path d="M86.72,116.39h1.41v4.83h.03c.22-.4.58-.75,1.01-.99.42-.24.91-.4,1.44-.4,1.04,0,2.71.64,2.71,3.31v4.61h-1.41v-4.45c0-1.25-.46-2.3-1.79-2.3-.91,0-1.63.64-1.89,1.41-.08.19-.1.4-.1.67v4.67h-1.41v-11.36Z"/>
    <path d="M99.89,127.76l-.11-.98h-.05c-.43.61-1.26,1.15-2.37,1.15-1.57,0-2.37-1.1-2.37-2.22,0-1.87,1.67-2.9,4.66-2.88v-.16c0-.64-.18-1.79-1.76-1.79-.72,0-1.47.22-2.02.58l-.32-.93c.64-.42,1.57-.69,2.54-.69,2.37,0,2.95,1.62,2.95,3.17v2.9c0,.67.03,1.33.13,1.86h-1.28ZM99.68,123.8c-1.54-.03-3.28.24-3.28,1.74,0,.91.61,1.34,1.33,1.34,1.01,0,1.65-.64,1.87-1.3.05-.14.08-.3.08-.45v-1.34Z"/>
    <path d="M105.01,117.78v2.22h2.02v1.07h-2.02v4.18c0,.96.27,1.5,1.06,1.5.37,0,.64-.05.82-.1l.06,1.06c-.27.11-.7.19-1.25.19-.66,0-1.18-.21-1.52-.59-.4-.42-.54-1.1-.54-2.02v-4.23h-1.2v-1.07h1.2v-1.86l1.38-.37Z"/>
    <path d="M113.57,117.83c.02.48-.34.86-.9.86-.5,0-.85-.38-.85-.86s.37-.88.88-.88.86.38.86.88ZM112,127.76v-7.75h1.41v7.75h-1.41Z"/>
    <path d="M115.55,126.32c.42.27,1.15.56,1.86.56,1.02,0,1.5-.51,1.5-1.15s-.4-1.04-1.44-1.42c-1.39-.5-2.05-1.26-2.05-2.19,0-1.25,1.01-2.27,2.67-2.27.78,0,1.47.22,1.9.48l-.35,1.02c-.3-.19-.86-.45-1.58-.45-.83,0-1.3.48-1.3,1.06,0,.64.46.93,1.47,1.31,1.34.51,2.03,1.18,2.03,2.34,0,1.36-1.06,2.32-2.9,2.32-.85,0-1.63-.21-2.18-.53l.35-1.07Z"/>
    <path d="M127.17,117.78v2.22h2.02v1.07h-2.02v4.18c0,.96.27,1.5,1.06,1.5.37,0,.64-.05.82-.1l.06,1.06c-.27.11-.7.19-1.25.19-.66,0-1.18-.21-1.52-.59-.4-.42-.54-1.1-.54-2.02v-4.23h-1.2v-1.07h1.2v-1.86l1.38-.37Z"/>
    <path d="M130.77,116.39h1.41v4.83h.03c.22-.4.58-.75,1.01-.99.42-.24.91-.4,1.44-.4,1.04,0,2.71.64,2.71,3.31v4.61h-1.41v-4.45c0-1.25-.46-2.3-1.79-2.3-.91,0-1.63.64-1.89,1.41-.08.19-.1.4-.1.67v4.67h-1.41v-11.36Z"/>
    <path d="M140.43,124.14c.03,1.9,1.25,2.69,2.66,2.69,1.01,0,1.62-.18,2.15-.4l.24,1.01c-.5.22-1.34.48-2.58.48-2.39,0-3.81-1.57-3.81-3.91s1.38-4.18,3.63-4.18c2.53,0,3.2,2.22,3.2,3.65,0,.29-.03.51-.05.66h-5.44ZM144.56,123.13c.02-.9-.37-2.29-1.95-2.29-1.42,0-2.05,1.31-2.16,2.29h4.11Z"/>
    <path d="M151.06,122.11c0-.8-.02-1.46-.06-2.1h1.23l.06,1.25h.05c.43-.74,1.15-1.42,2.43-1.42,1.06,0,1.86.64,2.19,1.55h.03c.24-.43.54-.77.86-1.01.46-.35.98-.54,1.71-.54,1.02,0,2.54.67,2.54,3.36v4.56h-1.38v-4.39c0-1.49-.54-2.38-1.68-2.38-.8,0-1.42.59-1.67,1.28-.06.19-.11.45-.11.7v4.79h-1.38v-4.64c0-1.23-.54-2.13-1.62-2.13-.88,0-1.52.7-1.74,1.41-.08.21-.11.45-.11.69v4.67h-1.38v-5.65Z"/>
    <path d="M171.41,123.82c0,2.87-1.98,4.11-3.86,4.11-2.1,0-3.71-1.54-3.71-3.99,0-2.59,1.7-4.11,3.84-4.11s3.73,1.62,3.73,3.99ZM165.26,123.9c0,1.7.98,2.98,2.35,2.98s2.35-1.26,2.35-3.01c0-1.31-.66-2.98-2.32-2.98s-2.39,1.54-2.39,3.01Z"/>
    <path d="M179.88,116.39v9.36c0,.69.02,1.47.06,2h-1.26l-.06-1.34h-.03c-.43.86-1.38,1.52-2.64,1.52-1.87,0-3.31-1.58-3.31-3.94-.02-2.58,1.58-4.16,3.47-4.16,1.18,0,1.98.56,2.34,1.18h.03v-4.63h1.41ZM178.47,123.16c0-.18-.02-.42-.06-.59-.21-.9-.98-1.63-2.03-1.63-1.46,0-2.32,1.28-2.32,2.99,0,1.57.77,2.87,2.29,2.87.94,0,1.81-.62,2.06-1.68.05-.19.06-.38.06-.61v-1.34Z"/>
    <path d="M182.99,124.14c.03,1.9,1.25,2.69,2.66,2.69,1.01,0,1.62-.18,2.15-.4l.24,1.01c-.5.22-1.34.48-2.58.48-2.39,0-3.81-1.57-3.81-3.91s1.38-4.18,3.63-4.18c2.53,0,3.2,2.22,3.2,3.65,0,.29-.03.51-.05.66h-5.44ZM187.12,123.13c.02-.9-.37-2.29-1.95-2.29-1.42,0-2.05,1.31-2.16,2.29h4.11Z"/>
    <path d="M190.22,116.39h1.41v11.36h-1.41v-11.36Z"/>
    <path d="M195.78,116.79c-.37,1.34-1.06,3.06-1.5,3.79l-.9.11c.35-.94.77-2.61.94-3.76l1.46-.14Z"/>
    <path d="M197.12,126.32c.42.27,1.15.56,1.86.56,1.02,0,1.5-.51,1.5-1.15s-.4-1.04-1.44-1.42c-1.39-.5-2.05-1.26-2.05-2.19,0-1.25,1.01-2.27,2.67-2.27.78,0,1.47.22,1.9.48l-.35,1.02c-.3-.19-.86-.45-1.58-.45-.83,0-1.3.48-1.3,1.06,0,.64.46.93,1.47,1.31,1.34.51,2.03,1.18,2.03,2.34,0,1.36-1.06,2.32-2.9,2.32-.85,0-1.63-.21-2.18-.53l.35-1.07Z"/>
    <path d="M213.71,120.01c-.03.56-.06,1.18-.06,2.13v4.5c0,1.78-.35,2.87-1.1,3.54-.75.7-1.84.93-2.82.93s-1.95-.22-2.58-.64l.35-1.07c.51.32,1.31.61,2.27.61,1.44,0,2.5-.75,2.5-2.71v-.86h-.03c-.43.72-1.26,1.3-2.46,1.3-1.92,0-3.3-1.63-3.3-3.78,0-2.62,1.71-4.11,3.49-4.11,1.34,0,2.08.7,2.42,1.34h.03l.06-1.17h1.23ZM212.26,123.07c0-.24-.02-.45-.08-.64-.26-.82-.94-1.49-1.97-1.49-1.34,0-2.31,1.14-2.31,2.93,0,1.52.77,2.79,2.29,2.79.86,0,1.65-.54,1.95-1.44.08-.24.11-.51.11-.75v-1.39Z"/>
    <path d="M222.99,123.82c0,2.87-1.98,4.11-3.86,4.11-2.1,0-3.71-1.54-3.71-3.99,0-2.59,1.7-4.11,3.84-4.11s3.73,1.62,3.73,3.99ZM216.85,123.9c0,1.7.98,2.98,2.35,2.98s2.35-1.26,2.35-3.01c0-1.31-.66-2.98-2.32-2.98s-2.39,1.54-2.39,3.01Z"/>
    <path d="M229.06,127.76l-.11-.98h-.05c-.43.61-1.26,1.15-2.37,1.15-1.57,0-2.37-1.1-2.37-2.22,0-1.87,1.67-2.9,4.66-2.88v-.16c0-.64-.18-1.79-1.76-1.79-.72,0-1.47.22-2.02.58l-.32-.93c.64-.42,1.57-.69,2.54-.69,2.37,0,2.95,1.62,2.95,3.17v2.9c0,.67.03,1.33.13,1.86h-1.28ZM228.85,123.8c-1.54-.03-3.28.24-3.28,1.74,0,.91.61,1.34,1.33,1.34,1.01,0,1.65-.64,1.87-1.3.05-.14.08-.3.08-.45v-1.34Z"/>
    <path d="M232.48,116.39h1.41v11.36h-1.41v-11.36Z"/>
    <path d="M237.34,124.7l-.03-.42c-.1-.86.19-1.81.99-2.77.72-.85,1.12-1.47,1.12-2.19,0-.82-.51-1.36-1.52-1.38-.58,0-1.22.19-1.62.5l-.38-1.01c.53-.38,1.44-.64,2.29-.64,1.84,0,2.67,1.14,2.67,2.35,0,1.09-.61,1.87-1.38,2.79-.7.83-.96,1.54-.91,2.35l.02.42h-1.25ZM236.99,126.94c0-.59.4-1.01.96-1.01s.94.42.94,1.01c0,.56-.37.99-.96.99-.56,0-.94-.43-.94-.99Z"/>
  </g>
  <g>
    <path class="cls-8" d="M38.19,143.63l-1.12,3.39h-1.44l3.67-10.79h1.68l3.68,10.79h-1.49l-1.15-3.39h-3.83ZM41.73,142.54l-1.06-3.11c-.24-.7-.4-1.34-.56-1.97h-.03c-.16.64-.34,1.3-.54,1.95l-1.06,3.12h3.25Z"/>
    <path class="cls-8" d="M46.24,141.37c0-.8-.02-1.46-.06-2.1h1.25l.08,1.28h.03c.38-.74,1.28-1.46,2.56-1.46,1.07,0,2.74.64,2.74,3.3v4.63h-1.41v-4.47c0-1.25-.46-2.29-1.79-2.29-.93,0-1.65.66-1.89,1.44-.06.18-.1.42-.1.66v4.66h-1.41v-5.65Z"/>
  </g>
  <g>
    <path class="cls-8" d="M54.98,145.58c.42.27,1.15.56,1.86.56,1.02,0,1.5-.51,1.5-1.15s-.4-1.04-1.44-1.42c-1.39-.5-2.05-1.26-2.05-2.19,0-1.25,1.01-2.27,2.67-2.27.78,0,1.47.22,1.9.48l-.35,1.02c-.3-.19-.86-.45-1.58-.45-.83,0-1.3.48-1.3,1.06,0,.64.46.93,1.47,1.31,1.34.51,2.03,1.18,2.03,2.34,0,1.36-1.06,2.32-2.9,2.32-.85,0-1.63-.21-2.18-.53l.35-1.07Z"/>
    <path class="cls-8" d="M62.11,139.27l1.02,3.94c.22.86.43,1.67.58,2.46h.05c.18-.78.43-1.62.69-2.45l1.26-3.95h1.18l1.2,3.87c.29.93.51,1.75.69,2.53h.05c.13-.78.34-1.6.59-2.51l1.1-3.89h1.39l-2.5,7.75h-1.28l-1.18-3.7c-.27-.86-.5-1.63-.69-2.54h-.03c-.19.93-.43,1.73-.7,2.56l-1.25,3.68h-1.28l-2.34-7.75h1.44Z"/>
    <path class="cls-8" d="M74.16,143.4c.03,1.9,1.25,2.69,2.66,2.69,1.01,0,1.62-.18,2.15-.4l.24,1.01c-.5.22-1.34.48-2.58.48-2.39,0-3.81-1.57-3.81-3.91s1.38-4.18,3.63-4.18c2.53,0,3.2,2.22,3.2,3.65,0,.29-.03.51-.05.66h-5.44ZM78.29,142.39c.02-.9-.37-2.29-1.95-2.29-1.42,0-2.05,1.31-2.16,2.29h4.11Z"/>
  </g>
  <path class="cls-8" d="M81.49,141.69c0-.91-.02-1.7-.06-2.42h1.23l.05,1.52h.06c.35-1.04,1.2-1.7,2.14-1.7.16,0,.27.02.4.05v1.33c-.14-.03-.29-.05-.48-.05-.99,0-1.7.75-1.89,1.81-.03.19-.06.42-.06.66v4.13h-1.39v-5.33Z"/>
  <path class="cls-8" d="M86.48,140.55c0-.59.4-1.01.96-1.01s.93.42.94,1.01c0,.56-.37.99-.96.99-.56,0-.94-.43-.94-.99ZM86.48,146.2c0-.59.4-1.01.96-1.01s.93.42.94,1.01c0,.56-.37.99-.96.99-.56,0-.94-.43-.94-.99Z"/>
  <g>
    <path d="M95.62,137.42h-3.28v-1.18h7.99v1.18h-3.3v9.6h-1.41v-9.6Z"/>
    <path d="M108.48,143.08c0,2.87-1.98,4.11-3.86,4.11-2.1,0-3.71-1.54-3.71-3.99,0-2.59,1.7-4.11,3.84-4.11s3.73,1.62,3.73,3.99ZM102.34,143.16c0,1.7.98,2.98,2.35,2.98s2.35-1.26,2.35-3.01c0-1.31-.66-2.98-2.32-2.98s-2.39,1.54-2.39,3.01Z"/>
    <path d="M113.46,145.58c.42.27,1.15.56,1.86.56,1.02,0,1.5-.51,1.5-1.15s-.4-1.04-1.44-1.42c-1.39-.5-2.05-1.26-2.05-2.19,0-1.25,1.01-2.27,2.67-2.27.78,0,1.47.22,1.9.48l-.35,1.02c-.3-.19-.86-.45-1.58-.45-.83,0-1.3.48-1.3,1.06,0,.64.46.93,1.47,1.31,1.34.51,2.03,1.18,2.03,2.34,0,1.36-1.06,2.32-2.9,2.32-.85,0-1.63-.21-2.18-.53l.35-1.07Z"/>
    <path d="M124.27,147.02l-.11-.98h-.05c-.43.61-1.26,1.15-2.37,1.15-1.57,0-2.37-1.1-2.37-2.22,0-1.87,1.67-2.9,4.66-2.88v-.16c0-.64-.18-1.79-1.76-1.79-.72,0-1.47.22-2.02.58l-.32-.93c.64-.42,1.57-.69,2.54-.69,2.37,0,2.95,1.62,2.95,3.17v2.9c0,.67.03,1.33.13,1.86h-1.28ZM124.07,143.07c-1.54-.03-3.28.24-3.28,1.74,0,.91.61,1.34,1.33,1.34,1.01,0,1.65-.64,1.87-1.3.05-.14.08-.3.08-.45v-1.34Z"/>
    <path d="M129.27,137.1c.02.48-.34.86-.9.86-.5,0-.85-.38-.85-.86s.37-.88.88-.88.86.38.86.88ZM127.7,147.02v-7.75h1.41v7.75h-1.41Z"/>
    <path d="M131.44,135.66h1.41v11.36h-1.41v-11.36Z"/>
    <path d="M140.31,137.05v2.22h2.02v1.07h-2.02v4.18c0,.96.27,1.5,1.06,1.5.37,0,.64-.05.82-.1l.06,1.06c-.27.11-.7.19-1.25.19-.66,0-1.18-.21-1.52-.59-.4-.42-.54-1.1-.54-2.02v-4.23h-1.2v-1.07h1.2v-1.86l1.38-.37Z"/>
    <path d="M143.9,135.66h1.41v4.83h.03c.22-.4.58-.75,1.01-.99.42-.24.91-.4,1.44-.4,1.04,0,2.71.64,2.71,3.31v4.61h-1.41v-4.45c0-1.25-.46-2.3-1.79-2.3-.91,0-1.63.64-1.89,1.41-.08.19-.1.4-.1.67v4.67h-1.41v-11.36Z"/>
    <path d="M153.57,143.4c.03,1.9,1.25,2.69,2.66,2.69,1.01,0,1.62-.18,2.15-.4l.24,1.01c-.5.22-1.34.48-2.58.48-2.39,0-3.81-1.57-3.81-3.91s1.38-4.18,3.63-4.18c2.53,0,3.2,2.22,3.2,3.65,0,.29-.03.51-.05.66h-5.44ZM157.7,142.39c.02-.9-.37-2.29-1.95-2.29-1.42,0-2.05,1.31-2.16,2.29h4.11Z"/>
    <path d="M164.05,145.32c.62.38,1.54.7,2.5.7,1.42,0,2.26-.75,2.26-1.84,0-1.01-.58-1.58-2.03-2.14-1.76-.62-2.85-1.54-2.85-3.06,0-1.68,1.39-2.93,3.49-2.93,1.1,0,1.9.26,2.38.53l-.38,1.14c-.35-.19-1.07-.51-2.05-.51-1.47,0-2.03.88-2.03,1.62,0,1.01.66,1.5,2.15,2.08,1.82.7,2.75,1.58,2.75,3.17,0,1.67-1.23,3.11-3.78,3.11-1.04,0-2.18-.3-2.75-.69l.35-1.17Z"/>
    <path d="M172.86,143.4c.03,1.9,1.25,2.69,2.66,2.69,1.01,0,1.62-.18,2.15-.4l.24,1.01c-.5.22-1.34.48-2.58.48-2.39,0-3.81-1.57-3.81-3.91s1.38-4.18,3.63-4.18c2.53,0,3.2,2.22,3.2,3.65,0,.29-.03.51-.05.66h-5.44ZM176.99,142.39c.02-.9-.37-2.29-1.95-2.29-1.42,0-2.05,1.31-2.16,2.29h4.11Z"/>
    <path d="M180.64,139.27l1.52,4.35c.26.7.46,1.34.62,1.99h.05c.18-.64.4-1.28.66-1.99l1.5-4.35h1.47l-3.04,7.75h-1.34l-2.95-7.75h1.5Z"/>
    <path d="M188.58,143.4c.03,1.9,1.25,2.69,2.66,2.69,1.01,0,1.62-.18,2.15-.4l.24,1.01c-.5.22-1.34.48-2.58.48-2.39,0-3.81-1.57-3.81-3.91s1.38-4.18,3.63-4.18c2.53,0,3.2,2.22,3.2,3.65,0,.29-.03.51-.05.66h-5.44ZM192.71,142.39c.02-.9-.37-2.29-1.95-2.29-1.42,0-2.05,1.31-2.16,2.29h4.11Z"/>
    <path d="M195.81,141.37c0-.8-.02-1.46-.06-2.1h1.25l.08,1.28h.03c.38-.74,1.28-1.46,2.56-1.46,1.07,0,2.74.64,2.74,3.3v4.63h-1.41v-4.47c0-1.25-.46-2.29-1.79-2.29-.93,0-1.65.66-1.89,1.44-.06.18-.1.42-.1.66v4.66h-1.41v-5.65Z"/>
    <path d="M207.94,145.32c.62.38,1.54.7,2.5.7,1.42,0,2.26-.75,2.26-1.84,0-1.01-.58-1.58-2.03-2.14-1.76-.62-2.85-1.54-2.85-3.06,0-1.68,1.39-2.93,3.49-2.93,1.1,0,1.9.26,2.38.53l-.38,1.14c-.35-.19-1.07-.51-2.05-.51-1.47,0-2.03.88-2.03,1.62,0,1.01.66,1.5,2.15,2.08,1.82.7,2.75,1.58,2.75,3.17,0,1.67-1.23,3.11-3.78,3.11-1.04,0-2.18-.3-2.75-.69l.35-1.17Z"/>
    <path d="M216.75,143.4c.03,1.9,1.25,2.69,2.66,2.69,1.01,0,1.62-.18,2.15-.4l.24,1.01c-.5.22-1.34.48-2.58.48-2.39,0-3.81-1.57-3.81-3.91s1.38-4.18,3.63-4.18c2.53,0,3.2,2.22,3.2,3.65,0,.29-.03.51-.05.66h-5.44ZM220.88,142.39c.02-.9-.37-2.29-1.95-2.29-1.42,0-2.05,1.31-2.16,2.29h4.11Z"/>
    <path d="M228.27,147.02l-.11-.98h-.05c-.43.61-1.26,1.15-2.37,1.15-1.57,0-2.37-1.1-2.37-2.22,0-1.87,1.67-2.9,4.66-2.88v-.16c0-.64-.18-1.79-1.76-1.79-.72,0-1.47.22-2.02.58l-.32-.93c.64-.42,1.57-.69,2.54-.69,2.37,0,2.95,1.62,2.95,3.17v2.9c0,.67.03,1.33.13,1.86h-1.28ZM228.06,143.07c-1.54-.03-3.28.24-3.28,1.74,0,.91.61,1.34,1.33,1.34,1.01,0,1.65-.64,1.87-1.3.05-.14.08-.3.08-.45v-1.34Z"/>
    <path d="M231.5,145.58c.42.27,1.15.56,1.86.56,1.02,0,1.5-.51,1.5-1.15s-.4-1.04-1.44-1.42c-1.39-.5-2.05-1.26-2.05-2.19,0-1.25,1.01-2.27,2.67-2.27.78,0,1.47.22,1.9.48l-.35,1.02c-.3-.19-.86-.45-1.58-.45-.83,0-1.3.48-1.3,1.06,0,.64.46.93,1.47,1.31,1.34.51,2.03,1.18,2.03,2.34,0,1.36-1.06,2.32-2.9,2.32-.85,0-1.63-.21-2.18-.53l.35-1.07Z"/>
    <path d="M237.69,146.19c0-.59.4-1.01.96-1.01s.94.42.94,1.01-.37,1.01-.96,1.01c-.56,0-.94-.43-.94-1.01Z"/>
  </g>
  <path d="M41.23,175.05c.85-2.57.56-5.38-.81-7.72-2.06-3.58-6.19-5.42-10.23-4.56-3.52-3.92-9.55-4.24-13.46-.72-1.24,1.12-2.17,2.54-2.69,4.13-2.65.54-4.94,2.2-6.28,4.56-2.08,3.58-1.61,8.09,1.17,11.15-.86,2.57-.56,5.38.8,7.72,2.06,3.58,6.2,5.42,10.24,4.56,1.8,2.02,4.38,3.18,7.09,3.16,4.14,0,7.81-2.67,9.07-6.61,2.65-.55,4.94-2.2,6.28-4.56,2.05-3.57,1.58-8.06-1.18-11.12M27.05,194.86c-1.65,0-3.25-.58-4.52-1.64l.22-.13,7.51-4.33c.38-.22.61-.63.62-1.07v-10.59l3.18,1.84s.05.05.06.08v8.77c0,3.9-3.17,7.06-7.06,7.06M11.86,188.38c-.83-1.43-1.13-3.11-.84-4.74l.22.13,7.52,4.33c.38.22.85.22,1.23,0l9.18-5.29v3.67s-.02.07-.05.1l-7.61,4.39c-3.38,1.95-7.7.79-9.65-2.59M9.89,172.02c.83-1.44,2.15-2.54,3.72-3.1v8.92c0,.44.23.85.61,1.06l9.14,5.27-3.17,1.84s-.08.02-.11,0l-7.59-4.38c-3.37-1.96-4.53-6.27-2.59-9.65v.04ZM35.97,178.08l-9.17-5.32,3.17-1.83s.08-.02.11,0l7.59,4.39c3.38,1.95,4.54,6.27,2.59,9.65-.82,1.42-2.11,2.51-3.65,3.09v-8.92c-.01-.44-.26-.84-.64-1.05h0ZM39.13,173.33l-.22-.13-7.5-4.37c-.38-.22-.85-.22-1.23,0l-9.18,5.29v-3.67s.01-.07.04-.1l7.59-4.38c3.38-1.95,7.71-.79,9.66,2.6.82,1.43,1.12,3.1.84,4.73v.03ZM19.26,179.83l-3.17-1.83s-.05-.05-.06-.09v-8.75c0-3.91,3.18-7.07,7.08-7.06,1.65,0,3.24.58,4.51,1.63l-.22.13-7.51,4.34c-.38.22-.61.63-.62,1.07v10.57ZM20.99,176.11l4.09-2.36,4.1,2.36v4.71l-4.08,2.36-4.1-2.36v-4.71Z"/>
  <path d="M541.04,5.35h10.89v2.19h-8.28v6.72h7.65v2.16h-7.65v9.15h-2.61V5.35Z"/>
  <g>
    <path d="M557.72,6.97c.03.9-.63,1.62-1.68,1.62-.93,0-1.59-.72-1.59-1.62s.69-1.65,1.65-1.65,1.62.72,1.62,1.65ZM554.78,25.56v-14.52h2.64v14.52h-2.64Z"/>
    <path d="M561.8,14.98c0-1.5-.03-2.73-.12-3.93h2.34l.15,2.4h.06c.72-1.38,2.4-2.73,4.8-2.73,2.01,0,5.13,1.2,5.13,6.18v8.67h-2.64v-8.37c0-2.34-.87-4.29-3.36-4.29-1.74,0-3.09,1.23-3.54,2.7-.12.33-.18.78-.18,1.23v8.73h-2.64v-10.59Z"/>
    <path d="M579.92,18.79c.06,3.57,2.34,5.04,4.98,5.04,1.89,0,3.03-.33,4.02-.75l.45,1.89c-.93.42-2.52.9-4.83.9-4.47,0-7.14-2.94-7.14-7.32s2.58-7.83,6.81-7.83c4.74,0,6,4.17,6,6.84,0,.54-.06.96-.09,1.23h-10.2ZM587.66,16.9c.03-1.68-.69-4.29-3.66-4.29-2.67,0-3.84,2.46-4.05,4.29h7.71Z"/>
    <path d="M596.66,6.88v4.17h3.78v2.01h-3.78v7.83c0,1.8.51,2.82,1.98,2.82.69,0,1.2-.09,1.53-.18l.12,1.98c-.51.21-1.32.36-2.34.36-1.23,0-2.22-.39-2.85-1.11-.75-.78-1.02-2.07-1.02-3.78v-7.92h-2.25v-2.01h2.25v-3.48l2.58-.69Z"/>
    <path d="M615.56,21.6c0,1.5.03,2.82.12,3.96h-2.34l-.15-2.37h-.06c-.69,1.17-2.22,2.7-4.8,2.7-2.28,0-5.01-1.26-5.01-6.36v-8.49h2.64v8.04c0,2.76.84,4.62,3.24,4.62,1.77,0,3-1.23,3.48-2.4.15-.39.24-.87.24-1.35v-8.91h2.64v10.56Z"/>
    <path d="M619.94,14.98c0-1.5-.03-2.73-.12-3.93h2.34l.15,2.4h.06c.72-1.38,2.4-2.73,4.8-2.73,2.01,0,5.13,1.2,5.13,6.18v8.67h-2.64v-8.37c0-2.34-.87-4.29-3.36-4.29-1.74,0-3.09,1.23-3.54,2.7-.12.33-.18.78-.18,1.23v8.73h-2.64v-10.59Z"/>
    <path d="M639.53,6.97c.03.9-.63,1.62-1.68,1.62-.93,0-1.59-.72-1.59-1.62s.69-1.65,1.65-1.65,1.62.72,1.62,1.65ZM636.59,25.56v-14.52h2.64v14.52h-2.64Z"/>
    <path d="M643.61,14.98c0-1.5-.03-2.73-.12-3.93h2.34l.15,2.4h.06c.72-1.38,2.4-2.73,4.8-2.73,2.01,0,5.13,1.2,5.13,6.18v8.67h-2.64v-8.37c0-2.34-.87-4.29-3.36-4.29-1.74,0-3.09,1.23-3.54,2.7-.12.33-.18.78-.18,1.23v8.73h-2.64v-10.59Z"/>
    <path d="M672.77,11.05c-.06,1.05-.12,2.22-.12,3.99v8.43c0,3.33-.66,5.37-2.07,6.63-1.41,1.32-3.45,1.74-5.28,1.74s-3.66-.42-4.83-1.2l.66-2.01c.96.6,2.46,1.14,4.26,1.14,2.7,0,4.68-1.41,4.68-5.07v-1.62h-.06c-.81,1.35-2.37,2.43-4.62,2.43-3.6,0-6.18-3.06-6.18-7.08,0-4.92,3.21-7.71,6.54-7.71,2.52,0,3.9,1.32,4.53,2.52h.06l.12-2.19h2.31ZM670.04,16.78c0-.45-.03-.84-.15-1.2-.48-1.53-1.77-2.79-3.69-2.79-2.52,0-4.32,2.13-4.32,5.49,0,2.85,1.44,5.22,4.29,5.22,1.62,0,3.09-1.02,3.66-2.7.15-.45.21-.96.21-1.41v-2.61Z"/>
    <path d="M686.57,6.88v4.17h3.78v2.01h-3.78v7.83c0,1.8.51,2.82,1.98,2.82.69,0,1.2-.09,1.53-.18l.12,1.98c-.51.21-1.32.36-2.34.36-1.23,0-2.22-.39-2.85-1.11-.75-.78-1.02-2.07-1.02-3.78v-7.92h-2.25v-2.01h2.25v-3.48l2.58-.69Z"/>
    <path d="M693.32,4.27h2.64v9.06h.06c.42-.75,1.08-1.41,1.89-1.86.78-.45,1.71-.75,2.7-.75,1.95,0,5.07,1.2,5.07,6.21v8.64h-2.64v-8.34c0-2.34-.87-4.32-3.36-4.32-1.71,0-3.06,1.2-3.54,2.64-.15.36-.18.75-.18,1.26v8.76h-2.64V4.27Z"/>
    <path d="M711.44,18.79c.06,3.57,2.34,5.04,4.98,5.04,1.89,0,3.03-.33,4.02-.75l.45,1.89c-.93.42-2.52.9-4.83.9-4.47,0-7.14-2.94-7.14-7.32s2.58-7.83,6.81-7.83c4.74,0,6,4.17,6,6.84,0,.54-.06.96-.09,1.23h-10.2ZM719.18,16.9c.03-1.68-.69-4.29-3.66-4.29-2.67,0-3.84,2.46-4.05,4.29h7.71Z"/>
  </g>
  <path d="M731.45,5.62c1.59-.24,3.48-.42,5.55-.42,3.75,0,6.42.87,8.19,2.52,1.8,1.65,2.85,3.99,2.85,7.26s-1.02,6-2.91,7.86c-1.89,1.89-5.01,2.91-8.94,2.91-1.86,0-3.42-.09-4.74-.24V5.62ZM734.06,23.5c.66.12,1.62.15,2.64.15,5.58,0,8.61-3.12,8.61-8.58.03-4.77-2.67-7.8-8.19-7.8-1.35,0-2.37.12-3.06.27v15.96Z"/>
  <path d="M752.93,18.79c.06,3.57,2.34,5.04,4.98,5.04,1.89,0,3.03-.33,4.02-.75l.45,1.89c-.93.42-2.52.9-4.83.9-4.47,0-7.14-2.94-7.14-7.32s2.58-7.83,6.81-7.83c4.74,0,6,4.17,6,6.84,0,.54-.06.96-.09,1.23h-10.2ZM760.67,16.9c.03-1.68-.69-4.29-3.66-4.29-2.67,0-3.84,2.46-4.05,4.29h7.71Z"/>
  <path d="M776.84,25.02c-.69.36-2.22.84-4.17.84-4.38,0-7.23-2.97-7.23-7.41s3.06-7.71,7.8-7.71c1.56,0,2.94.39,3.66.75l-.6,2.04c-.63-.36-1.62-.69-3.06-.69-3.33,0-5.13,2.46-5.13,5.49,0,3.36,2.16,5.43,5.04,5.43,1.5,0,2.49-.39,3.24-.72l.45,1.98Z"/>
  <g>
    <path d="M792.92,18.19c0,5.37-3.72,7.71-7.23,7.71-3.93,0-6.96-2.88-6.96-7.47,0-4.86,3.18-7.71,7.2-7.71s6.99,3.03,6.99,7.47ZM781.4,18.34c0,3.18,1.83,5.58,4.41,5.58s4.41-2.37,4.41-5.64c0-2.46-1.23-5.58-4.35-5.58s-4.47,2.88-4.47,5.64Z"/>
    <path d="M808.79,4.27v17.55c0,1.29.03,2.76.12,3.75h-2.37l-.12-2.52h-.06c-.81,1.62-2.58,2.85-4.95,2.85-3.51,0-6.21-2.97-6.21-7.38-.03-4.83,2.97-7.8,6.51-7.8,2.22,0,3.72,1.05,4.38,2.22h.06V4.27h2.64ZM806.15,16.96c0-.33-.03-.78-.12-1.11-.39-1.68-1.83-3.06-3.81-3.06-2.73,0-4.35,2.4-4.35,5.61,0,2.94,1.44,5.37,4.29,5.37,1.77,0,3.39-1.17,3.87-3.15.09-.36.12-.72.12-1.14v-2.52Z"/>
    <path d="M814.64,18.79c.06,3.57,2.34,5.04,4.98,5.04,1.89,0,3.03-.33,4.02-.75l.45,1.89c-.93.42-2.52.9-4.83.9-4.47,0-7.14-2.94-7.14-7.32s2.58-7.83,6.81-7.83c4.74,0,6,4.17,6,6.84,0,.54-.06.96-.09,1.23h-10.2ZM822.38,16.9c.03-1.68-.69-4.29-3.66-4.29-2.67,0-3.84,2.46-4.05,4.29h7.71Z"/>
    <path d="M828.2,15.58c0-1.71-.03-3.18-.12-4.53h2.31l.09,2.85h.12c.66-1.95,2.25-3.18,4.02-3.18.3,0,.51.03.75.09v2.49c-.27-.06-.54-.09-.9-.09-1.86,0-3.18,1.41-3.54,3.39-.06.36-.12.78-.12,1.23v7.74h-2.61v-9.99Z"/>
  </g>
  <rect class="cls-1" width="837.68" height="202.48"/>
  <path d="M542.77,164.75c.67-.11,1.55-.21,2.67-.21,1.38,0,2.38.32,3.03.9.59.51.94,1.3.94,2.26s-.29,1.74-.83,2.3c-.74.78-1.94,1.18-3.3,1.18-.42,0-.8-.02-1.12-.1v4.32h-1.39v-10.66ZM544.17,169.95c.3.08.69.11,1.15.11,1.68,0,2.71-.82,2.71-2.31s-1.01-2.11-2.54-2.11c-.61,0-1.07.05-1.31.11v4.19Z"/>
  <path d="M555.11,175.41l-.11-.98h-.05c-.43.61-1.26,1.15-2.37,1.15-1.57,0-2.37-1.1-2.37-2.22,0-1.87,1.66-2.9,4.66-2.88v-.16c0-.64-.18-1.79-1.76-1.79-.72,0-1.47.22-2.02.58l-.32-.93c.64-.42,1.57-.69,2.54-.69,2.37,0,2.95,1.62,2.95,3.17v2.9c0,.67.03,1.33.13,1.86h-1.28ZM554.9,171.46c-1.54-.03-3.28.24-3.28,1.74,0,.91.61,1.34,1.33,1.34,1.01,0,1.65-.64,1.87-1.3.05-.14.08-.3.08-.45v-1.34Z"/>
  <path d="M560.18,165.44v2.22h2.02v1.07h-2.02v4.18c0,.96.27,1.5,1.06,1.5.37,0,.64-.05.82-.1l.06,1.06c-.27.11-.7.19-1.25.19-.66,0-1.18-.21-1.52-.59-.4-.42-.54-1.1-.54-2.02v-4.23h-1.2v-1.07h1.2v-1.86l1.38-.37Z"/>
  <g>
    <path d="M569.21,175.12c-.37.19-1.18.45-2.22.45-2.34,0-3.86-1.58-3.86-3.95s1.63-4.11,4.16-4.11c.83,0,1.57.21,1.95.4l-.32,1.09c-.34-.19-.86-.37-1.63-.37-1.78,0-2.74,1.31-2.74,2.93,0,1.79,1.15,2.9,2.69,2.9.8,0,1.33-.21,1.73-.38l.24,1.06Z"/>
    <path d="M570.85,164.04h1.41v4.83h.03c.22-.4.58-.75,1.01-.99.42-.24.91-.4,1.44-.4,1.04,0,2.71.64,2.71,3.31v4.61h-1.41v-4.45c0-1.25-.46-2.3-1.79-2.3-.91,0-1.63.64-1.89,1.41-.08.19-.1.4-.1.67v4.67h-1.41v-11.36Z"/>
  </g>
  <g class="cls-17">
    <path class="cls-9" d="M776.47,53.12h36.97c5.46,0,9.89,4.43,9.89,9.89v105.97c0,5.46-4.43,9.89-9.89,9.89h-36.97c-5.46,0-9.89-4.43-9.89-9.89V63.02c0-5.46,4.43-9.89,9.89-9.89Z"/>
    <path d="M813.44,53.25c5.39,0,9.77,4.38,9.77,9.77v105.97c0,5.39-4.38,9.77-9.77,9.77h-36.97c-5.39,0-9.77-4.38-9.77-9.77V63.02c0-5.39,4.38-9.77,9.77-9.77h36.97ZM813.44,53h-36.97c-5.53,0-10.02,4.48-10.02,10.02v105.97c0,5.53,4.48,10.02,10.02,10.02h36.97c5.53,0,10.02-4.48,10.02-10.02V63.02c0-5.53-4.48-10.02-10.02-10.02"/>
    <rect class="cls-1" x="766.45" y="53" width="57" height="126"/>
    <rect class="cls-1" x="766.45" y="53" width="57" height="126"/>
  </g>
  <rect class="cls-1" width="837.68" height="205"/>
  <g>
    <path class="cls-8" d="M677.62,37.41h-3.28v-1.18h7.99v1.18h-3.3v9.6h-1.41v-9.6Z"/>
    <path class="cls-8" d="M690.49,43.07c0,2.87-1.99,4.11-3.86,4.11-2.1,0-3.71-1.54-3.71-3.99,0-2.59,1.7-4.11,3.84-4.11s3.73,1.62,3.73,3.99ZM684.34,43.15c0,1.7.98,2.98,2.35,2.98s2.35-1.26,2.35-3.01c0-1.31-.66-2.98-2.32-2.98s-2.38,1.54-2.38,3.01Z"/>
    <path class="cls-8" d="M695.46,45.57c.42.27,1.15.56,1.86.56,1.02,0,1.5-.51,1.5-1.15,0-.67-.4-1.04-1.44-1.42-1.39-.5-2.05-1.26-2.05-2.19,0-1.25,1.01-2.27,2.67-2.27.78,0,1.47.22,1.9.48l-.35,1.02c-.3-.19-.86-.45-1.58-.45-.83,0-1.3.48-1.3,1.06,0,.64.46.93,1.47,1.31,1.34.51,2.03,1.18,2.03,2.34,0,1.36-1.06,2.32-2.9,2.32-.85,0-1.63-.21-2.18-.53l.35-1.07Z"/>
    <path class="cls-8" d="M706.28,47.01l-.11-.98h-.05c-.43.61-1.26,1.15-2.37,1.15-1.57,0-2.37-1.1-2.37-2.23,0-1.87,1.66-2.9,4.66-2.88v-.16c0-.64-.18-1.79-1.76-1.79-.72,0-1.47.22-2.02.58l-.32-.93c.64-.42,1.57-.69,2.54-.69,2.37,0,2.95,1.62,2.95,3.17v2.9c0,.67.03,1.33.13,1.86h-1.28ZM706.07,43.06c-1.54-.03-3.28.24-3.28,1.74,0,.91.61,1.34,1.33,1.34,1.01,0,1.65-.64,1.87-1.3.05-.14.08-.3.08-.45v-1.34Z"/>
    <path class="cls-8" d="M711.27,37.09c.02.48-.34.86-.9.86-.5,0-.85-.38-.85-.86s.37-.88.88-.88.86.38.86.88ZM709.7,47.01v-7.75h1.41v7.75h-1.41Z"/>
    <path class="cls-8" d="M713.45,35.65h1.41v11.36h-1.41v-11.36Z"/>
    <path class="cls-8" d="M722.31,37.04v2.23h2.02v1.07h-2.02v4.18c0,.96.27,1.5,1.06,1.5.37,0,.64-.05.82-.1l.06,1.06c-.27.11-.7.19-1.25.19-.66,0-1.18-.21-1.52-.59-.4-.42-.54-1.1-.54-2.02v-4.23h-1.2v-1.07h1.2v-1.86l1.38-.37Z"/>
    <path class="cls-8" d="M725.91,35.65h1.41v4.83h.03c.22-.4.58-.75,1.01-.99.42-.24.91-.4,1.44-.4,1.04,0,2.71.64,2.71,3.31v4.61h-1.41v-4.45c0-1.25-.46-2.31-1.79-2.31-.91,0-1.63.64-1.89,1.41-.08.19-.1.4-.1.67v4.67h-1.41v-11.36Z"/>
    <path class="cls-8" d="M735.57,43.39c.03,1.9,1.25,2.69,2.66,2.69,1.01,0,1.62-.18,2.15-.4l.24,1.01c-.5.22-1.34.48-2.58.48-2.38,0-3.81-1.57-3.81-3.91s1.38-4.18,3.63-4.18c2.53,0,3.2,2.23,3.2,3.65,0,.29-.03.51-.05.66h-5.44ZM739.7,42.39c.02-.9-.37-2.29-1.95-2.29-1.42,0-2.05,1.31-2.16,2.29h4.11Z"/>
    <path class="cls-8" d="M746.05,45.32c.62.38,1.54.7,2.5.7,1.42,0,2.26-.75,2.26-1.84,0-1.01-.58-1.58-2.03-2.15-1.76-.62-2.85-1.54-2.85-3.06,0-1.68,1.39-2.93,3.49-2.93,1.1,0,1.91.26,2.38.53l-.38,1.14c-.35-.19-1.07-.51-2.05-.51-1.47,0-2.03.88-2.03,1.62,0,1.01.66,1.5,2.15,2.08,1.82.7,2.75,1.58,2.75,3.17,0,1.66-1.23,3.11-3.78,3.11-1.04,0-2.18-.3-2.75-.69l.35-1.17Z"/>
    <path class="cls-8" d="M754.87,43.39c.03,1.9,1.25,2.69,2.66,2.69,1.01,0,1.62-.18,2.14-.4l.24,1.01c-.5.22-1.34.48-2.58.48-2.38,0-3.81-1.57-3.81-3.91s1.38-4.18,3.63-4.18c2.53,0,3.2,2.23,3.2,3.65,0,.29-.03.51-.05.66h-5.44ZM759,42.39c.02-.9-.37-2.29-1.95-2.29-1.42,0-2.05,1.31-2.16,2.29h4.11Z"/>
    <path class="cls-8" d="M762.65,39.27l1.52,4.35c.26.7.46,1.34.62,1.98h.05c.18-.64.4-1.28.66-1.98l1.5-4.35h1.47l-3.04,7.75h-1.34l-2.95-7.75h1.5Z"/>
    <path class="cls-8" d="M770.58,43.39c.03,1.9,1.25,2.69,2.66,2.69,1.01,0,1.62-.18,2.15-.4l.24,1.01c-.5.22-1.34.48-2.58.48-2.38,0-3.81-1.57-3.81-3.91s1.38-4.18,3.63-4.18c2.53,0,3.2,2.23,3.2,3.65,0,.29-.03.51-.05.66h-5.44ZM774.71,42.39c.02-.9-.37-2.29-1.95-2.29-1.42,0-2.05,1.31-2.16,2.29h4.11Z"/>
    <path class="cls-8" d="M777.81,41.36c0-.8-.02-1.46-.06-2.1h1.25l.08,1.28h.03c.38-.74,1.28-1.46,2.56-1.46,1.07,0,2.74.64,2.74,3.3v4.63h-1.41v-4.47c0-1.25-.46-2.29-1.79-2.29-.93,0-1.65.66-1.89,1.44-.06.18-.1.42-.1.66v4.66h-1.41v-5.65Z"/>
    <path class="cls-8" d="M789.94,45.32c.62.38,1.54.7,2.5.7,1.42,0,2.26-.75,2.26-1.84,0-1.01-.58-1.58-2.03-2.15-1.76-.62-2.85-1.54-2.85-3.06,0-1.68,1.39-2.93,3.49-2.93,1.1,0,1.91.26,2.38.53l-.38,1.14c-.35-.19-1.07-.51-2.05-.51-1.47,0-2.03.88-2.03,1.62,0,1.01.66,1.5,2.15,2.08,1.82.7,2.75,1.58,2.75,3.17,0,1.66-1.23,3.11-3.78,3.11-1.04,0-2.18-.3-2.75-.69l.35-1.17Z"/>
    <path class="cls-8" d="M798.76,43.39c.03,1.9,1.25,2.69,2.66,2.69,1.01,0,1.62-.18,2.15-.4l.24,1.01c-.5.22-1.34.48-2.58.48-2.38,0-3.81-1.57-3.81-3.91s1.38-4.18,3.63-4.18c2.53,0,3.2,2.23,3.2,3.65,0,.29-.03.51-.05.66h-5.44ZM802.89,42.39c.02-.9-.37-2.29-1.95-2.29-1.42,0-2.05,1.31-2.16,2.29h4.11Z"/>
    <path class="cls-8" d="M810.28,47.01l-.11-.98h-.05c-.43.61-1.26,1.15-2.37,1.15-1.57,0-2.37-1.1-2.37-2.23,0-1.87,1.66-2.9,4.66-2.88v-.16c0-.64-.18-1.79-1.76-1.79-.72,0-1.47.22-2.02.58l-.32-.93c.64-.42,1.57-.69,2.54-.69,2.37,0,2.95,1.62,2.95,3.17v2.9c0,.67.03,1.33.13,1.86h-1.28ZM810.07,43.06c-1.54-.03-3.28.24-3.28,1.74,0,.91.61,1.34,1.33,1.34,1.01,0,1.65-.64,1.87-1.3.05-.14.08-.3.08-.45v-1.34Z"/>
    <path class="cls-8" d="M813.51,45.57c.42.27,1.15.56,1.86.56,1.02,0,1.5-.51,1.5-1.15,0-.67-.4-1.04-1.44-1.42-1.39-.5-2.05-1.26-2.05-2.19,0-1.25,1.01-2.27,2.67-2.27.78,0,1.47.22,1.9.48l-.35,1.02c-.3-.19-.86-.45-1.58-.45-.83,0-1.3.48-1.3,1.06,0,.64.46.93,1.47,1.31,1.34.51,2.03,1.18,2.03,2.34,0,1.36-1.06,2.32-2.9,2.32-.85,0-1.63-.21-2.18-.53l.35-1.07Z"/>
    <path class="cls-8" d="M819.7,46.18c0-.59.4-1.01.96-1.01s.94.42.94,1.01-.37,1.01-.96,1.01c-.56,0-.94-.43-.94-1.01Z"/>
  </g>
  <g class="cls-16">
    <path d="M234.72,153H11.61c-5.22,0-9.45-4.33-9.45-9.67V63.17c0-5.34,4.23-9.67,9.45-9.67h223.11c5.22,0,9.45,4.33,9.45,9.67v80.17c0,5.34-4.23,9.67-9.45,9.67"/>
    <rect class="cls-1" x="2.16" y="53.5" width="242.02" height="99.5"/>
  </g>
  <rect class="cls-1" width="837.68" height="205"/>
  <path d="M781.29,111.42h1.39v9.62h4.61v1.17h-6v-10.79Z"/>
  <path d="M795.6,118.27c0,2.87-1.99,4.11-3.86,4.11-2.1,0-3.71-1.54-3.71-3.99,0-2.59,1.7-4.11,3.84-4.11s3.73,1.62,3.73,3.99ZM789.46,118.35c0,1.7.98,2.98,2.35,2.98s2.35-1.26,2.35-3.01c0-1.31-.66-2.98-2.32-2.98s-2.38,1.54-2.38,3.01Z"/>
  <path d="M797.42,111.57c.7-.14,1.71-.22,2.67-.22,1.49,0,2.45.27,3.12.88.54.48.85,1.22.85,2.05,0,1.42-.9,2.37-2.03,2.75v.05c.83.29,1.33,1.06,1.58,2.18.35,1.5.61,2.54.83,2.96h-1.44c-.18-.3-.42-1.23-.72-2.58-.32-1.49-.9-2.05-2.16-2.1h-1.31v4.67h-1.39v-10.64ZM798.82,116.48h1.42c1.49,0,2.43-.82,2.43-2.05,0-1.39-1.01-2-2.48-2.02-.67,0-1.15.06-1.38.13v3.94Z"/>
  <path d="M807.86,118.82l-1.12,3.39h-1.44l3.67-10.79h1.68l3.68,10.79h-1.49l-1.15-3.39h-3.83ZM811.39,117.73l-1.06-3.11c-.24-.7-.4-1.34-.56-1.97h-.03c-.16.64-.34,1.3-.54,1.95l-1.06,3.12h3.25Z"/>
  <path d="M26.22,8.95h-.06l-3.21,1.73-.48-1.9,4.03-2.16h2.13v18.45h-2.41V8.95Z"/>
  <circle class="cls-6" cx="26.95" cy="16.16" r="14.37"/>
  <path d="M508.5,25.66v-1.53l1.95-1.89c4.69-4.46,6.81-6.84,6.84-9.61,0-1.87-.9-3.59-3.65-3.59-1.67,0-3.05.85-3.9,1.55l-.79-1.75c1.27-1.07,3.08-1.86,5.2-1.86,3.96,0,5.62,2.71,5.62,5.34,0,3.39-2.46,6.13-6.33,9.86l-1.47,1.36v.06h8.25v2.06h-11.73Z"/>
  <path class="cls-6" d="M528.78,16.38c0-7.9-6.41-14.31-14.3-14.31s-14.31,6.4-14.31,14.31,6.4,14.31,14.31,14.31,14.3-6.4,14.3-14.31Z"/>
  <g class="cls-16">
    <path class="cls-10" d="M463.58,150.1h-204.73c-3.94,0-7.13-3.19-7.13-7.13v-4.73c0-3.94,3.19-7.14,7.13-7.14h204.73c3.94,0,7.14,3.19,7.14,7.14v4.73c0,3.94-3.2,7.13-7.14,7.13"/>
    <rect class="cls-1" x="251.71" y="131.1" width="219" height="19"/>
    <rect class="cls-1" x="251.71" y="131.1" width="219" height="19"/>
  </g>
  <g class="cls-16">
    <path class="cls-11" d="M463.58,102.1h-204.73c-3.94,0-7.13-3.19-7.13-7.14v-4.73c0-3.94,3.19-7.14,7.13-7.14h204.73c3.94,0,7.14,3.19,7.14,7.14v4.73c0,3.94-3.2,7.14-7.14,7.14"/>
    <rect class="cls-1" x="251.71" y="83.1" width="219" height="19"/>
    <rect class="cls-1" x="251.71" y="83.1" width="219" height="19"/>
  </g>
  <g class="cls-16">
    <path class="cls-18" d="M463.58,78.1h-204.73c-3.94,0-7.13-3.19-7.13-7.13v-4.73c0-3.94,3.19-7.13,7.13-7.13h204.73c3.94,0,7.14,3.19,7.14,7.13v4.73c0,3.94-3.2,7.13-7.14,7.13"/>
    <rect class="cls-1" x="251.71" y="59.1" width="219" height="19"/>
    <rect class="cls-1" x="251.71" y="59.1" width="219" height="19"/>
  </g>
  <g class="cls-16">
    <path class="cls-19" d="M817.25,126.1h-209.98c-3.62,0-6.55-3.19-6.55-7.14v-4.73c0-3.94,2.93-7.14,6.55-7.14h209.98c3.62,0,6.55,3.19,6.55,7.14v4.73c0,3.94-2.93,7.14-6.55,7.14"/>
    <rect class="cls-1" x="600.72" y="107.1" width="223.08" height="19"/>
    <rect class="cls-1" x="600.71" y="107.1" width="223.09" height="19"/>
  </g>
  <path d="M814.74,54.1c4.49,0,8.15,4.04,8.15,9.01v105.97c0,4.97-3.66,9.01-8.15,9.01h-207.97c-4.49,0-8.15-4.04-8.15-9.01V63.11c0-4.97,3.66-9.01,8.15-9.01h207.97ZM814.74,53.1h-207.97c-5,0-9.06,4.48-9.06,10.01v105.97c0,5.53,4.05,10.01,9.06,10.01h207.97c5,0,9.06-4.48,9.06-10.01V63.11c0-5.53-4.05-10.01-9.06-10.01"/>
  <g class="cls-16">
    <path class="cls-13" d="M819.04,174.1h-213.58c-2.63,0-4.76-2.32-4.76-5.18v-8.63c0-2.86,2.13-5.18,4.76-5.18h213.58c2.63,0,4.76,2.32,4.76,5.18v8.63c0,2.86-2.13,5.18-4.76,5.18"/>
    <rect class="cls-1" x="600.7" y="155.1" width="223.09" height="19"/>
    <rect class="cls-1" x="600.7" y="155.1" width="223.1" height="19"/>
  </g>
  <path class="cls-3" d="M606.55,155.6h38.32c2.95,0,5.34,2.39,5.34,5.34v7.32c0,2.95-2.39,5.34-5.34,5.34h-38.33c-2.95,0-5.34-2.39-5.34-5.34v-7.33c0-2.95,2.39-5.34,5.34-5.34Z"/>
  <g class="cls-16">
    <path class="cls-10" d="M817.25,150.1h-209.98c-3.62,0-6.55-3.19-6.55-7.13v-4.73c0-3.94,2.93-7.14,6.55-7.14h209.98c3.62,0,6.55,3.19,6.55,7.14v4.73c0,3.94-2.93,7.13-6.55,7.13"/>
    <rect class="cls-1" x="600.72" y="131.1" width="223.08" height="19"/>
    <rect class="cls-1" x="600.71" y="131.1" width="223.09" height="19"/>
  </g>
  <g class="cls-16">
    <path class="cls-11" d="M817.25,102.1h-209.98c-3.62,0-6.55-3.19-6.55-7.14v-4.73c0-3.94,2.93-7.14,6.55-7.14h209.98c3.62,0,6.55,3.19,6.55,7.14v4.73c0,3.94-2.93,7.14-6.55,7.14"/>
    <rect class="cls-1" x="600.72" y="83.1" width="223.08" height="19"/>
    <rect class="cls-1" x="600.71" y="83.1" width="223.09" height="19"/>
  </g>
  <g class="cls-16">
    <path class="cls-18" d="M817.25,78.1h-209.98c-3.62,0-6.55-3.19-6.55-7.13v-4.73c0-3.94,2.93-7.13,6.55-7.13h209.98c3.62,0,6.55,3.19,6.55,7.13v4.73c0,3.94-2.93,7.13-6.55,7.13"/>
    <rect class="cls-1" x="600.72" y="59.1" width="223.08" height="19"/>
    <rect class="cls-1" x="600.71" y="59.1" width="223.09" height="19"/>
  </g>
  <rect class="cls-1" y=".1" width="837.68" height="204.9"/>
  <path d="M608.49,63.13c.85-.13,1.86-.22,2.96-.22,2,0,3.43.46,4.37,1.34.96.88,1.52,2.13,1.52,3.87s-.54,3.2-1.55,4.19c-1.01,1.01-2.67,1.55-4.77,1.55-.99,0-1.82-.05-2.53-.13v-10.61ZM609.88,72.67c.35.06.86.08,1.41.08,2.98,0,4.59-1.66,4.59-4.58.02-2.55-1.42-4.16-4.37-4.16-.72,0-1.26.06-1.63.14v8.52Z"/>
  <path d="M619.95,70.16c.03,1.9,1.25,2.69,2.66,2.69,1.01,0,1.62-.18,2.14-.4l.24,1.01c-.5.22-1.34.48-2.58.48-2.38,0-3.81-1.57-3.81-3.91s1.38-4.18,3.63-4.18c2.53,0,3.2,2.23,3.2,3.65,0,.29-.03.51-.05.66h-5.44ZM624.08,69.15c.02-.9-.37-2.29-1.95-2.29-1.42,0-2.05,1.31-2.16,2.29h4.11Z"/>
  <path d="M632.7,73.49c-.37.19-1.18.45-2.22.45-2.34,0-3.86-1.58-3.86-3.95s1.63-4.11,4.16-4.11c.83,0,1.57.21,1.95.4l-.32,1.09c-.34-.19-.86-.37-1.63-.37-1.78,0-2.74,1.31-2.74,2.93,0,1.79,1.15,2.9,2.69,2.9.8,0,1.33-.21,1.73-.38l.24,1.06Z"/>
  <g>
    <path d="M641.26,69.84c0,2.87-1.99,4.11-3.86,4.11-2.1,0-3.71-1.54-3.71-3.99,0-2.59,1.7-4.11,3.84-4.11s3.73,1.62,3.73,3.99ZM635.11,69.92c0,1.7.98,2.98,2.35,2.98s2.35-1.26,2.35-3.01c0-1.31-.66-2.98-2.32-2.98s-2.38,1.54-2.38,3.01Z"/>
    <path d="M649.72,62.41v9.36c0,.69.02,1.47.06,2h-1.26l-.06-1.34h-.03c-.43.86-1.38,1.52-2.64,1.52-1.87,0-3.31-1.58-3.31-3.94-.02-2.58,1.58-4.16,3.47-4.16,1.18,0,1.98.56,2.34,1.18h.03v-4.63h1.41ZM648.32,69.18c0-.18-.02-.42-.06-.59-.21-.9-.98-1.63-2.03-1.63-1.46,0-2.32,1.28-2.32,2.99,0,1.57.77,2.87,2.29,2.87.95,0,1.81-.62,2.07-1.68.05-.19.06-.38.06-.61v-1.34Z"/>
    <path d="M652.84,70.16c.03,1.9,1.25,2.69,2.66,2.69,1.01,0,1.62-.18,2.15-.4l.24,1.01c-.5.22-1.34.48-2.58.48-2.38,0-3.81-1.57-3.81-3.91s1.38-4.18,3.63-4.18c2.53,0,3.2,2.23,3.2,3.65,0,.29-.03.51-.05.66h-5.44ZM656.97,69.15c.02-.9-.37-2.29-1.95-2.29-1.42,0-2.05,1.31-2.16,2.29h4.11Z"/>
    <path d="M660.07,68.45c0-.91-.02-1.7-.06-2.42h1.23l.05,1.52h.06c.35-1.04,1.2-1.7,2.14-1.7.16,0,.27.02.4.05v1.33c-.14-.03-.29-.05-.48-.05-.99,0-1.7.75-1.89,1.81-.03.19-.06.42-.06.66v4.13h-1.39v-5.33Z"/>
    <path d="M668.75,62.99h1.39v9.62h4.61v1.17h-6v-10.79Z"/>
    <path d="M676.3,62.99h1.39v9.62h4.61v1.17h-6v-10.79Z"/>
    <path d="M692.94,69.04c-.08-1.5-.18-3.31-.16-4.66h-.05c-.37,1.26-.82,2.61-1.36,4.1l-1.9,5.23h-1.06l-1.75-5.14c-.51-1.52-.94-2.91-1.25-4.19h-.03c-.03,1.34-.11,3.15-.21,4.77l-.29,4.63h-1.33l.75-10.79h1.78l1.84,5.22c.45,1.33.82,2.51,1.09,3.63h.05c.27-1.09.66-2.27,1.14-3.63l1.92-5.22h1.78l.67,10.79h-1.36l-.27-4.74Z"/>
  </g>
  <path d="M260.25,64.05h-3.28v-1.18h7.99v1.18h-3.3v9.6h-1.41v-9.6Z"/>
  <path d="M269.39,73.65l-.11-.98h-.05c-.43.61-1.26,1.15-2.37,1.15-1.57,0-2.37-1.1-2.37-2.23,0-1.87,1.67-2.9,4.66-2.88v-.16c0-.64-.18-1.79-1.76-1.79-.72,0-1.47.22-2.02.58l-.32-.93c.64-.42,1.57-.69,2.54-.69,2.37,0,2.95,1.62,2.95,3.17v2.9c0,.67.03,1.33.13,1.86h-1.28ZM269.18,69.7c-1.54-.03-3.28.24-3.28,1.74,0,.91.61,1.34,1.33,1.34,1.01,0,1.65-.64,1.87-1.3.05-.14.08-.3.08-.45v-1.34Z"/>
  <path d="M272.81,68.32c0-.91-.02-1.7-.06-2.42h1.23l.05,1.52h.06c.35-1.04,1.2-1.7,2.14-1.7.16,0,.27.02.4.05v1.33c-.14-.03-.29-.05-.48-.05-.99,0-1.7.75-1.89,1.81-.03.19-.06.42-.06.66v4.13h-1.39v-5.33Z"/>
  <g>
    <path d="M284.59,65.9c-.03.56-.06,1.18-.06,2.13v4.5c0,1.78-.35,2.87-1.1,3.54-.75.7-1.84.93-2.82.93s-1.95-.22-2.58-.64l.35-1.07c.51.32,1.31.61,2.27.61,1.44,0,2.5-.75,2.5-2.71v-.86h-.03c-.43.72-1.26,1.3-2.46,1.3-1.92,0-3.3-1.63-3.3-3.78,0-2.62,1.71-4.11,3.49-4.11,1.34,0,2.08.7,2.42,1.34h.03l.06-1.17h1.23ZM283.13,68.96c0-.24-.02-.45-.08-.64-.26-.82-.94-1.49-1.97-1.49-1.34,0-2.31,1.14-2.31,2.93,0,1.52.77,2.79,2.29,2.79.86,0,1.65-.54,1.95-1.44.08-.24.11-.51.11-.75v-1.39Z"/>
    <path d="M287.64,70.03c.03,1.9,1.25,2.69,2.66,2.69,1.01,0,1.62-.18,2.15-.4l.24,1.01c-.5.22-1.34.48-2.58.48-2.39,0-3.81-1.57-3.81-3.91s1.38-4.18,3.63-4.18c2.53,0,3.2,2.23,3.2,3.65,0,.29-.03.51-.05.66h-5.44ZM291.77,69.02c.02-.9-.37-2.29-1.95-2.29-1.42,0-2.05,1.31-2.16,2.29h4.11Z"/>
    <path d="M296.57,63.68v2.23h2.02v1.07h-2.02v4.18c0,.96.27,1.5,1.06,1.5.37,0,.64-.05.82-.1l.06,1.06c-.27.11-.7.19-1.25.19-.66,0-1.18-.21-1.52-.59-.4-.42-.54-1.1-.54-2.02v-4.23h-1.2v-1.07h1.2v-1.86l1.38-.37Z"/>
    <path d="M303.61,62.86h1.39v9.62h4.61v1.17h-6v-10.79Z"/>
    <path d="M311.16,62.86h1.39v9.62h4.61v1.17h-6v-10.79Z"/>
    <path d="M327.8,68.91c-.08-1.5-.18-3.31-.16-4.66h-.05c-.37,1.26-.82,2.61-1.36,4.1l-1.9,5.23h-1.06l-1.74-5.14c-.51-1.52-.94-2.91-1.25-4.19h-.03c-.03,1.34-.11,3.15-.21,4.77l-.29,4.63h-1.33l.75-10.79h1.78l1.84,5.22c.45,1.33.82,2.51,1.09,3.63h.05c.27-1.09.66-2.27,1.14-3.63l1.92-5.22h1.78l.67,10.79h-1.36l-.27-4.74Z"/>
  </g>
  <g>
    <path d="M362.12,34.16v10.79h-1.39v-10.79h1.39Z"/>
    <path d="M366.2,34.98v2.23h2.02v1.07h-2.02v4.18c0,.96.27,1.5,1.06,1.5.37,0,.64-.05.82-.1l.06,1.06c-.27.11-.7.19-1.25.19-.66,0-1.18-.21-1.52-.59-.4-.42-.54-1.1-.54-2.02v-4.23h-1.2v-1.07h1.2v-1.86l1.38-.37Z"/>
    <path d="M373.13,44.95c.03-.53.06-1.31.06-2v-9.36h1.39v4.87h.03c.5-.86,1.39-1.42,2.64-1.42,1.92,0,3.28,1.6,3.27,3.95,0,2.77-1.74,4.15-3.47,4.15-1.12,0-2.02-.43-2.59-1.46h-.05l-.06,1.28h-1.22ZM374.59,41.85c0,.18.03.35.06.51.27.98,1.09,1.65,2.11,1.65,1.47,0,2.35-1.2,2.35-2.98,0-1.55-.8-2.88-2.3-2.88-.96,0-1.86.66-2.15,1.73-.03.16-.08.35-.08.58v1.39Z"/>
    <path d="M383.08,41.34c.03,1.9,1.25,2.69,2.66,2.69,1.01,0,1.62-.18,2.15-.4l.24,1.01c-.5.22-1.34.48-2.58.48-2.39,0-3.81-1.57-3.81-3.91s1.38-4.18,3.63-4.18c2.53,0,3.2,2.23,3.2,3.65,0,.29-.03.51-.05.66h-5.44ZM387.21,40.33c.02-.9-.37-2.29-1.95-2.29-1.42,0-2.05,1.31-2.16,2.29h4.11Z"/>
    <path d="M393.64,44.95c.03-.53.06-1.31.06-2v-9.36h1.39v4.87h.03c.5-.86,1.39-1.42,2.64-1.42,1.92,0,3.28,1.6,3.27,3.95,0,2.77-1.74,4.15-3.47,4.15-1.12,0-2.02-.43-2.59-1.46h-.05l-.06,1.28h-1.22ZM395.1,41.85c0,.18.03.35.06.51.27.98,1.09,1.65,2.11,1.65,1.47,0,2.35-1.2,2.35-2.98,0-1.55-.8-2.88-2.3-2.88-.96,0-1.86.66-2.15,1.73-.03.16-.08.35-.08.58v1.39Z"/>
    <path d="M402.81,33.59h1.41v11.36h-1.41v-11.36Z"/>
    <path d="M413.07,42.84c0,.8.02,1.5.06,2.11h-1.25l-.08-1.26h-.03c-.37.62-1.18,1.44-2.56,1.44-1.22,0-2.67-.67-2.67-3.39v-4.53h1.41v4.29c0,1.47.45,2.47,1.73,2.47.94,0,1.6-.66,1.86-1.28.08-.21.13-.46.13-.72v-4.75h1.41v5.63Z"/>
    <path d="M416.19,41.34c.03,1.9,1.25,2.69,2.66,2.69,1.01,0,1.62-.18,2.14-.4l.24,1.01c-.5.22-1.34.48-2.58.48-2.39,0-3.81-1.57-3.81-3.91s1.38-4.18,3.63-4.18c2.53,0,3.2,2.23,3.2,3.65,0,.29-.03.51-.05.66h-5.44ZM420.32,40.33c.02-.9-.37-2.29-1.95-2.29-1.42,0-2.05,1.31-2.16,2.29h4.11Z"/>
    <path d="M422.5,46.92c.35-.94.78-2.66.96-3.83l1.57-.16c-.37,1.36-1.07,3.14-1.52,3.89l-1.01.1Z"/>
    <path d="M430.12,39.3c0-.8-.02-1.46-.06-2.1h1.23l.06,1.25h.05c.43-.74,1.15-1.42,2.43-1.42,1.06,0,1.86.64,2.19,1.55h.03c.24-.43.54-.77.87-1.01.46-.35.98-.54,1.71-.54,1.02,0,2.54.67,2.54,3.36v4.56h-1.38v-4.39c0-1.49-.54-2.38-1.68-2.38-.8,0-1.42.59-1.67,1.28-.06.19-.11.45-.11.7v4.79h-1.38v-4.64c0-1.23-.54-2.13-1.62-2.13-.88,0-1.52.7-1.74,1.41-.08.21-.11.45-.11.69v4.67h-1.38v-5.65Z"/>
    <path d="M447.75,44.95l-.11-.98h-.05c-.43.61-1.26,1.15-2.37,1.15-1.57,0-2.37-1.1-2.37-2.23,0-1.87,1.66-2.9,4.66-2.88v-.16c0-.64-.18-1.79-1.76-1.79-.72,0-1.47.22-2.02.58l-.32-.93c.64-.42,1.57-.69,2.54-.69,2.37,0,2.95,1.62,2.95,3.17v2.9c0,.67.03,1.33.13,1.86h-1.28ZM447.55,41c-1.54-.03-3.28.24-3.28,1.74,0,.91.61,1.34,1.33,1.34,1.01,0,1.65-.64,1.87-1.3.05-.14.08-.3.08-.45v-1.34Z"/>
    <path d="M452.87,34.98v2.23h2.02v1.07h-2.02v4.18c0,.96.27,1.5,1.06,1.5.37,0,.64-.05.82-.1l.06,1.06c-.27.11-.7.19-1.25.19-.66,0-1.18-.21-1.52-.59-.4-.42-.54-1.1-.54-2.02v-4.23h-1.2v-1.07h1.2v-1.86l1.38-.37Z"/>
    <path d="M457.26,41.34c.03,1.9,1.25,2.69,2.66,2.69,1.01,0,1.62-.18,2.15-.4l.24,1.01c-.5.22-1.34.48-2.58.48-2.38,0-3.81-1.57-3.81-3.91s1.38-4.18,3.63-4.18c2.53,0,3.2,2.23,3.2,3.65,0,.29-.03.51-.05.66h-5.44ZM461.39,40.33c.02-.9-.37-2.29-1.95-2.29-1.42,0-2.05,1.31-2.16,2.29h4.11Z"/>
    <path d="M465,37.21l1.7,4.58c.18.51.37,1.12.5,1.58h.03c.14-.46.3-1.06.5-1.62l1.54-4.55h1.49l-2.11,5.52c-1.01,2.66-1.7,4.02-2.66,4.85-.69.61-1.38.85-1.73.91l-.35-1.18c.35-.11.82-.34,1.23-.69.38-.3.86-.85,1.18-1.57.06-.14.11-.26.11-.34s-.03-.19-.1-.37l-2.86-7.14h1.54Z"/>
    <path d="M471.75,44.14c0-.58.4-.99.94-.99.58,0,.94.42.94.99s-.37.99-.94.99-.94-.43-.94-.99ZM472.15,41.85l-.22-7.68h1.54l-.22,7.68h-1.09Z"/>
  </g>
  <line class="cls-5" x1="444.16" y1="60.89" x2="444.16" y2="50.64"/>
  <polygon points="446.01 52.05 444.16 51.26 442.31 52.05 444.16 47.66 446.01 52.05"/>
  <line class="cls-5" x1="458" y1="60.89" x2="458" y2="50.64"/>
  <polygon points="459.85 52.05 457.99 51.26 456.14 52.05 457.99 47.66 459.85 52.05"/>
  <line class="cls-5" x1="451.08" y1="60.89" x2="451.08" y2="50.64"/>
  <polygon points="452.93 52.05 451.08 51.26 449.23 52.05 451.08 47.66 452.93 52.05"/>
  <g>
    <path d="M440.99,67.21c0,2.78-1.69,4.26-3.75,4.26s-3.63-1.65-3.63-4.1c0-2.57,1.6-4.25,3.75-4.25s3.63,1.69,3.63,4.09ZM434.71,67.34c0,1.73.94,3.27,2.58,3.27s2.59-1.52,2.59-3.36c0-1.61-.84-3.29-2.58-3.29s-2.59,1.59-2.59,3.37Z"/>
    <path d="M447.2,69.75c0,.6.01,1.13.05,1.58h-.94l-.06-.95h-.02c-.28.47-.89,1.08-1.92,1.08-.91,0-2-.5-2-2.54v-3.39h1.05v3.21c0,1.1.34,1.85,1.3,1.85.71,0,1.2-.49,1.39-.96.06-.16.1-.35.1-.54v-3.56h1.05v4.22Z"/>
    <path d="M450.23,63.86v1.67h1.51v.8h-1.51v3.13c0,.72.2,1.13.79,1.13.28,0,.48-.04.61-.07l.05.79c-.2.08-.53.14-.94.14-.49,0-.89-.16-1.14-.44-.3-.31-.41-.83-.41-1.51v-3.17h-.9v-.8h.9v-1.39l1.03-.28Z"/>
    <path d="M452.93,67.42c0-.74-.02-1.34-.05-1.9h.95l.05,1h.02c.43-.71,1.12-1.13,2.06-1.13,1.4,0,2.46,1.19,2.46,2.95,0,2.09-1.27,3.12-2.64,3.12-.77,0-1.44-.34-1.79-.91h-.02v3.15h-1.04v-6.28ZM453.97,68.97c0,.16.02.3.05.43.19.73.83,1.24,1.58,1.24,1.12,0,1.76-.91,1.76-2.24,0-1.16-.61-2.16-1.73-2.16-.72,0-1.39.52-1.59,1.31-.04.13-.07.29-.07.43v1Z"/>
    <path d="M464.62,69.75c0,.6.01,1.13.05,1.58h-.94l-.06-.95h-.02c-.28.47-.89,1.08-1.92,1.08-.91,0-2-.5-2-2.54v-3.39h1.05v3.21c0,1.1.34,1.85,1.3,1.85.71,0,1.2-.49,1.39-.96.06-.16.1-.35.1-.54v-3.56h1.05v4.22Z"/>
    <path d="M467.64,63.86v1.67h1.51v.8h-1.51v3.13c0,.72.2,1.13.79,1.13.28,0,.48-.04.61-.07l.05.79c-.2.08-.53.14-.94.14-.49,0-.89-.16-1.14-.44-.3-.31-.41-.83-.41-1.51v-3.17h-.9v-.8h.9v-1.39l1.03-.28Z"/>
  </g>
  <line class="cls-5" x1="267.38" y1="185.81" x2="267.38" y2="175.57"/>
  <polygon points="269.23 176.97 267.38 176.18 265.53 176.97 267.38 172.58 269.23 176.97"/>
  <line class="cls-5" x1="281.21" y1="185.81" x2="281.21" y2="175.57"/>
  <polygon points="283.06 176.97 281.21 176.18 279.36 176.97 281.21 172.58 283.06 176.97"/>
  <line class="cls-5" x1="274.29" y1="185.81" x2="274.29" y2="175.57"/>
  <polygon points="276.15 176.97 274.29 176.18 272.44 176.97 274.29 172.58 276.15 176.97"/>
  <g>
    <path d="M263.55,160.52v8.08h-1.04v-8.08h1.04Z"/>
    <path d="M265.44,164.37c0-.6-.01-1.09-.05-1.57h.94l.06.96h.02c.29-.55.96-1.09,1.92-1.09.8,0,2.05.48,2.05,2.47v3.47h-1.06v-3.35c0-.94-.35-1.72-1.34-1.72-.7,0-1.24.49-1.42,1.08-.05.13-.07.31-.07.49v3.49h-1.06v-4.23Z"/>
    <path d="M272.1,164.7c0-.74-.02-1.34-.05-1.89h.95l.05,1h.02c.43-.71,1.12-1.13,2.06-1.13,1.4,0,2.46,1.19,2.46,2.95,0,2.09-1.27,3.12-2.64,3.12-.77,0-1.44-.34-1.79-.91h-.02v3.15h-1.04v-6.29ZM273.15,166.24c0,.16.02.3.05.43.19.73.83,1.24,1.58,1.24,1.12,0,1.76-.91,1.76-2.24,0-1.16-.61-2.16-1.73-2.16-.72,0-1.39.52-1.6,1.31-.04.13-.07.29-.07.43v1Z"/>
    <path d="M283.79,167.02c0,.6.01,1.13.05,1.58h-.94l-.06-.95h-.02c-.28.47-.89,1.08-1.92,1.08-.91,0-2-.5-2-2.54v-3.39h1.06v3.21c0,1.1.34,1.85,1.3,1.85.71,0,1.2-.49,1.39-.96.06-.16.1-.35.1-.54v-3.56h1.06v4.22Z"/>
    <path d="M286.82,161.13v1.67h1.51v.8h-1.51v3.13c0,.72.2,1.13.79,1.13.28,0,.48-.04.61-.07l.05.79c-.2.08-.53.14-.94.14-.49,0-.89-.16-1.14-.44-.3-.31-.41-.83-.41-1.51v-3.17h-.9v-.8h.9v-1.39l1.03-.28Z"/>
  </g>
  <g class="cls-16">
    <polyline points="47.34 152.5 57.12 152.5 43.64 168.5"/>
    <rect class="cls-1" x="43.64" y="152.5" width="13.48" height="16"/>
  </g>
  <rect class="cls-1" width="837.68" height="205"/>
  <rect class="cls-1" width="837.68" height="205"/>
</svg>